<svg height="512" viewBox="0 0 64 64" width="512" xmlns="http://www.w3.org/2000/svg"><g id="Flat"><g id="Color"><g><g><path d="m40 3a21 21 0 0 1 21 21v33a0 0 0 0 1 0 0h-42a0 0 0 0 1 0 0v-33a21 21 0 0 1 21-21z" fill="#656b76"/><path d="m47 14h-5v-4h-4v4h-5v4h5v10h4v-10h5z" fill="#d0d8da"/><path d="m19 57h42v4h-42z" fill="#656b76"/><path d="m53 49a24 24 0 0 1 -24-24v-18.864a20.964 20.964 0 0 0 -10 17.864v33h42v-8z" fill="#464a51"/><path d="m40 14v-4h-2v4h-5v4h5v10h4v-10h5v-2h-5a2 2 0 0 1 -2-2z" fill="#93999a"/><g fill="#d0d8da"><path d="m51 35h-9a1 1 0 0 1 0-2h9a1 1 0 0 1 0 2z"/><path d="m52 45h-21a1 1 0 0 1 0-2h21a1 1 0 0 1 0 2z"/><path d="m51 40h-9a1 1 0 0 1 0-2h9a1 1 0 0 1 0 2z"/></g><path d="m51 51h-20a1 1 0 0 1 0-2h20a1 1 0 0 1 0 2z" fill="#93999a"/><path d="m30 44a1 1 0 0 0 1 1h8.735a24.168 24.168 0 0 1 -2.6-2h-6.135a1 1 0 0 0 -1 1z" fill="#93999a"/></g><g><path d="m10 61 4-16-8-6-3-8 2-4 1.756 1.756c.136.136 1.567 3.6 2.072 4.828a.984.984 0 0 0 .6.559l1.748.583a1 1 0 0 0 1.211-.5l.388-.777a1 1 0 0 0 0-.894l-4.59-9.185a1 1 0 0 1 -.054-.763l3.128-9.384a1.79 1.79 0 0 1 2.691-.923l.053.035a1.79 1.79 0 0 1 .762 1.84l-1.765 8.825 5 7-.889-8a3.823 3.823 0 0 1 .285-1.925l1.856-4.33a1.79 1.79 0 0 1 2.446-.9l.7.35a1.79 1.79 0 0 1 .8 2.4l-1.851 3.7a2 2 0 0 0 -.134 1.444l1.787 6.261 2.087-4.173a3.811 3.811 0 0 1 2.939-2.08l3.962-.5a1.79 1.79 0 0 1 2.012 1.781v.505a1.79 1.79 0 0 1 -1.439 1.755l-3.561.712-1 3-1 2 5.065-.844a3.8 3.8 0 0 1 1.835.144 3.815 3.815 0 0 1 2.535 2.871l.331 1.654a1.79 1.79 0 0 1 -.766 1.84l-.316.21a1.79 1.79 0 0 1 -2.594-.689l-1.09-2.186-4 2-3 9 3 15z" fill="#a1d51c"/><path d="m20.844 44.407a4.8 4.8 0 0 0 -.477-2.673l-8.281-16.563a6.746 6.746 0 0 1 -.54-4.536l1.971-8.541a1.787 1.787 0 0 0 -2.258 1.129l-3.128 9.384a1 1 0 0 0 .054.763l4.591 9.183a1 1 0 0 1 0 .894l-.388.777a1 1 0 0 1 -1.211.5l-1.748-.583a.984.984 0 0 1 -.6-.559c-.5-1.224-1.936-4.692-2.072-4.828l-1.757-1.754-2 4 3 8 8 6-4 16h18l-2.255-11.275a4.793 4.793 0 0 1 -4.901-5.318z" fill="#7ab92d"/><path d="m3 61 4-4 8-2 5 2 3-3 6-1 5 2v3l4.325 3z" fill="#fcbc04"/><path d="m15 57 5 2 3-3 6-1 3 1 1 4 1.775 1h3.55l-4.325-3v-3l-5-2-6 1-3 3-5-2-5.333 1.333z" fill="#f9e109"/><g fill="#436d10"><path d="m12.719 51.484 5.329-.484h2.952a1 1 0 0 0 0-2h-1.613l.561-1.684a1 1 0 1 0 -1.9-.632l-.794 2.379-4.373.4-.5 1.982a.954.954 0 0 0 .238.045c.038-.002.068-.003.1-.006z"/><path d="m23 38a1 1 0 0 0 -2 0v2h-2a1 1 0 0 0 0 2h2.788l3.87 1.72c.031.014.064.01.095.021l.629-1.887-3.382-1.504z"/></g></g></g></g></g></svg>