<svg enable-background="new 0 0 232.151 232.151" height="232.151" viewBox="0 0 232.151 232.151" width="232.151" xmlns="http://www.w3.org/2000/svg"><path d="m189.504 78.51.014-.001c-.02-.276-.088-.528-.188-.751-.424-1.269-1.611-2.107-3.06-2.107-.479 0-.965.096-1.348.255-1.246.464-2.342.941-3.346 1.458-2.793 1.433-5.371 3.301-7.66 5.551-3.769 3.702-7.09 8.416-10.459 14.837-1.504 2.865-2.908 5.827-4.266 8.691-1.623 3.421-3.285 6.93-5.134 10.303-.813-2.132-1.721-4.215-2.61-6.252-1.22-2.798-2.48-5.693-3.443-8.608-1.225-3.706-1.676-6.927-1.379-9.848.213-2.066.812-3.847 1.785-5.289 1.092-1.617 2.77-2.797 4.549-4.046.484-.34.967-.679 1.434-1.025 3.369-2.485 6.623-5.845 9.412-9.713 1.89-2.614 3.24-5.517 4.467-8.266 1.334-2.998 2.339-6.131 3.308-9.16l.074-.233c.186-.575.383-1.143.58-1.711l.086-.248c.506-1.446.416-2.664-.265-3.616-.6-.842-1.516-1.325-2.516-1.325-1.197 0-2.324.674-2.939 1.754-.293.507-.459 1.01-.627 1.517-.168.502-.364.998-.559 1.492l-.31.796c-.543 1.434-1.129 2.962-1.771 4.477-1.299 3.042-2.721 5.756-4.227 8.064-1.609 2.466-3.767 4.625-5.66 6.411-1.154 1.086-2.289 2-3.472 2.791-.578.389-1.17.765-1.756 1.14-.758.482-1.514.964-2.246 1.47-2.885 1.978-4.951 4.228-6.319 6.878-1.379 2.665-2.191 5.918-2.418 9.67-.187 3.076.19 6.374 1.149 10.083.863 3.332 2.07 6.566 3.238 9.694 1.092 2.927 2.223 5.955 3.035 8.99.18.67.453 1.648.731 2.643.25.895.562 2.006.765 2.748-.261.229-.535.473-.771.68l-.424.374c-.805.711-1.633 1.356-2.453 1.918-2.656 1.812-5.799 2.987-9.168 3.44l-1.053-29.233-.228-6.291c-.008-.282-.016-.563-.041-.833-.121-1.259-.707-2.232-1.225-3.09-.129-.215-23.084-33.651-23.248-33.941l-.498-7.714c-.084-1.064-.168-2.129-.242-3.195-.406-5.855-.547-11.969 2.545-16.711.836-1.283 1.598-2.182 2.398-2.827.969-.782 2.207-1.257 3.291-1.618.756-.251 1.518-.488 2.275-.725 2.205-.687 4.484-1.396 6.662-2.468 2.763-1.359 5.146-2.77 7.3-4.316 2.489-1.795 4.812-3.921 7.1-6.501 1.912-2.153 3.672-4.441 5.375-6.654l.75-.976c.123-.158.275-.329.434-.511.896-1.025 2.56-2.932 1.502-5.04-.539-1.077-1.661-1.78-2.889-1.791-1.029 0-1.938.485-2.684 1.416l-1.064 1.277c-3.219 3.867-6.543 7.867-10.514 10.892-2.23 1.698-4.652 3.139-7.195 4.284-2.502 1.126-5.119 1.881-8.279 2.668-2.523.629-5.453 1.545-8.021 3.571-2.029 1.601-3.838 3.797-5.375 6.528-1.99 3.545-2.926 7.408-3.365 10.883-1.861-3.73-3.348-7.488-4.436-11.223-1.625-5.588-2.045-10.686-1.256-15.114.252-1.248.586-2.721 1.139-4.183.23-.613.484-1.2.777-1.801.039-.083.086-.168.131-.255.193-.356.43-.799.539-1.344.277-1.394-.566-2.808-1.922-3.219-1.131-.346-2.324.067-3.105 1.066-.779.992-1.691 2.188-2.521 3.533-3.082 4.999-4.693 11.392-4.781 19.003-.051 4.423.416 9.021 1.434 14.055.822 4.083 1.91 8.088 3.25 11.958 0 0 6.725 16.732 7.848 19.724 2.139 5.685 4.326 11.622 6.51 17.646.904 2.496 1.809 4.991 2.703 7.485l1.129 3.198-10.076 47.797c-.088-.211-.18-.428-.264-.631l-.52-1.263c-1.068-2.612-2.174-5.313-3.596-7.866-1.875-3.369-6.035-9.242-12.836-10.712-1.129-.243-2.176-.231-3.188-.221-.465.004-.932.011-1.404-.015-1.273-.065-2.359-.674-2.803-1.027-.92-.723-1.512-1.867-1.926-2.782-.459-1.014-.842-2.053-1.25-3.153l-.441-1.174c-.244-.646-.574-1.496-.961-2.326l-.098-.223c-.295-.686-.793-1.831-2.109-2.251-1.203-.382-2.607.125-3.299 1.197-.791 1.241-.381 2.521-.117 3.337.385 1.217.607 2.496.842 3.852.227 1.305.459 2.656.857 3.993.141.478.295.933.461 1.362-.529-.051-1.066-.123-1.602-.219-1.443-.26-2.898-.764-4.258-1.269-1.316-.489-2.715-1.077-4.281-1.797-.566-.261-1.123-.546-1.682-.83-.789-.401-1.604-.817-2.453-1.176-.873-.368-1.785-.464-2.57-.271-1.121.274-1.922 1.099-2.191 2.263-.25 1.086-.115 2.635 1.941 3.85l.588.347c1.689.996 3.434 2.023 5.217 2.961 6.492 3.416 12.85 4.834 18.895 4.213.387-.039.775-.084 1.162-.131 1.117-.135 2.172-.262 3.191-.213 1.063.049 2.02.397 3.109 1.129 1.938 1.303 3.5 3.364 4.777 6.304.891 2.05 1.605 4.247 2.297 6.37.254.774.775 2.352.775 2.352 1.652 5.38 4.186 8.812 6.578 10.991l-4.656 22.095-5.889 27.18c-3.826 1.805-21.24 10.016-22.84 10.754l-2.371 1.097c-.596.265-1.496.667-2.004 1.694-.482.973-.432 2.091.129 2.994.582.938 1.646 1.521 2.773 1.521h101.972c.627 0 1.678 0 2.594-.822 1.033-.928 1.289-2.45.617-3.707-.515-.96-1.332-1.366-1.869-1.633l-6.559-3.271c-4.976-2.481-14.052-7.008-16.927-8.443-.061-1.635-.186-5.112-.312-8.624l-1.019-28.229c-.233-6.441-.467-12.883-.698-19.324l-.461-12.758c6.12-.914 11.719-3.429 16.233-7.306 1.063-.916 2.154-1.985 3.433-3.369 2.071-2.254 4.752-6.378 5.655-7.913.734-1.252 1.461-2.588 2.213-4.086 1.941-3.869 3.619-7.91 5.238-11.816.795-1.912 1.586-3.824 2.41-5.719 1.492-3.419 2.795-6.155 4.104-8.608 1.187-2.216 2.816-5.079 4.931-7.57 1.752-2.064 3.774-3.843 6.014-5.291.961-.621 2.01-1.118 3.199-1.682 2.266-1.075 2.428-2.666 2.342-3.471z"/></svg>