<svg enable-background="new 0 0 512 512" viewBox="0 0 512 512" xmlns="http://www.w3.org/2000/svg"><path d="m377.297 445.388c10.661-170.739 75.394-305.624 75.394-305.624-128.167 72.004-151.536 248.798-155.675 320.939 5.975-256.505 82.92-440.835 82.92-440.835-150.942 128.378-162.985 379.774-163.203 452.259-2.328-62.767-20.637-256.195-156.217-332.363 0 0 69.358 144.518 76.312 323.729-3.855-48.222-25.835-143.656-136.828-177.29 0 0 57.626 68.643 57.626 205.929h396.748c0-137.286 57.626-205.929 57.626-205.929-98.388 29.814-126.825 108.18-134.703 159.185z"/></svg>