<?xml version="1.0" encoding="iso-8859-1"?>
<!-- Generator: Adobe Illustrator 19.0.0, SVG Export Plug-In . SVG Version: 6.00 Build 0)  -->
<svg version="1.1" id="Capa_1" xmlns="http://www.w3.org/2000/svg" xmlns:xlink="http://www.w3.org/1999/xlink" x="0px" y="0px"
	 viewBox="0 0 512.002 512.002" style="enable-background:new 0 0 512.002 512.002;" xml:space="preserve">
<path style="fill:#10BB67;" d="M360.001,482.002v-61.017c0-9.501,3.879-18.937,11.504-24.604
	c29.429-21.869,48.496-56.897,48.496-96.379h17.578l21.211,21.211c11.718,11.718,30.703,11.719,42.422,0
	c11.719-11.719,11.719-30.703,0-42.422l-30-30c-5.625-5.625-13.257-8.789-21.211-8.789h-30v-11.827
	c0-5.922,1.747-11.702,5.031-16.63c25.298-37.955,51.038-76.565,49.93-74.903c9.185-13.784,5.464-32.417-8.32-41.602
	c-13.828-9.214-32.417-5.479-41.602,8.32c-10.849,16.3,32.366-48.544-71.798,107.699c-9.332,13.998-31.234,4.608-27.154-11.713
	c15.36-61.438,33.458-133.821,33.019-132.065c4.014-16.084-5.757-32.358-21.826-36.387c-16.04-3.999-32.358,5.757-36.387,21.826
	c-7.439,29.676,17.676-70.716-31.333,125.315c-4.29,17.16-29.56,14.099-29.56-3.589c0-73.514,0-151.737,0-144.446
	c0-16.567-13.433-30-30-30s-30,13.433-30,30v452h180V482.002z"/>
<g>
	<path style="fill:#0CA656;" d="M299.75,57.265c0.557-2.225,0.868-3.474,1.025-4.107C300.55,54.064,300.082,55.935,299.75,57.265z"
		/>
	<path style="fill:#0CA656;" d="M471.212,248.791c-5.625-5.625-13.257-8.789-21.211-8.789h-30v-11.827
		c0-5.922,1.747-11.702,5.032-16.63c25.296-37.956,51.037-76.566,49.929-74.903c9.185-13.784,5.464-32.417-8.32-41.602
		c-13.828-9.214-32.417-5.479-41.602,8.32c-2.591,3.893-2.086,3.135-1.252,1.888c-4.014,6.019-19.625,29.431-70.545,105.811
		c-9.333,13.997-31.234,4.607-27.155-11.713c15.361-61.439,33.457-133.821,33.019-132.065c4.014-16.084-5.757-32.358-21.826-36.387
		c-16.04-3.999-32.358,5.757-36.387,21.826c-1.857,7.407-1.685,6.711-1.144,4.543c-2.567,10.279-10.16,40.66-29.749,119.015v305.724
		h90v-61.017c0-9.501,3.878-18.939,11.505-24.604c29.428-21.87,48.495-56.898,48.495-96.379h17.578l21.211,21.211
		c11.718,11.718,30.703,11.719,42.422,0c11.719-11.719,11.719-30.703,0-42.422L471.212,248.791z M424.546,104.114
		C425.068,103.332,425.254,103.05,424.546,104.114L424.546,104.114z"/>
	<path style="fill:#0CA656;" d="M300.776,53.158C300.929,52.546,300.962,52.409,300.776,53.158L300.776,53.158z"/>
</g>
<path style="fill:#32D736;" d="M192.906,243.767c-5.947-1.641-12.905-6.519-12.905-14.854c0-25.475,0-36.998,0-48.911
	c0-16.569-13.431-30-30-30s-30,13.431-30,30c0,60.32,0,47.872,0,105c0,46.406,19.702,90.923,54.067,122.153
	c2.212,2.007,5.933,6.226,5.933,11.909v77.938c0,8.291,6.709,15,15,15h75v-167C270.001,297.878,238.302,256.247,192.906,243.767z"/>
<g>
	<circle style="fill:#713708;" cx="315.001" cy="285.002" r="15"/>
	<circle style="fill:#713708;" cx="345.001" cy="345.002" r="15"/>
	<circle style="fill:#713708;" cx="405.001" cy="435.002" r="15"/>
</g>
<g>
	<circle style="fill:#994C0F;" cx="105.001" cy="435.002" r="15"/>
	<path style="fill:#994C0F;" d="M240.001,450.002c-16.538,0-30-13.462-30-30s13.462-30,30-30s30,13.462,30,30
		S256.539,450.002,240.001,450.002z"/>
</g>
<path style="fill:#BF6015;" d="M512.001,497.002c0,8.401-6.599,15-15,15h-482c-8.401,0-15-6.599-15-15s6.599-15,15-15h482
	C505.402,482.002,512.001,488.601,512.001,497.002z"/>
<path style="fill:#994C0F;" d="M512.001,497.002c0,8.401-6.599,15-15,15h-227v-30h227
	C505.402,482.002,512.001,488.601,512.001,497.002z"/>
<g>
</g>
<g>
</g>
<g>
</g>
<g>
</g>
<g>
</g>
<g>
</g>
<g>
</g>
<g>
</g>
<g>
</g>
<g>
</g>
<g>
</g>
<g>
</g>
<g>
</g>
<g>
</g>
<g>
</g>
</svg>
