<svg enable-background="new 0 0 512 512" viewBox="0 0 512 512" xmlns="http://www.w3.org/2000/svg"><path d="m468.245 234.667c-10.287-100.87-90.042-180.625-190.912-190.912v-43.755h-42.667v43.755c-100.869 10.287-180.624 90.042-190.911 190.912h-43.755v42.667h43.755c10.287 100.87 90.042 180.625 190.912 190.912v43.754h42.667v-43.755c100.87-10.287 180.625-90.042 190.912-190.912h43.754v-42.667h-43.755zm-43.05 42.666c-9.837 77.221-70.64 138.024-147.861 147.861v-41.194h-42.667v41.195c-77.221-9.837-138.024-70.64-147.861-147.861h41.194v-42.667h-41.195c9.837-77.221 70.64-138.024 147.861-147.861v41.194h42.667v-41.195c77.221 9.837 138.024 70.64 147.861 147.861h-41.194v42.667z"/><path d="m256 149.333c-58.91 0-106.667 47.756-106.667 106.667s47.757 106.667 106.667 106.667 106.667-47.757 106.667-106.667c-.071-58.881-47.786-106.596-106.667-106.667zm0 170.667c-35.346 0-64-28.654-64-64s28.654-64 64-64 64 28.654 64 64-28.654 64-64 64z"/><circle cx="256" cy="256" r="21.333"/></svg>