<?xml version="1.0" encoding="iso-8859-1"?>
<!-- Generator: Adobe Illustrator 19.0.0, SVG Export Plug-In . SVG Version: 6.00 Build 0)  -->
<svg version="1.1" id="Capa_1" xmlns="http://www.w3.org/2000/svg" xmlns:xlink="http://www.w3.org/1999/xlink" x="0px" y="0px"
	 viewBox="0 0 512 512" style="enable-background:new 0 0 512 512;" xml:space="preserve">
<g>
	<g>
		<g>
			<path d="M468.245,234.667c-10.287-100.87-90.042-180.625-190.912-190.912V0h-42.667v43.755
				C133.797,54.042,54.042,133.797,43.755,234.667H0v42.667h43.755c10.287,100.87,90.042,180.625,190.912,190.912V512h42.667
				v-43.755c100.87-10.287,180.625-90.042,190.912-190.912H512v-42.667H468.245z M425.195,277.333
				c-9.837,77.221-70.64,138.024-147.861,147.861V384h-42.667v41.195c-77.221-9.837-138.024-70.64-147.861-147.861H128v-42.667
				H86.805c9.837-77.221,70.64-138.024,147.861-147.861V128h42.667V86.805c77.221,9.837,138.024,70.64,147.861,147.861H384v42.667
				H425.195z"/>
			<path d="M256,149.333c-58.91,0-106.667,47.756-106.667,106.667S197.09,362.667,256,362.667S362.667,314.91,362.667,256
				C362.596,197.119,314.881,149.404,256,149.333z M256,320c-35.346,0-64-28.654-64-64s28.654-64,64-64s64,28.654,64,64
				S291.346,320,256,320z"/>
			<circle cx="256" cy="256" r="21.333"/>
		</g>
	</g>
</g>
<g>
</g>
<g>
</g>
<g>
</g>
<g>
</g>
<g>
</g>
<g>
</g>
<g>
</g>
<g>
</g>
<g>
</g>
<g>
</g>
<g>
</g>
<g>
</g>
<g>
</g>
<g>
</g>
<g>
</g>
</svg>
