<svg enable-background="new 0 0 504.124 504.124" viewBox="0 0 504.124 504.124" xmlns="http://www.w3.org/2000/svg"><path d="m252.258 385.969c-25.994 0-47.262 21.268-47.262 47.262s21.268 47.262 47.262 47.262 47.262-21.268 47.262-47.262-21.268-47.262-47.262-47.262zm126.031-31.507c-25.994 0-47.262 21.268-47.262 47.262s21.268 47.262 47.262 47.262 47.262-21.268 47.262-47.262-21.268-47.262-47.262-47.262zm-252.061 0c-25.994 0-47.262 21.268-47.262 47.262s21.268 47.262 47.262 47.262 47.262-21.268 47.262-47.262-21.268-47.262-47.262-47.262z" fill="#324d5b"/><path d="m107.323 233.945c79.951-49.231 209.526-49.231 289.477 0s79.951 129.182 0 178.018c-79.951 49.231-209.526 49.231-289.477 0s-79.951-128.788 0-178.018z" fill="#e2574c"/><path d="m127.015 400.148c-77.194-47.655-79.951-123.668-7.877-172.898-3.938 1.969-7.877 4.332-11.815 6.695-79.951 49.231-79.951 129.182 0 178.018 79.951 49.231 209.526 49.231 289.477 0 2.757-1.575 5.514-3.545 7.877-5.12-80.345 42.535-201.649 40.172-277.662-6.695z" fill="#cb4e44"/><path d="m73.846 146.117c98.462-58.289 257.969-58.289 356.431 0s98.462 153.206 0 211.495-257.969 58.289-356.431 0-98.461-152.812 0-211.495z" fill="#324d5b"/><path d="m446.425 342.252c-98.462 58.289-257.969 58.289-356.431 0-79.557-47.262-94.917-117.76-46.474-174.08-66.56 58.289-56.32 138.24 30.326 189.834 98.462 58.289 257.969 58.289 356.431 0 18.905-11.422 34.265-24.025 46.08-37.415-8.665 7.483-18.511 14.572-29.932 21.661z" fill="#2d4552"/><path d="m252.258 23.631c87.04 0 157.538 70.498 157.538 157.538s-70.498 126.031-157.538 126.031-157.538-38.991-157.538-126.031 70.498-157.538 157.538-157.538z" fill="#e4e7e7"/><path d="m94.72 181.169c0 86.646 70.105 125.637 156.357 126.031h1.182v-283.569c-87.041 0-157.539 70.498-157.539 157.538z" fill="#d8dbdb"/><path d="m252.258 307.2c35.446 0 68.135-6.302 94.523-20.086v-105.945c0-52.382-42.142-94.523-94.523-94.523s-94.523 42.142-94.523 94.523v105.945c26.388 13.784 59.077 20.086 94.523 20.086z" fill="#3db39e"/><path d="m157.735 181.169v105.945c25.994 13.391 58.683 20.086 93.735 20.086h.788v-220.554c-52.381 0-94.523 42.536-94.523 94.523z" fill="#3aaa96"/><path d="m252.258 149.662c25.994 0 47.262 21.268 47.262 47.262s-21.268 47.262-47.262 47.262-47.262-21.268-47.262-47.262 21.269-47.262 47.262-47.262z" fill="#fff"/><path d="m252.258 149.662c-25.994 0-47.262 21.268-47.262 47.262s21.268 47.262 47.262 47.262z" fill="#f2f2f2"/><path d="m252.258 173.292c12.997 0 23.631 10.634 23.631 23.631s-10.634 23.631-23.631 23.631-23.631-10.634-23.631-23.631 10.635-23.631 23.631-23.631z" fill="#324d5b"/><path d="m252.258 173.292c-12.997 0-23.631 10.634-23.631 23.631s10.634 23.631 23.631 23.631z" fill="#2f4956"/></svg>