<?xml version="1.0" encoding="iso-8859-1"?>
<!-- Generator: Adobe Illustrator 19.0.0, SVG Export Plug-In . SVG Version: 6.00 Build 0)  -->
<svg version="1.1" id="Capa_1" xmlns="http://www.w3.org/2000/svg" xmlns:xlink="http://www.w3.org/1999/xlink" x="0px" y="0px"
	 viewBox="0 0 468.293 468.293" style="enable-background:new 0 0 468.293 468.293;" xml:space="preserve">
<path style="fill:#513A33;" d="M232.381,468.293c-2.24,0-4.285-0.105-6.249-0.323c-7.595-0.839-14.727-2.857-21.197-5.995
	c-4.328-2.099-8.221-5.304-11.571-9.525c-2.015-2.539-5.168-4.861-9.371-6.902c-4.907-2.383-10.354-3.823-16.188-4.281
	c-11.424-0.894-20.027-4.766-25.57-11.507c-5.685-6.915-7.963-16.793-6.587-28.568c0.992-8.493,0.028-17.236-2.789-25.284
	l-23.316-66.617c-2.466-7.046-6.955-13.511-12.982-18.695c-8.127-6.991-14.081-17.958-16.336-30.087
	c-1.629-8.764-1.282-17.568,1.005-25.461c2.086-7.199,3.143-15.088,3.143-23.448v-63.425c0-39.579,15.413-76.789,43.399-104.775
	C155.76,15.413,192.97,0,232.549,0c39.579,0,76.789,15.413,104.775,43.399c27.987,27.987,43.399,65.196,43.399,104.775v53.898
	c0,10.017,1.825,20.169,5.424,30.172c3.089,8.587,3.749,18.36,1.908,28.264c-2.519,13.549-9.395,25.246-18.866,32.091
	c-6.826,4.933-11.964,11.912-14.858,20.181l-22.094,63.128c-2.817,8.048-3.781,16.791-2.789,25.283
	c1.374,11.756-0.895,21.624-6.561,28.536c-5.511,6.723-14.059,10.6-25.407,11.524c-5.712,0.465-10.944,1.779-15.552,3.905
	c-4.614,2.13-8.045,4.584-10.196,7.294c-3.35,4.221-7.243,7.426-11.571,9.525c-6.47,3.139-13.602,5.156-21.198,5.995
	c-1.964,0.217-4.009,0.323-6.249,0.323H232.381z"/>
<path style="fill:#F9B775;" d="M382.427,233.581c-3.645-10.12-5.662-20.754-5.662-31.507v-53.9
	c0-79.649-64.568-144.222-144.216-144.222c-39.824,0-75.88,16.143-101.979,42.243c-26.099,26.099-42.243,62.155-42.243,101.979
	v63.426c0,8.289-0.989,16.578-3.3,24.546c-2.034,7.035-2.481,15.205-0.91,23.641c0.757,4.074,1.933,7.928,3.441,11.476
	c2.842,6.673,6.882,12.29,11.583,16.335c6.385,5.492,11.352,12.437,14.137,20.387l23.314,66.613
	c1.237,3.537,2.141,7.165,2.695,10.849c0.819,5.345,0.921,10.792,0.288,16.2c-1.548,13.228,0.746,33.496,28.535,35.677
	c6.108,0.475,12.103,1.989,17.607,4.662c3.967,1.927,8.001,4.549,10.741,8.007c2.78,3.498,6.182,6.47,10.199,8.425
	c4.707,2.283,11.408,4.679,19.906,5.622c1.932,0.209,3.876,0.299,5.814,0.299h0.339c1.938,0,3.882-0.09,5.814-0.299
	c8.498-0.944,15.2-3.339,19.901-5.622c4.023-1.955,7.425-4.927,10.199-8.425c2.949-3.718,7.396-6.47,11.64-8.43
	c5.311-2.447,11.058-3.78,16.889-4.255c27.625-2.249,29.902-22.461,28.36-35.66c-1.068-9.125-0.051-18.375,2.983-27.049
	l22.093-63.127c3.091-8.826,8.696-16.601,16.273-22.076c8.278-5.984,14.889-16.657,17.296-29.608
	C385.931,250.307,385.151,241.164,382.427,233.581z"/>
<path style="fill:#F6A74B;" d="M310.632,381.272c-0.657,3.978-1.857,7.847-3.222,11.636c-0.902,2.49-1.899,4.998-3.6,7.025
	c-2.49,2.981-5.995,4.446-9.836,4.904c-4.394,0.534-9.222-0.255-13.469-1.587c-5.915-1.857-11.976-4.493-18.075-3.383
	c-2.159,0.392-4.2,1.242-6.264,1.989c-4.134,1.493-8.414,2.57-12.756,3.231c-9.524,1.45-19.36,0.883-28.639-1.724
	c-3.109-0.879-6.246-1.984-9.467-1.795c-5.409,0.317-9.845,4.148-14.546,6.85c-8.178,4.691-19.374,5.797-26.499-0.378
	c-2.32-2.013-4.035-4.63-5.48-7.341c-0.803-1.512-1.535-3.071-2.183-4.658c-2.211-5.405-3.477-11.187-3.543-17.017
	c-0.052-4.649,0.647-9.269,1.465-13.847c0.501-2.801,1.044-5.603,1.649-8.39v-0.005c0.038-0.18,0.076-0.359,0.118-0.539
	c2.991-13.691,7.337-27.103,14.154-39.306c1.559-2.787,3.274-5.542,5.622-7.705c2.088-1.928,4.606-3.316,7.124-4.644
	c4.942-2.603,9.973-5.041,15.08-7.304c0.95-0.42,2.929-1.2,3.661,0.014c0.647,1.072-0.25,1.016-0.548,1.885
	c-0.85,2.494-0.907,4.63,1.55,6.571c2.154,1.71,5.017,2.159,7.748,2.499c11.707,1.455,23.522,1.998,35.309,1.616
	c3.179-0.104,6.453-0.298,9.307-1.696c2.853-1.398,5.201-4.309,4.975-7.479c-0.038-0.539-0.128-1.148,0.231-1.55
	c0.496-0.553,1.398-0.269,2.069,0.052c5.792,2.787,11.579,5.575,17.371,8.367c3.236,1.554,6.524,3.151,9.146,5.603
	c2.008,1.876,3.548,4.19,4.979,6.538c2.608,4.29,4.899,8.759,6.921,13.351c2.216,5.008,4.11,10.167,5.759,15.387
	C310.089,359.053,312.451,370.297,310.632,381.272z"/>
<path style="fill:#BF8C49;" d="M198.854,314.834c1.861-0.208,3.756-0.227,5.598-0.25c3.968-0.047,7.965-0.095,11.853,0.676
	c1.743,0.345,3.453,0.85,5.206,1.143c2.036,0.345,4.105,0.397,6.165,0.444c10.615,0.265,21.443,0.496,31.62-2.537
	c1.913-0.567,3.803-1.257,5.783-1.521c1.975-0.265,4.096-0.071,5.773,1.006c1.054,0.676,1.861,1.644,2.598,2.664
	c0.514,0.048-0.096,0.999-0.489,1.334c-3.024,2.572-7.506,1.846-11.474,1.973c-2.672,0.085-5.306,0.624-7.945,1.053
	c-7.009,1.14-14.116,1.516-21.207,1.89c-3.443,0.182-6.889,0.363-10.335,0.291c-8.231-0.172-16.43-1.805-24.099-4.801
	c-0.562-0.22-1.178-0.502-1.397-1.064c-0.236-0.606,0.115-1.315,0.643-1.696C197.673,315.058,198.207,314.906,198.854,314.834z"/>
<path style="fill:#2B1811;" d="M180.883,320.127c0,0,7.124-9.242,23.105-4.043c0,0,24.068,8.233,54.683,1.228
	c0,0,13.671-6.427,25.223,5.703c0,0,29.459,38.316,10.783,73.36c0,0-1.348,6.932-36.969-5.776c0,0-20.602-8.742-62.192,7.663
	c0,0-25.031,14.287-31.385-0.924c0,0-6.161-15.018-0.963-40.434C163.169,356.903,171.641,329.946,180.883,320.127z"/>
<g>
	<path style="fill:#BF8C49;" d="M190.498,305.637c-1.885,0.737-3.685,1.677-5.452,2.666c-3.211,1.796-6.368,3.789-8.892,6.465
		c-2.525,2.676-4.389,6.12-4.569,9.795c1.912,0.077,3.574-1.334,4.673-2.9c1.099-1.566,1.864-3.374,3.162-4.78
		c1.427-1.546,3.378-2.478,5.239-3.458c2.448-1.29,4.82-2.722,7.102-4.287c1.573-1.079,5.49-3.855,5.029-6.226
		c-0.285-1.469-1.61,0.547-2.466,1.081C193.146,304.727,191.781,305.135,190.498,305.637z"/>
	<path style="fill:#BF8C49;" d="M268.185,310.177c1.826,0.914,3.973,0.872,5.936,1.433c0.973,0.278,1.896,0.704,2.813,1.133
		c2.519,1.18,5.02,2.399,7.501,3.656c0.381-0.559-0.172-1.27-0.682-1.714c-2.188-1.909-4.444-3.859-7.172-4.853
		c-2.262-0.824-4.808-0.974-6.809-2.311c-0.829-0.554-1.523-1.288-2.331-1.872c-0.471-0.341-1.642-1.146-2.27-0.801
		c-0.651,0.357-0.213,1.364-0.013,1.902C265.703,308.209,266.787,309.477,268.185,310.177z"/>
</g>
<g>
	<path style="fill:#FFD38A;" d="M247.894,337.662c-0.024,0.128-0.052,0.25-0.09,0.368c-1.299,4.398-11.65,2.079-11.65,2.079
		c-3.694-1.573-5.079-8.631-5.589-12.963c-0.18-1.535,0.633-2.957,1.913-3.557h0.005c0.298-0.146,0.624-0.241,0.964-0.283
		l8.617-1.087c1.729-0.217,3.321,1.011,3.633,2.806L247.894,337.662z"/>
	<path style="fill:#FFD38A;" d="M225.471,326.801v7.705c-2.225,3.983-8.693,3.6-12.68,2.924c-1.422-0.241-2.66-1.016-3.505-2.116
		c-0.529-0.685-0.902-1.498-1.068-2.381c-0.864-4.573,1.049-8.074,2.693-10.124c1.063-1.323,2.768-1.951,4.441-1.691l6.042,0.931
		c1.285,0.198,2.386,0.893,3.113,1.871C225.116,324.727,225.471,325.728,225.471,326.801z"/>
	<path style="fill:#FFD38A;" d="M206.741,333.953c-0.298,1.545-1.559,2.735-3.123,2.915c-3.557,0.406-6.789-0.576-6.789-0.576
		c-0.902-0.539-1.587-1.242-2.098-2.065v-0.005c-0.014-0.024-0.028-0.043-0.043-0.066c-2.537-4.205-0.548-11.324,0.51-14.4
		c0.359-1.039,1.304-1.781,2.4-1.833c2.598-0.128,5.645,0.94,7.19,1.564c0.307,0.123,0.591,0.302,0.827,0.52
		c0.283,0.255,0.506,0.572,0.652,0.926C208.002,325.199,207.331,330.83,206.741,333.953z"/>
	<path style="fill:#FFD38A;" d="M192.043,324.576c0.009,8.324-6.491,12.392-6.491,12.392c-2.702,1.011-4.814-0.09-6.293-1.54
		c-0.69-0.676-1.238-1.427-1.649-2.074c-0.567-0.902-0.454-2.069,0.274-2.849l8.508-9.156c0.912-0.983,2.442-1.053,3.444-0.161
		l1.167,1.039c0.156,0.142,0.298,0.298,0.42,0.463C191.826,323.229,192.039,323.895,192.043,324.576z"/>
	<path style="fill:#FFD38A;" d="M281.181,328.412h-0.005c-0.024,0.085-0.057,0.17-0.094,0.255c0,0-2.523,10.564-8.438,8.504
		c0,0-7.625-5.589-9.146-12.189c0,0,0-0.005,0-0.009c-0.038-0.146-0.066-0.298-0.094-0.449c-0.061-0.317-0.057-0.638,0.014-0.95
		c0.066-0.317,0.194-0.624,0.378-0.898c0.997-1.483,3.553-4.058,8.716-2.447C272.512,320.229,282.603,324.188,281.181,328.412z"/>
	<path style="fill:#FFD38A;" d="M263.044,335.748c0.109,4.559-6.444,4.691-10.039,4.417c-1.573-0.118-2.882-1.238-3.279-2.764
		c-0.132-0.51-0.25-1.054-0.349-1.62c-0.014-0.071-0.024-0.137-0.038-0.208c-0.619-3.619-0.661-8.121-0.624-10.648
		c0.014-1.153,0.808-2.145,1.928-2.424l5.631-1.394c0.435-0.109,0.883-0.123,1.313-0.047c0.638,0.104,1.242,0.402,1.724,0.869
		C263.909,326.361,263.044,335.748,263.044,335.748z"/>
</g>
<path style="fill:#D65768;" d="M289.911,364.798c-0.402,2.877,0.378,5.877-0.392,8.678c-0.789,2.844-3.118,5.074-5.764,6.382
	c-2.65,1.309-5.612,1.814-8.541,2.211c-11.825,1.597-23.81,1.606-35.73,1.053c-7.672-0.359-15.368-0.945-23.017-0.302
	c-11.282,0.945-22.346,4.545-33.656,4.077c-1.498-0.061-3.024-0.198-4.413-0.77c-2.863-1.181-4.743-4.068-5.504-7.072
	c-1.805-7.134,0.6-14.73,6.099-19.658c1.436-1.285,3.094-2.277,4.805-3.175h0.005c0.685-0.364,1.38-0.709,2.074-1.053
	c4.408-2.187,8.934-4.413,13.823-4.899c9.817-0.973,18.855,5.121,28.549,6.968c7.682,1.465,15.864,0.146,22.695-3.661
	c2.528-1.408,4.904-3.156,7.649-4.058c2.74-0.902,5.683-0.912,8.565-0.907c2.523,0,5.088,0.009,7.568,0.383
	c1.375,0.208,2.726,0.524,4.03,1.02c3.302,1.252,6.099,3.529,8.825,5.768c1.115,0.917,2.287,1.904,2.754,3.269
	C290.97,360.891,290.181,362.875,289.911,364.798z"/>
<path style="fill:#F69896;" d="M274.728,348.995c-1.526,2.022-1.885,4.998-2.74,7.516c-2.452,7.238-9.694,11.551-16.412,15.198
	c-2.017,1.101-4.058,2.202-6.264,2.849c-2.863,0.836-5.886,0.874-8.863,0.907c-10.932,0.113-22.034,0.213-32.579-2.679
	c-3.827-1.049-7.549-2.527-11.017-4.464c-3.156-1.762-6.108-3.907-8.674-6.463c-1.257-1.247-2.414-2.589-3.449-4.02
	c-0.265-0.364-0.576-0.983-0.926-1.616c0.685-0.364,1.38-0.709,2.074-1.053c4.408-2.187,8.934-4.413,13.823-4.899
	c9.817-0.973,18.855,5.121,28.549,6.968c7.682,1.465,15.864,0.146,22.695-3.661c2.528-1.408,4.904-3.156,7.649-4.058
	c2.74-0.902,5.683-0.912,8.565-0.907C269.682,348.613,272.247,348.622,274.728,348.995z"/>
<g>
	<path style="fill:#9B2F41;" d="M278.782,362.04c0.41-0.669,0.639-1.449,0.654-2.234c-2.758,0.941-4.62,3.486-6.099,5.996
		c-2.509,4.259-4.5,8.901-7.841,12.543c-0.538,0.586-1.116,1.153-1.486,1.857c-0.371,0.704-0.504,1.59-0.118,2.286
		c5.354-0.916,10.098-4.809,12.042-9.881c0.372-0.971,0.663-2.007,1.337-2.799c0.936-1.101,2.464-1.558,3.406-2.654
		c0.944-1.099,1.142-2.673,0.949-4.109c-1.787,1.093-3.573,2.187-5.36,3.28C277.099,364.998,277.962,363.378,278.782,362.04z"/>
	<path style="fill:#9B2F41;" d="M182.238,371.664c0.151,0.096,0.312,0.196,0.491,0.195c0.615-0.001,0.601-0.939,0.356-1.503
		c-0.797-1.833-1.707-3.618-2.723-5.339c1.451,0.865,2.903,1.73,4.354,2.594c1.073,0.639,2.157,1.287,3.059,2.15
		c1.033,0.988,1.79,2.222,2.633,3.376c1.971,2.698,4.438,4.995,6.991,7.152c0.399,0.338,0.829,0.721,0.899,1.24
		c0.118,0.88-0.82,1.495-1.624,1.872c-0.914,0.429-1.985,0.855-2.895,0.418c-0.339-0.163-0.614-0.431-0.883-0.694
		c-1.301-1.275-2.601-2.551-3.902-3.826c-0.701-0.687-1.412-1.389-1.88-2.252c-0.314-0.581-0.514-1.229-0.921-1.75
		c-0.402-0.515-0.977-0.866-1.56-1.16c-1.508-0.761-3.162-1.226-4.611-2.096c-0.989-0.594-3.011-2.234-2.57-3.546
		C179.117,369.213,180.692,370.673,182.238,371.664z"/>
</g>
<path style="fill:#2B1811;" d="M284.191,396.458c-3.229,0-7.79-0.815-11.19-4.699c-0.526-0.605-0.919-1.3-1.17-2.068
	c-0.201-0.626-0.302-1.265-0.302-1.904v-5.905c0-2.669,1.804-5.002,4.388-5.672c1.903-0.49,3.747-0.738,5.483-0.738
	c2.394,0,4.556,0.475,6.426,1.412c0.502,0.251,0.988,0.537,1.442,0.852c0.764,0.53,1.31,1.305,1.539,2.182l0.092,0.345
	c0.749,2.802,2.502,9.363,0.213,13.213c-0.824,1.387-2.077,2.291-3.724,2.689C287.318,396.18,286.048,396.458,284.191,396.458
	L284.191,396.458z"/>
<path style="fill:#FFD38A;" d="M289.892,380.157c-0.175-0.671-0.591-1.247-1.162-1.644c-0.43-0.298-0.874-0.557-1.328-0.784
	c-3.817-1.913-8.22-1.384-11.248-0.605c-2.168,0.562-3.68,2.518-3.68,4.757v5.905c0,0.553,0.09,1.096,0.255,1.611
	c0.208,0.638,0.539,1.228,0.983,1.738c5.201,5.943,13.455,4.11,13.455,4.11C293.743,393.659,290.719,383.284,289.892,380.157z"/>
<path style="fill:#2B1811;" d="M269.429,392.243c-0.294,0-0.59-0.041-0.878-0.123c-3.772-1.066-9.001-2.643-12.498-4.1
	c-1.845-0.774-2.975-2.64-2.813-4.643l0.08-0.988c0.059-0.714,0.273-1.378,0.635-1.974l0.276-0.454h0.044
	c0.841-1.063,2.141-1.705,3.51-1.705c0.132,0,0.266,0.006,0.401,0.018l8.304,0.722c2.128,0.189,3.946,1.698,4.527,3.755
	c0.361,1.297,0.889,3.217,1.365,5.018l0.121,0.465c0.255,0.973,0.052,1.975-0.553,2.76
	C271.346,391.778,270.404,392.243,269.429,392.243L269.429,392.243z"/>
<path style="fill:#FFD38A;" d="M271.468,388.013c-0.444-1.682-0.949-3.524-1.361-5.003c-0.477-1.691-1.946-2.915-3.699-3.071
	l-8.305-0.723c-1.389-0.123-2.66,0.572-3.335,1.691h-0.005c-0.279,0.458-0.454,0.987-0.501,1.559l-0.08,0.987
	c-0.128,1.583,0.77,3.08,2.235,3.694c3.515,1.465,8.849,3.061,12.392,4.063c1.672,0.472,3.222-1.049,2.783-2.726
	C271.548,388.33,271.51,388.174,271.468,388.013z"/>
<path style="fill:#2B1811;" d="M248.872,387.356c-0.068,0-0.136-0.002-0.204-0.006l-15.221-0.778v-3.808
	c0-3.116,2.107-5.772,5.124-6.458c2.231-0.508,4.287-0.766,6.11-0.766c1.864,0,3.501,0.272,4.866,0.808
	c0.65,0.258,1.227,0.642,1.721,1.141c0.744,0.756,1.229,1.72,1.403,2.788c0.182,1.151,0.239,2.266,0.171,3.318
	C252.712,385.703,250.968,387.356,248.872,387.356L248.872,387.356z"/>
<path style="fill:#FFD38A;" d="M250.596,378.154c-0.392-0.397-0.86-0.713-1.394-0.926c-3.151-1.238-7.313-0.709-10.422,0
	c-2.575,0.586-4.389,2.896-4.389,5.537v2.91l14.324,0.732c1.672,0.085,3.08-1.2,3.184-2.872c0.076-1.157-0.024-2.239-0.161-3.104
	C251.597,379.561,251.196,378.763,250.596,378.154z"/>
<path style="fill:#2B1811;" d="M219.282,388.554c-1.175,0-2.227-0.654-2.746-1.706c-0.132-0.273-0.3-0.63-0.454-1.024
	c-0.465-1.148-0.754-2.294-0.854-3.395c-0.096-1.066,0.237-2.099,0.937-2.91c0.705-0.816,1.688-1.299,2.767-1.36
	c2.508-0.136,7.159-0.497,10.148-1.389c0.293-0.087,0.595-0.131,0.898-0.131c1.277,0,2.421,0.761,2.913,1.938
	c0.122,0.288,0.24,0.608,0.352,0.949c0.471,1.449,0.652,2.939,0.541,4.433c-0.099,1.421-1.197,2.542-2.611,2.662
	c-2.953,0.259-8.291,0.83-10.833,1.747C219.998,388.491,219.642,388.554,219.282,388.554z"/>
<path style="fill:#FFD38A;" d="M232.02,378.942c-0.435-1.039-1.587-1.587-2.669-1.266c-3.023,0.902-7.573,1.276-10.365,1.427
	c-1.687,0.094-2.967,1.559-2.816,3.241c0.104,1.143,0.42,2.216,0.794,3.137c0.132,0.34,0.279,0.657,0.42,0.95
	c0.482,0.978,1.611,1.417,2.636,1.049c2.726-0.983,8.381-1.564,11.074-1.8c0.95-0.08,1.682-0.841,1.748-1.79
	c0.118-1.578-0.137-2.962-0.496-4.068C232.242,379.505,232.134,379.212,232.02,378.942z"/>
<path style="fill:#2B1811;" d="M201.543,393.111c-1.377,0-2.589-0.831-3.086-2.116c-0.396-1.006-0.759-2.084-1.049-3.114
	c-0.444-1.574-0.714-3.037-0.803-4.35c-0.158-2.268,1.552-4.267,3.812-4.454c1.131-0.092,2.242-0.139,3.303-0.139
	c3.463,0,6.264,0.489,8.325,1.454c0.299,0.139,0.571,0.33,0.806,0.566c0.075,0.075,0.145,0.155,0.214,0.237
	c0.64,0.777,2.218,2.77,3.22,4.69c0.345,0.661,0.371,1.433,0.071,2.116c-0.303,0.69-0.894,1.197-1.623,1.392
	c-3.945,1.053-9.243,2.519-12.079,3.526C202.295,393.046,201.921,393.111,201.543,393.111L201.543,393.111z"/>
<path style="fill:#FFD38A;" d="M212.343,381.805c-0.052-0.061-0.104-0.123-0.161-0.18c-0.156-0.156-0.335-0.283-0.539-0.378
	c-3.312-1.55-8.145-1.474-11.149-1.228c-1.767,0.146-3.071,1.682-2.948,3.449c0.094,1.394,0.397,2.835,0.77,4.157
	c0.316,1.124,0.68,2.164,1.02,3.028c0.463,1.195,1.791,1.805,3,1.375c3.142-1.115,9.212-2.764,12.151-3.548
	c0.935-0.25,1.408-1.299,0.959-2.159C214.493,384.493,212.981,382.58,212.343,381.805z"/>
<path style="fill:#2B1811;" d="M190.612,396.816c-0.382,0-0.65-0.028-0.744-0.039c-4.455-0.358-6.793-4.758-6.583-12.394
	c0.024-0.908,0.378-1.777,0.996-2.448c0.55-0.602,1.26-1.003,2.05-1.157l6.158-1.241c0.249-0.05,0.502-0.075,0.754-0.075
	c1.849,0,3.417,1.322,3.728,3.144l1.136,6.62l-0.012,0.126C197.422,396.277,192.198,396.816,190.612,396.816L190.612,396.816z"/>
<path style="fill:#FFD38A;" d="M196.04,382.764c-0.269-1.578-1.791-2.617-3.364-2.301l-6.165,1.242
	c-0.609,0.118-1.139,0.435-1.535,0.869c-0.449,0.487-0.728,1.129-0.746,1.833c-0.104,3.784,0.397,11.017,5.735,11.428
	c0,0,6.463,0.907,7.19-6.576l-0.095-0.548L196.04,382.764z"/>
<path style="fill:#2B1811;" d="M180.178,397.329c-4.486-0.072-7.371-2.476-7.923-6.599c-0.073-0.38-0.715-3.819-0.678-7.098
	c0.006-0.987,0.079-1.886,0.218-2.672c0.263-1.514,1.576-2.614,3.123-2.614c0.368,0,0.731,0.064,1.08,0.189l6.067,2.192
	c1.146,0.415,1.998,1.412,2.223,2.603c0.363,1.905,0.859,5.644,0.095,9.253c-0.178,0.844-0.421,1.652-0.723,2.401
	c-0.57,1.424-1.919,2.345-3.437,2.345H180.178z"/>
<path style="fill:#FFD38A;" d="M181.744,381.616l-6.066-2.192c-1.299-0.468-2.716,0.34-2.953,1.701
	c-0.137,0.775-0.199,1.635-0.203,2.513v0.005c-0.038,3.345,0.666,6.935,0.666,6.935c0.647,4.946,4.625,5.768,7.001,5.806
	c1.143,0.014,2.169-0.69,2.594-1.753c0.293-0.728,0.515-1.483,0.676-2.244c0.723-3.416,0.265-6.973-0.099-8.882
	C183.195,382.632,182.581,381.919,181.744,381.616z"/>
<path style="fill:#2B1811;" d="M173.411,383.846c-0.057-0.061-0.118-0.109-0.179-0.146c-0.265-0.156-0.501-0.161-0.709-0.061v0.005
	c-0.019,1.715,0.156,3.491,0.331,4.819v0.005c-0.402,1.696-1.054,3.368-2.107,4.72c-0.713,0.917-1.791,1.441-2.957,1.441
	c-1.365,0-2.622-0.737-3.288-1.918c-0.189-0.335-0.354-0.789-0.515-1.379h-0.019l-0.165-0.746c-0.506-2.367-0.827-5.915-0.973-7.814
	c-0.179-2.268,1.172-4.375,3.283-5.121c1.143-0.402,2.187-0.605,3.104-0.605c1.885,0,3.25,0.85,3.95,2.461l0.057,0.123l0.014,0.128
	c0.005,0.033,0.104,0.765,0.151,1.909C173.415,382.287,173.43,383.034,173.411,383.846z"/>
<path style="fill:#FFD38A;" d="M172.3,379.883c-1.058-2.438-3.756-2.088-5.872-1.342c-1.724,0.609-2.802,2.329-2.66,4.153
	c0.18,2.31,0.501,5.546,0.959,7.691h0.005c0.175,0.813,0.373,1.469,0.591,1.861c0.983,1.748,3.444,1.942,4.677,0.359
	c2.424-3.113,2.57-8.206,2.442-10.904C172.395,380.591,172.3,379.883,172.3,379.883z"/>
<g>
	<path style="fill:#996526;" d="M255.012,315.396c-0.907-0.813-1.833-1.602-2.768-2.376c-0.217-0.175-1.025-1.408-1.157-1.427
		c-0.732-0.118-0.506,1.139-0.387,1.531c0.227,0.742,0.557,1.45,0.978,2.098c0.17,0.255,0.354,0.505,0.591,0.69"/>
	<path style="fill:#996526;" d="M229.491,316.889c0.128-1.082,0.704-2.872,1.337-2.934c0.189,0.888,0.137,1.984,0.128,2.967"/>
	<path style="fill:#996526;" d="M210.273,314.607c0.076-0.18,0.113-0.387,0.128-0.581c0.024-0.449-0.047-0.916,0.094-1.346
		c0.057-0.161,0.094-0.279,0-0.406c-0.18,0.066-0.255,0.298-0.368,0.463c-0.18,0.26-0.359,0.524-0.553,0.775
		c-0.279,0.35-0.591,0.69-0.85,1.058"/>
</g>
<path style="fill:#22130C;" d="M235.018,358.661c-1.394-0.151-2.83-0.449-4.124-1.03l-6.491-1.332
	c0.661,1.252,1.833,2.225,3.128,2.82c1.554,0.723,3.293,0.968,5.003,1.096c3.411,0.255,6.86,0.08,10.228-0.515
	C240.281,358.883,237.612,358.954,235.018,358.661z"/>
<path style="fill:#C68A3C;" d="M281.176,328.412c-0.024,0.085-0.057,0.17-0.094,0.255c0,0-2.523,10.564-8.438,8.504
	c0,0-7.625-5.589-9.146-12.189c0,0,0-0.005,0-0.009c-0.047-0.822-0.08-1.398-0.08-1.398c0.94,0.964,2.013,2.612,2.329,2.948
	c1.446,1.545,3.085,2.91,4.871,4.044c0.827,0.524,1.724,1.011,2.702,1.049c1.011,0.042,1.97-0.402,2.886-0.836
	C277.864,329.99,279.518,329.201,281.176,328.412z"/>
<g>
	<polygon style="fill:#CE855C;" points="249.339,335.574 249.386,335.555 249.344,335.578 	"/>
	<path style="fill:#CE855C;" d="M194.708,334.156h-0.019C194.684,334.128,194.698,334.133,194.708,334.156z"/>
</g>
<g>
	<path style="fill:#C68A3C;" d="M206.741,333.953c-0.298,1.545-1.559,2.735-3.123,2.915c-3.557,0.406-6.789-0.576-6.789-0.576
		c-0.902-0.539-1.587-1.242-2.098-2.065v-0.005c0-0.024-0.009-0.052-0.024-0.066c0.576-0.061,1.158-0.099,1.739-0.104
		c0.439-0.009,0.945-0.038,1.191-0.397c0.161-0.241,0.142-0.557,0.118-0.846c-0.057-0.699-0.113-1.398-0.17-2.098
		c-0.019-0.241-0.005-0.543,0.208-0.652c0.274-0.142,0.562,0.165,0.704,0.439c0.378,0.713,0.652,1.483,0.808,2.277
		c0.109,0.572,0.194,1.219,0.643,1.597c0.605,0.501,1.512,0.246,2.225-0.076c0.694-0.312,1.365-0.671,2.013-1.068
		c0.52-0.316,1.044-0.685,1.328-1.224c0.34-0.652,0.274-1.431,0.208-2.164c-0.123-1.356-0.198-2.716-0.236-4.072
		c-0.028-1.195-0.028-2.395,0.005-3.59c0.014-0.505-0.165-1.644,0.128-2.173c0.283,0.255,0.506,0.572,0.652,0.926
		C208.002,325.199,207.331,330.83,206.741,333.953z"/>
	<path style="fill:#C68A3C;" d="M192.043,324.576c0.009,8.324-6.491,12.392-6.491,12.392c-2.702,1.011-4.814-0.09-6.293-1.54
		c1.625-0.189,3.175-1.11,4.545-2.069c1.356-0.954,2.674-1.994,3.694-3.298c1.224-1.564,1.951-3.42,2.783-5.197
		c0.368-0.784,0.694-1.55,1.143-2.173C191.826,323.229,192.039,323.895,192.043,324.576z"/>
	<path style="fill:#C68A3C;" d="M259.312,321.93c-0.482-0.468-1.086-0.765-1.724-0.869c0.08,0.397,0.26,0.808,0.406,1.143
		c0.539,1.233,1.03,2.49,1.483,3.756c0.879,2.485,1.597,5.027,2.14,7.601c0.052,0.246,0.104,0.501,0.057,0.746
		c-0.085,0.444-0.458,0.77-0.817,1.035c-1.698,1.246-3.827,2.019-5.899,1.954c-0.068-0.296-0.167-0.589-0.248-0.886
		c-0.354-1.311-0.236-2.703-0.25-4.065c-0.009-1.362-0.189-2.809-1.011-3.854c0.316,0.402-0.019,2.653-0.028,3.211
		c-0.014,1.1-0.028,2.206-0.052,3.311c-0.008,0.36-0.154,1.194-0.186,2.007c-0.202-0.059-0.403-0.125-0.601-0.204
		c-0.912-0.368-1.739-0.931-2.669-1.233c-0.17-0.052-0.359-0.099-0.524-0.028l-0.009,0.227c0.099,0.567,0.217,1.11,0.349,1.62
		c0.397,1.526,1.706,2.646,3.279,2.764c3.595,0.274,10.148,0.142,10.039-4.417C263.044,335.748,263.909,326.361,259.312,321.93z"/>
	<path style="fill:#C68A3C;" d="M246.75,338.12c-0.661,0.128-1.295,0.383-1.951,0.524c-0.723,0.156-1.469,0.175-2.206,0.184
		c-1.106,0.018-2.224,0.023-3.309-0.201c0.033-0.162,0.048-0.331,0.057-0.5c0.052-1.194-0.095-2.403-0.439-3.548
		c-0.416-1.396-1.115-2.688-1.535-4.084c0.104,1.745,0.17,3.489,0.203,5.234c0.009,0.629,0.038,1.288-0.076,1.912
		c-0.013,0.082-0.042,0.174-0.076,0.271c-0.431-0.261-0.82-0.583-1.132-0.978c-0.255-0.321-0.454-0.68-0.647-1.035
		c-0.68-1.228-1.356-2.457-2.036-3.68c-0.335-0.609-0.671-1.224-0.869-1.89c-0.274-0.912-0.269-1.876-0.264-2.83
		c0.009-1.261-0.161-2.66,0.014-3.912h-0.005c-1.28,0.6-2.093,2.022-1.913,3.557c0.51,4.332,1.894,11.39,5.589,12.963
		c0,0,10.351,2.32,11.65-2.079C247.45,338.021,247.1,338.054,246.75,338.12z"/>
	<path style="fill:#C68A3C;" d="M224.507,323.919c-0.033,0.557,0.028,1.214,0.009,1.559c-0.052,0.893-0.104,1.781-0.156,2.669
		c-0.043,0.671-0.08,1.351-0.302,1.984c-0.203,0.591-0.562,1.124-0.978,1.587c-1.535,1.696-3.86,2.48-6.137,2.702
		c-1.008,0.101-2.021,0.103-3.036,0.073c-0.008-0.415-0.015-0.831-0.026-1.246c-0.005-0.323-0.009-0.651-0.08-0.964
		c-0.09-0.425-0.293-0.81-0.496-1.194c-0.17-0.318-0.335-0.641-0.506-0.958c-0.17,0.313-0.142,0.707-0.198,1.066
		c-0.061,0.42-0.236,0.805-0.331,1.22c-0.099,0.415-0.109,0.851-0.109,1.276c0,0.161-0.025,0.442-0.033,0.729
		c-0.68-0.032-1.361-0.062-2.041-0.072c-0.175-0.005-0.373,0-0.501,0.123c-0.09,0.085-0.128,0.213-0.161,0.326
		c-0.047,0.17-0.094,0.34-0.142,0.515c0.846,1.101,2.083,1.876,3.506,2.116c3.987,0.676,10.455,1.058,12.68-2.924v-7.705
		C225.471,325.728,225.116,324.727,224.507,323.919z"/>
	<path style="fill:#C68A3C;" d="M287.167,395.246c0,0-8.253,1.833-13.455-4.11c-0.444-0.51-0.775-1.101-0.983-1.738
		c0.019-0.411,0.052-0.822,0.099-1.233c0.061-0.524,0.161-1.077,0.52-1.46c0.614-0.657,1.71-0.534,2.49-0.09
		c1.058,0.605,1.781,1.654,2.428,2.688c0.26,0.416,0.524,0.85,0.931,1.129c0.406,0.279,0.992,0.359,1.375,0.047
		c0.482-0.397,0.397-1.143,0.265-1.753c-0.369-1.738-0.742-3.472-1.115-5.206c1.143,1.101,1.961,2.527,2.334,4.068
		c0.179,0.746,0.298,1.583,0.879,2.079c0.477,0.406,1.172,0.472,1.781,0.326c0.609-0.142,1.153-0.472,1.691-0.798
		c0.704-0.43,1.46-0.921,1.72-1.705c0.161-0.487,0.104-1.016,0.043-1.526c-0.288-2.494-0.642-4.994-0.874-7.493
		c-0.033-0.34,0.009-0.576,0.109-0.742c0.454,0.227,0.898,0.487,1.328,0.784c0.572,0.397,0.987,0.973,1.162,1.644
		C290.719,383.284,293.743,393.659,287.167,395.246z"/>
	<path style="fill:#C68A3C;" d="M268.808,391.211c-3.543-1.002-8.877-2.598-12.392-4.063c-1.465-0.614-2.362-2.112-2.235-3.694
		l0.08-0.987c0.047-0.572,0.222-1.101,0.501-1.559h0.005c0.094,0.241,0.184,0.477,0.283,0.647c0.392,0.661,0.789,1.323,1.186,1.984
		c0.425,0.718,0.86,1.446,1.45,2.041c1.29,1.304,3.151,1.828,4.927,2.301c0.08-0.987,0.284-1.961,0.6-2.901
		c0.831,0.865,1.285,2.121,2.334,2.698c1.427,0.779,3.165-0.057,4.79-0.061c0.364,0,0.751,0.052,1.025,0.288
		c0.038,0.033,0.071,0.066,0.104,0.109c0.043,0.161,0.08,0.317,0.123,0.472C272.03,390.163,270.48,391.684,268.808,391.211z"/>
	<path style="fill:#C68A3C;" d="M251.9,383.534c-0.104,1.672-1.512,2.957-3.184,2.872l-14.324-0.732v-2.49
		c0.005,0,0.005-0.005,0.005-0.005c0.364-0.104,0.765-0.104,1.148-0.099c1.035,0.014,2.069,0.028,3.104,0.047
		c2.409,0.033,4.871,0.061,7.153-0.694c2.272-0.756,3.798-2.206,4.795-4.28c0.6,0.609,1.001,1.408,1.143,2.277
		C251.876,381.295,251.976,382.377,251.9,383.534z"/>
	<path style="fill:#C68A3C;" d="M232.842,383.889c-0.066,0.95-0.798,1.71-1.748,1.79c-2.693,0.236-8.348,0.817-11.074,1.8
		c-1.025,0.368-2.154-0.071-2.636-1.049c-0.142-0.293-0.288-0.609-0.42-0.95c0.009-0.028,0.024-0.052,0.038-0.08
		c0.099-0.175,0.232-0.34,0.416-0.43c0.161-0.085,0.345-0.104,0.524-0.123c1.866-0.198,3.737-0.397,5.612-0.472
		c0.85-0.038,1.715-0.047,2.551-0.222c1.715-0.359,3.217-1.384,4.512-2.565c0.378-0.345,0.742-0.704,1.058-1.101
		c0.25-0.312,0.373-0.779,0.671-0.666C232.705,380.927,232.96,382.311,232.842,383.889z"/>
	<path style="fill:#C68A3C;" d="M214.488,388.481c-2.938,0.784-9.009,2.433-12.151,3.548c-1.209,0.43-2.537-0.18-3-1.375
		c-0.34-0.865-0.704-1.904-1.02-3.028c0,0,0-0.009,0.005-0.014c0.071-0.123,0.151-0.246,0.269-0.326
		c0.236-0.161,0.553-0.123,0.841-0.08c2.372,0.354,4.786,0.449,7.181,0.269c1.02-0.071,2.083-0.213,2.943-0.77
		c0.992-0.643,1.578-1.748,2.008-2.849c0.109-0.279,0.359-1.465,0.619-2.23c0.057,0.057,0.109,0.118,0.161,0.18
		c0.638,0.775,2.15,2.688,3.104,4.516C215.896,387.182,215.424,388.23,214.488,388.481z"/>
	<path style="fill:#C68A3C;" d="M197.155,389.26c-0.728,7.483-7.19,6.576-7.19,6.576c-5.338-0.411-5.839-7.644-5.735-11.428
		c0.019-0.704,0.298-1.346,0.746-1.833c0.109,0.737,0.156,1.45,0.189,1.583c0.43,1.772,1.011,3.505,1.729,5.183
		c0.307,0.723,0.666,1.46,1.29,1.937c0.392,0.302,0.865,0.477,1.337,0.628c0.997,0.321,2.282,0.468,2.915-0.369
		c0.246-0.331,0.331-0.751,0.411-1.157c0.17-0.883,0.34-1.762,0.506-2.646c0.666,1.058,1.058,2.291,1.124,3.538
		c0.77-1.058,1.417-2.211,1.928-3.42c0.241,0.274,0.458,0.557,0.657,0.86L197.155,389.26z"/>
</g>
<path style="fill:#2B1811;" d="M173.411,383.846c-0.038,1.403-0.184,3.023-0.557,4.616c-0.175-1.328-0.35-3.104-0.331-4.819v-0.005
	c0.208-0.099,0.444-0.094,0.709,0.061C173.292,383.738,173.354,383.785,173.411,383.846z"/>
<g>
	<path style="fill:#C68A3C;" d="M183.459,392.388c-0.161,0.761-0.383,1.517-0.676,2.244c-0.425,1.063-1.45,1.767-2.594,1.753
		c-2.376-0.038-6.354-0.86-7.001-5.806c0,0-0.165-0.85-0.336-2.112v-0.005c0.373-1.592,0.52-3.213,0.557-4.616
		c0.406,0.42,0.699,1.346,0.917,1.786c0.364,0.728,0.713,1.465,1.049,2.206c0.175,0.392,0.345,0.789,0.416,1.214
		c0.123,0.77-0.094,1.611,0.241,2.315c0.874-0.732,1.167-2.074,0.676-3.104c0.671,1.469,1.337,2.939,2.003,4.408
		c0.151,0.326,0.335,0.685,0.68,0.794c0.421,0.128,0.85-0.208,1.077-0.591c0.222-0.383,0.335-0.831,0.614-1.172
		c0.109-0.132,0.246-0.246,0.416-0.279c0.118-0.024,0.236-0.005,0.354,0.024C182.477,391.589,183.029,391.93,183.459,392.388z"/>
	<path style="fill:#C68A3C;" d="M170,392.605c-1.233,1.583-3.694,1.389-4.677-0.359c-0.217-0.392-0.416-1.049-0.591-1.861
		c0.638,0.411,1.431,1.006,1.772,0.567c0.08-0.104,0.09-0.236,0.094-0.368c0.085-1.961-0.061-3.964,0.468-5.853
		c0.624,1.71,1.054,3.491,1.285,5.291c0.713-0.194,1.101-0.94,1.413-1.611c0.477-1.039,0.954-2.079,1.304-3.165
		c0.567-1.776,1.176-4.19,1.375-3.543C172.57,384.399,172.423,389.492,170,392.605z"/>
</g>
<path style="fill:#BF8C49;" d="M310.546,381.3c-0.657,3.978-1.857,7.847-3.222,11.636c-0.902,2.49-1.899,4.998-3.6,7.025
	c-2.49,2.981-5.995,4.446-9.836,4.904c1.535-3.52,5.268-5.943,7.965-8.886c3.212-3.515,5.102-8.216,5.22-12.973
	c0.047-1.899-0.179-3.813,0.095-5.693c0.293-1.998,1.143-3.893,1.342-5.905c0.151-1.493-0.061-2.995-0.345-4.464
	c-2.301-11.962-9.141-22.629-11.891-34.497c1.512-0.18,8.735,10.804,10.384,16.025C310.002,359.082,312.364,370.325,310.546,381.3z"
	/>
<path style="fill:#FBCBA7;" d="M204.18,355.119c2.574-0.276,5.16,0.411,7.567,1.365c2.406,0.954,4.702,2.179,7.137,3.056
	c5.229,1.883,10.893,2.094,16.45,2.16c2.859,0.034,5.718,0.035,8.577,0.026c3.708-0.011,7.537-0.063,10.927-1.566
	c3.341-1.481,6.009-4.272,9.446-5.515c0.385-0.139,0.794-0.259,1.198-0.195c0.781,0.123,1.307,0.905,1.459,1.681
	c0.272,1.39-0.363,2.833-1.327,3.871c-0.964,1.037-2.225,1.742-3.466,2.423c-5.512,3.023-11.223,5.97-17.44,6.903
	c-2.67,0.401-5.382,0.42-8.082,0.429c-3.882,0.013-7.803,0.002-11.585-0.874c-1.669-0.387-3.294-0.939-4.915-1.495
	c-2.893-0.994-5.781-2.004-8.663-3.031c-2.163-0.771-4.33-1.554-6.373-2.605c-1.218-0.626-6.126-2.164-6.317-3.371
	C198.456,356.384,202.864,355.26,204.18,355.119z"/>
<path style="fill:#BF8C49;" d="M243.41,405.087c-9.524,1.45-19.36,0.883-28.639-1.724c-3.109-0.879-6.246-1.984-9.467-1.795
	c-5.409,0.317-9.845,4.148-14.546,6.85c-8.178,4.691-19.374,5.797-26.499-0.378c-2.32-2.013-4.035-4.63-5.48-7.341
	c-0.803-1.512-1.535-3.071-2.183-4.658c-2.211-5.405-3.477-11.187-3.543-17.017c-0.052-4.649,0.647-9.269,1.465-13.847
	c0.501-2.801,1.044-5.603,1.649-8.39v-0.005c0.038-0.18,0.076-0.359,0.118-0.539c1.049-2.957,2.244-5.853,3.827-8.546
	c0.421-0.713,1.729-2.471,2.362-1.068c0.321,0.709-1.172,3.883-1.403,4.658c-0.893,3.028-1.706,6.085-2.334,9.184
	c-0.458,2.253-0.822,4.526-1.186,6.798c-0.487,3.033-0.973,6.066-1.455,9.104c-0.208,1.299-0.416,2.603-0.411,3.921
	c0.019,2.395,1.344,4.265,1.609,6.646c0.184,1.644-0.992,3.665,0.052,4.951c0.117,0.145,0.377,0.087,0.586,0.184
	c1.827,0.855,3.21,6.473,4.264,8.221c1.507,2.49,3.146,5.107,5.759,6.392c1.261,0.614,2.66,0.874,4.049,1.068
	c3.595,0.51,7.29,0.628,10.838-0.161c2.891-0.647,5.617-1.876,8.319-3.085c6.245-2.787,12.808-5.546,19.634-5.197
	c6.09,0.307,11.853,3.085,17.943,3.397c2.693,0.142,5.409-0.203,8.083,0.156C239.144,403.183,241.327,404.005,243.41,405.087z"/>
<path style="fill:#9E6F36;" d="M219.174,395.373c2.95-0.616,5.635-1.692,8.664-2.141c2.162-0.321,4.426-0.311,6.668-0.263
	c4.784,0.102,9.571,0.37,14.337,0.801c1.126,0.102,2.284,0.22,3.282,0.601c0.999,0.381,1.811,1.091,1.734,1.831
	c-0.089,0.855-1.283,1.444-2.484,1.744c-6.056,1.516-13.021-1.57-19.52-1.056c-3.085,0.244-5.848,1.289-8.899,1.646
	c-2.998,0.351-7.661,0.037-10.139-1.432C209.292,395.014,217.031,395.821,219.174,395.373z"/>
<path style="fill:#BF8C49;" d="M215.43,212.606c1.511-1.539,3.372-2.685,5.242-3.76c4.326-2.488,9.13-4.752,14.095-4.245
	c4.319,0.44,8.124,2.914,11.74,5.317c0.858,0.57,1.789,1.244,1.991,2.254c-1.225,0.427-2.533-0.22-3.704-0.775
	c-4.155-1.971-8.758-2.988-13.356-2.953c-1.354,0.011-2.723,0.114-4.008,0.541c-1.39,0.462-2.628,1.283-3.848,2.095
	c-1.886,1.256-3.773,2.512-5.659,3.769c-1.152,0.767-3.92,3.343-5.211,3.093c-0.005-1.028,0.437-2.062,0.929-2.961
	C213.91,214.489,215.43,213.044,215.43,212.606z"/>
<path style="fill:#C49155;" d="M233.234,243.158c3.311-0.503,6.49-2.304,9.808-1.851c0.223,0.524,0.349,1.09,0.37,1.659
	c3.008,0.728,5.602,2.74,7.454,5.219c1.852,2.479,3.019,5.407,3.867,8.383c0.54,1.896,1.027,3.945,2.473,5.286
	c1.471,1.364,3.827,1.667,5.595,0.719c2.164-1.16,3.125-3.741,3.57-6.156c0.445-2.415,0.584-4.972,1.822-7.093
	c0.85-0.283,1.625,0.567,2.091,1.333c1.853,3.047,3.157,6.475,3.428,10.031c0.27,3.556-0.545,7.244-2.595,10.162
	c-1.983,2.822-5.093,4.828-8.481,5.47c-2.039,0.386-4.134,0.295-6.207,0.203c-0.969-0.043-1.955-0.09-2.87-0.413
	c-1.115-0.394-2.046-1.171-2.951-1.933c-3.06-2.576-6.325-5.504-6.931-9.457c1.115,0.079,2.205,0.488,3.098,1.162
	c0.093-2.373,0.179-4.806-0.559-7.064c-0.738-2.258-2.483-4.341-4.816-4.788c-1.82-0.349-4.194,0.095-5.11-1.515
	c-0.272-0.478-0.331-1.046-0.532-1.558c-0.715-1.821-2.902-2.449-4.737-3.127c-3.049-1.126-5.814-3.01-7.978-5.436
	c-0.54-0.605-1.899-2.313-0.382-2.409c0.598-0.038,2.512,1.732,3.173,2.044C228.12,243.109,230.726,243.539,233.234,243.158z"/>
<path style="fill:#4F2E07;" d="M239.526,252.719c0.364,0.309,0.784,0.438,1.237,0.472c2.3,0.173,4.292,1.644,4.915,3.864
	l0.285,1.016c1.147,4.092,2.319,8.242,4.531,11.871c1.628,2.672,4.322,5.22,7.428,4.849c-2.966-3.261-4.971-7.387-5.703-11.734
	c-0.316-1.875-0.4-3.785-0.771-5.649c-0.407-2.043-1.153-4.001-1.896-5.947c-0.665-1.742-1.414-3.593-2.958-4.638
	c-1.058-0.715-2.367-0.957-3.642-1.022c-1.843-0.093-3.893,0.42-4.169,2.519C238.633,249.448,238.607,251.94,239.526,252.719z"/>
<path style="fill:#C49155;" d="M231.31,258.293c-1.308,0.291-2.662,0.378-3.997,0.255c1.058-1.491,2.115-2.982,3.173-4.473
	c0.331-0.466,0.675-0.971,0.687-1.543c0.03-1.383-1.711-1.999-3.086-2.149c-1.741-0.189-3.492-0.284-5.244-0.282
	c-1.328,0.001-2.708,0.071-3.88,0.695c-1.451,0.773-2.35,2.263-3.178,3.683c-1.651,2.833-3.303,5.666-4.955,8.5
	c-0.277,0.476-0.564,0.963-0.994,1.307c-0.635,0.508-1.505,0.634-2.314,0.549c-3.174-0.333-5.267-3.358-6.918-6.089
	c-1.21-2.002-2.421-4.004-3.631-6.006c-1.522,1.057-2.773,2.428-2.83,4.212c-0.072,2.223,1.754,3.98,2.773,5.957
	c1.498,2.904,1.321,6.561,3.277,9.178c1.067,1.428,2.646,2.368,4.183,3.27c1.65,0.969,3.351,1.957,5.242,2.248
	c3.193,0.492,6.307-1.062,9.165-2.57c1.132-0.597,2.271-1.198,3.291-1.973c1.8-1.367,3.162-3.219,4.496-5.043
	c0.93-1.271,1.86-2.542,2.79-3.813C230.638,262.464,231.982,260.347,231.31,258.293z"/>
<g>
	<path style="fill:#4F2E07;" d="M224.268,257.662c1.17-0.716,2.496-1.204,3.511-2.126c1.015-0.923,1.637-2.505,0.929-3.679
		c-0.539-0.894-1.646-1.253-2.673-1.44c-1.623-0.295-3.343-0.328-4.878,0.277c-1.535,0.606-2.849,1.942-3.094,3.574
		c-0.087,0.578-0.04,1.169-0.111,1.749c-0.083,0.685-0.327,1.338-0.578,1.98c-1.063,2.715-2.299,5.363-3.699,7.921
		c-0.309,0.566-0.639,1.141-1.14,1.547c-0.538,0.435-1.23,0.639-1.789,1.047s-0.976,1.185-0.63,1.785
		c1.625,0.542,3.526,1.052,4.95,0.099c0.757-0.507,1.219-1.339,1.653-2.14C218.717,264.566,220.527,259.951,224.268,257.662z"/>
	<path style="fill:#4F2E07;" d="M199.64,252.825c3.629-3.385,5.941-7.913,8.179-12.342c1.654-3.271,3.307-6.543,4.961-9.814
		c1.055-2.087,2.118-4.187,3.537-6.045c1.714-2.244,3.909-4.082,6.228-5.692c3.468-2.408,7.453-4.401,11.675-4.361
		c6.116,0.058,11.47,4.407,14.803,9.536c3.333,5.129,5.13,11.076,7.631,16.658c1.074,2.396,2.367,4.832,4.533,6.314
		c1.207,0.826,2.616,1.304,3.89,2.024c3.663,2.07,5.988,6.148,6.34,10.341s-1.141,8.428-3.693,11.773
		c-1.549,2.029-3.554,3.924-3.965,6.444c5.09-0.274,8.67-5.122,10.641-9.822c2.422-5.774,3.393-12.98-0.517-17.87
		c-3.486-4.36-9.968-5.711-12.901-10.461c-1.252-2.028-1.688-4.434-2.315-6.733c-1.541-5.654-4.444-11.035-8.845-14.904
		c-4.695-4.127-11.012-6.356-17.258-6.087c-6.245,0.269-12.348,3.032-16.671,7.547c-2.811,2.937-4.846,6.519-6.735,10.119
		c-2.756,5.253-5.268,10.634-7.524,16.121c-0.323,0.785-0.65,1.587-1.206,2.228c-1.479,1.705-4.099,1.805-5.964,3.078
		c-2.881,1.966-3.198,6.185-2.17,9.517c1.028,3.333,3.065,6.299,3.964,9.669c0.431,1.618,0.592,3.303,1.093,4.901
		c0.747,2.382,2.213,4.461,3.657,6.497c0.807,1.138,1.642,2.303,2.813,3.061c1.408,0.913,3.165,1.139,4.841,1.034
		c3.767-0.234,7.406-2.084,9.815-4.989c1.406-1.696,2.386-3.696,3.353-5.676c1.883-3.857,3.766-7.714,5.649-11.57
		c-2.448,0.002-4.466,1.921-5.842,3.947c-1.375,2.025-2.443,4.334-4.334,5.888c-3.251,2.672-7.933,2.393-12.12,1.974
		c-0.784-0.078-1.621-0.179-2.219-0.692c-0.396-0.34-0.637-0.823-0.867-1.292c-1.621-3.302-3.242-6.603-4.863-9.905
		c-1.213-2.471-2.432-5.407-1.177-7.857"/>
</g>
<path style="fill:#895828;" d="M221.325,139.188c2.908-1.571,6.226-2.169,9.48-2.744c1.963-0.347,3.98-0.695,5.937-0.318
	c2.411,0.464,4.479,1.977,6.34,3.577c2.796,2.404,5.337,5.105,7.569,8.041c1.113,1.464,3.407,1.024,3.904-0.747
	c1.748-6.227,3.815-12.364,6.19-18.379c0.561-1.421-0.459-2.967-1.985-3.023l-48.666-1.797c-1.675-0.062-2.814,1.684-2.078,3.189
	c2.372,4.85,4.54,9.815,5.519,15.106c0.003,0.014,0.005,0.027,0.008,0.041c0.355,1.936,2.859,2.5,3.995,0.892
	C218.542,141.606,219.546,140.149,221.325,139.188z"/>
<path style="fill:#513A33;" d="M122.641,172.219c0.311,2.446,1.403,4.713,2.48,6.931c3.56,7.331,7.12,14.663,10.679,21.994
	c0.978,2.013,1.984,4.067,3.568,5.648c1.593,1.591,3.664,2.596,5.693,3.571c3.363,1.618,6.726,3.235,10.09,4.853
	c1.809,0.87,3.633,1.746,5.579,2.243c2.649,0.677,5.424,0.627,8.155,0.5c8.49-0.397,16.947-1.509,25.251-3.322
	c-1.006,0.99-2.419,1.425-3.776,1.811c-11.225,3.195-22.992,5.409-34.547,3.77c-11.555-1.639-22.946-7.634-28.817-17.721
	c-1.429-2.454-2.509-5.097-3.433-7.782c-3.239-9.408-4.593-19.457-3.98-29.386c0.114-1.843,0.51-10.69,3.432-6.61
	C125.366,162.003,122.167,168.494,122.641,172.219z"/>
<g>
	<path style="fill:#634E49;" d="M350.408,157.568c-5.834,1.967-12.179,2.753-18.404,2.278c0.042,0.003-0.204-3.421,0.112-3.779
		c1.028-1.166,3.233-0.596,4.711-0.605C341.324,155.437,346.131,156.429,350.408,157.568z"/>
	<path style="fill:#634E49;" d="M349.037,171.455c-6.148-0.324-12.336-1.934-17.947-4.672c0.038,0.019,1.072-3.255,1.498-3.471
		c1.385-0.704,3.225,0.639,4.602,1.176C341.38,166.123,345.482,168.819,349.037,171.455z"/>
	<path style="fill:#634E49;" d="M349.017,179.532c-6.05,1.138-12.444,1.034-18.543-0.3c0.041,0.009,0.273-3.416,0.636-3.727
		c1.18-1.012,3.284-0.141,4.749,0.056C340.318,176.159,344.94,177.81,349.017,179.532z"/>
	<path style="fill:#634E49;" d="M120.941,157.029c5.834,1.967,12.179,2.753,18.404,2.278c-0.042,0.003,0.204-3.421-0.112-3.779
		c-1.028-1.166-3.233-0.596-4.711-0.605C130.024,154.898,125.218,155.89,120.941,157.029z"/>
	<path style="fill:#634E49;" d="M122.312,170.916c6.148-0.324,12.336-1.934,17.947-4.672c-0.038,0.019-1.072-3.255-1.498-3.471
		c-1.385-0.704-3.225,0.639-4.602,1.176C129.968,165.584,125.867,168.28,122.312,170.916z"/>
	<path style="fill:#634E49;" d="M122.332,178.993c6.05,1.138,12.443,1.034,18.543-0.3c-0.041,0.009-0.273-3.416-0.636-3.727
		c-1.18-1.012-3.284-0.141-4.749,0.056C131.031,175.62,126.409,177.271,122.332,178.993z"/>
</g>
<path style="fill:#513A33;" d="M135.896,135.656c-1.34,1.233-2.401,2.734-3.397,4.259c-3.212,4.921-5.84,10.222-7.812,15.757
	c2.146-1.559,3.824-3.662,5.475-5.738c4.014-5.049,8.027-10.097,12.041-15.146c1.097-1.381,2.543-2.307,2.582-3.918
	C142.218,130.724,137.856,133.852,135.896,135.656z"/>
<path style="fill:#BF8C49;" d="M229.173,123.858c-0.475,2.486-1.268,4.966-2.066,7.335c-0.546,1.617-1.132,3.304-2.364,4.481
	c-2.465,2.354-6.441,1.814-9.725,0.884c-5.486-1.556-10.791-3.749-15.772-6.527c-5.461-3.046-10.862-6.886-16.586-9.22
	c-3.466-1.42-7.053-2.283-10.841-2.086c-6.497,0.338-12.372,3.834-17.722,7.532c-5.355,3.698-10.655,7.77-16.909,9.553
	c-6.254,1.778-13.878,0.657-17.768-4.552c-2.986-4.001-3.107-9.215-2.541-14.302c0.152-1.344,0.349-2.683,0.556-3.986
	c0.237-1.521,0.5-3.097,1.192-4.451c0.162-0.318,0.349-0.621,0.561-0.914c0.303-0.414,0.687-0.783,1.122-1.081
	c1.167-2.632,2.455-5.204,4.168-7.507c2.359-3.188,5.436-5.759,8.487-8.295c2.576-2.147,5.158-4.299,7.942-6.173
	c4.148-2.799,8.725-4.971,13.549-6.3c5.198-1.43,10.665-1.874,16.025-1.298c11.2,1.197,21.536,6.81,29.847,14.509
	c1.607,1.48,3.132,3.041,4.577,4.663c1.657,1.859,3.248,3.829,5.31,5.214c0.116,0.076,0.227,0.152,0.349,0.227
	c1.743,1.096,3.723,1.773,5.653,2.521c4.941,1.925,10.013,4.734,12.211,9.558C229.886,116.846,229.845,120.357,229.173,123.858z"/>
<g>
	<path style="fill:#D8A76C;" d="M137.457,99.161c0.296,1.128,0.816,2.184,1.38,3.205c2.585,4.684,6.167,8.814,10.438,12.035
		c-2.233,0.878-4.677-0.462-6.653-1.824c-1.063-0.733-2.116-1.491-3.035-2.398c-3.241-3.199-4.483-7.88-5.216-12.374
		c-0.233-1.425-0.423-2.916,0.024-4.288c0.557-1.71,2.561-3.27,3.268-1.054C138.231,94.242,136.904,97.056,137.457,99.161z"/>
	<path style="fill:#D8A76C;" d="M130.852,112.144c1.248,2.523,2.498,5.051,3.987,7.44c1.928,3.093,4.249,5.94,6.892,8.45
		c-2.875-0.759-5.746-1.671-8.285-3.219c-4.073-2.483-7.116-6.601-8.294-11.224c-1.095-4.298-0.786-10.373,2.096-13.95
		c0.801,1.531,0.373,3.858,0.798,5.592C128.638,107.652,129.753,109.922,130.852,112.144z"/>
	<path style="fill:#D8A76C;" d="M181.566,91.151c1.833,6.139,1.719,12.667,1.589,19.072c-0.053,2.621-0.134,5.355-1.372,7.666
		c1.775-0.297,3.066-1.948,3.545-3.683c0.478-1.735,0.318-3.572,0.254-5.37c-0.176-4.915,0.389-9.867-0.301-14.736
		c-0.411-2.897-3.097-12.295-7.096-11.817C178.785,85.283,180.677,88.173,181.566,91.151z"/>
</g>
<path style="fill:#4F2E07;" d="M227.107,131.194c-0.546,1.617-1.132,3.304-2.364,4.481c-2.465,2.354-6.441,1.814-9.725,0.884
	c-5.486-1.556-10.791-3.749-15.772-6.527c-5.461-3.046-10.862-6.886-16.586-9.22c-0.071-0.182-0.141-0.364-0.202-0.546
	c3.86-0.338,7.593,1.404,10.902,3.425c3.309,2.016,6.487,4.38,10.19,5.522c2.647,0.818,5.476,0.98,8.058,1.98
	c1.46,0.566,2.875,1.404,4.441,1.44c0.904,0.025,1.798-0.232,2.622-0.606c4.163-1.9,6.401-7.204,4.86-11.508
	c-0.278-0.778-0.667-1.531-0.773-2.344c-0.136-0.995,0.152-2.011-0.005-3.001c-0.126-0.798-0.53-1.526-0.924-2.233
	c-1.309-2.324-2.784-4.804-5.234-5.865c-1.192-0.515-2.516-0.642-3.794-0.884c-1.576-0.293-3.137-0.758-4.597-1.425
	c-1.98-0.904-1.45-1.561,0.354-2.339c0.667-0.288,1.339-0.576,2.006-0.864c1.743,1.096,3.723,1.773,5.653,2.521
	c4.941,1.925,10.013,4.734,12.211,9.558C230.921,119.12,229.027,125.49,227.107,131.194z"/>
<path style="fill:#704618;" d="M229.173,123.858c-0.475,2.486-1.268,4.966-2.066,7.335c-0.546,1.617-1.132,3.304-2.364,4.481
	c-2.465,2.354-6.441,1.814-9.725,0.884c-5.486-1.556-10.791-3.749-15.772-6.527c-5.461-3.046-10.862-6.886-16.586-9.22
	c-3.466-1.42-7.053-2.283-10.841-2.086c-6.497,0.338-12.372,3.834-17.722,7.532c-5.355,3.698-10.655,7.77-16.909,9.553
	c-6.254,1.778-13.878,0.657-17.768-4.552c-2.986-4.001-3.107-9.215-2.541-14.302c0.152-1.344,0.349-2.683,0.556-3.986
	c0.237-1.521,0.5-3.097,1.192-4.451c0.045,0.177,0.081,0.349,0.136,0.525c0.495,1.601,1.829,1.627,2.238,3.4
	c0.435,1.874,0.854,3.738,1.531,5.542c1.233,3.284,3.208,6.416,6.451,8.007c2.556,1.248,5.507,1.349,8.356,1.324
	c1.869-0.015,3.769-0.081,5.537-0.692c3.42-1.187,5.805-4.198,8.482-6.633c7.659-6.962,18.652-9.568,28.927-8.331
	c10.271,1.243,19.869,6.012,28.165,12.195c1.839,1.369,3.738,2.859,6.007,3.178C219.514,127.748,224.49,122.449,229.173,123.858z"/>
<g>
	<path style="fill:#4F2E07;" d="M207.758,84.723c1.164,1.127,2.175,2.409,3.396,3.473c3.317,2.89,7.85,3.914,11.579,6.248
		c1.913,1.198,3.608,2.742,4.978,4.537c-1.602,0.823-3.588,0.34-5.147-0.561c-1.559-0.901-2.87-2.184-4.418-3.103
		c-2.068-1.228-4.482-1.765-6.586-2.93c-2.223-1.231-4.006-3.108-5.751-4.955c-1.107-1.171-2.213-2.343-3.32-3.514
		c-0.846-0.896-4.044-4.224-0.901-3.504C203.663,80.889,206.271,83.284,207.758,84.723z"/>
	<path style="fill:#4F2E07;" d="M123.303,91.202c1.472-0.677,3.033-1.156,4.467-1.91c3.894-2.047,6.489-5.902,10.014-8.534
		c1.809-1.35,3.862-2.372,6.03-2.999c0.187,1.791-0.981,3.468-2.385,4.595s-3.074,1.885-4.491,2.996
		c-1.893,1.484-3.267,3.54-5.114,5.08c-1.952,1.627-4.346,2.61-6.7,3.569c-1.492,0.608-2.985,1.216-4.477,1.824
		c-1.141,0.465-5.401,2.241-3.593-0.428C118.247,93.632,121.423,92.067,123.303,91.202z"/>
</g>
<path style="fill:#D8A76C;" d="M213.677,110.066c-0.89,3.652-2.47,7.212-5.07,9.925c2.057-0.446,4.231-0.953,5.734-2.426
	c1.764-1.728,2.195-4.375,2.408-6.835c0.274-3.162,0.342-6.341,0.204-9.512c-0.031-0.719-0.351-2.62-1.523-2.169
	c-0.804,0.309-0.559,2.556-0.617,3.271C214.601,104.923,214.297,107.525,213.677,110.066z"/>
<path style="fill:#704618;" d="M200.327,91.46c-0.025,1.152-9.296-2.182-13.433-4.89c-1.996-1.298-4.032-2.622-6.325-3.269
	c-2.844-0.808-5.865-0.515-8.811-0.222c-5.249,0.53-10.503,1.061-15.752,1.586c-1.313,0.131-2.642,0.268-3.895,0.672
	c-1.627,0.525-3.067,1.475-4.491,2.415c-4.698,3.112-9.397,6.219-14.1,9.331c-3.344,2.213-6.82,4.562-8.77,8.063
	c-1.637,2.93-2.147,6.562-4.562,8.891c-0.576,0.556-2.021,2.031-3.309,2.92c0.152-1.344,0.349-2.683,0.556-3.986
	c0.293-1.874,0.621-3.834,1.753-5.365c0.303-0.414,0.687-0.783,1.122-1.081c1.167-2.632,2.455-5.204,4.168-7.507
	c2.359-3.188,5.436-5.759,8.487-8.295c2.576-2.147,5.158-4.299,7.942-6.173c4.148-2.799,8.725-4.971,13.549-6.3
	c5.198-1.43,10.665-1.874,16.025-1.298C181.68,78.148,192.016,83.761,200.327,91.46z"/>
<circle style="fill:#A09F77;" cx="292.464" cy="162.803" r="44.207"/>
<path style="fill:#2F4859;" d="M288.884,135.172c-15.724,0-29.147,9.833-34.459,23.684c-0.117,1.198-0.18,2.412-0.18,3.641
	c0,20.379,16.52,36.899,36.899,36.899c15.728,0,29.149-9.844,34.46-23.704c0.122-1.188,0.181-2.396,0.181-3.621
	C325.783,151.693,309.262,135.172,288.884,135.172z"/>
<path style="fill:#574F38;" d="M291.143,125.598c-19.15,0-34.889,14.589-36.718,33.258c5.313-13.851,18.736-23.684,34.459-23.684
	c20.378,0,36.899,16.521,36.899,36.899c0,1.225-0.059,2.433-0.181,3.621c1.57-4.098,2.439-8.544,2.439-13.195
	C328.042,142.118,311.522,125.598,291.143,125.598z"/>
<path style="fill:#513A33;" d="M337.508,156.313c0.224,3.027,0.449,6.061,0.366,9.095c-0.348,12.723-6.4,25.182-16.184,33.322
	c1.563,0.562,3.248-0.283,4.693-1.104c2.341-1.329,4.721-2.689,6.55-4.664c1.493-1.613,2.556-3.572,3.493-5.56
	c5.383-11.432,6.969-24.614,4.45-36.997c-0.621-3.052-1.55-7.287-4.042-9.368c-1.037,1.469-0.06,5.36,0.078,7.218
	C337.11,150.942,337.309,153.628,337.508,156.313z"/>
<g>
	<path style="fill:#574F38;" d="M328.532,137.812c0.826,1.29,1.652,2.579,2.477,3.869c1.49,2.327,3,4.699,3.747,7.359
		c0.261-1.576,0.473-3.194,0.176-4.763c-0.211-1.119-0.674-2.174-1.159-3.205c-1.271-2.705-2.745-5.364-4.83-7.505
		c-1.665-1.709-4.546-3.874-6.952-3.685C324.725,132.075,326.658,134.885,328.532,137.812z"/>
	<path style="fill:#574F38;" d="M255.095,182.208c2.18,5.025,5.495,9.71,10.142,12.609c4.13,2.577,9.082,3.622,13.163,6.275
		c-3.666,0.782-7.532-0.1-10.894-1.756c-3.362-1.656-6.299-4.048-9.174-6.453c-1.311-1.097-2.62-2.205-3.777-3.463
		c-4.607-5.01-7.419-14.544-4.067-20.932c1.449,0.77,1.672,4.808,2.106,6.4C253.272,177.379,254.067,179.839,255.095,182.208z"/>
	<path style="fill:#574F38;" d="M308.53,207.912c-3.311,2.33-7.618,2.536-11.665,2.659c-2.383,0.072-15.964,0.737-16.069-2.786
		c4.566,0.11,9.104,0.762,13.707,0.723C299.183,208.469,303.858,208.19,308.53,207.912z"/>
	<path style="fill:#574F38;" d="M331.931,160.689c0.601,5.164,0.177,10.541-1.949,15.286c-0.824,1.84-1.891,3.559-2.992,5.248
		c-2.583,3.962-5.376,7.787-8.362,11.455c2.218-1.759,4.436-3.519,6.653-5.278c2.173-1.724,4.393-3.5,5.823-5.876
		c1.093-1.816,1.667-3.888,2.228-5.932c0.994-3.618,1.996-7.294,1.958-11.047c-0.031-2.993-0.736-5.934-1.82-8.713
		c-0.662-1.698-1.887-5.899-3.997-6.134C330.063,153.381,331.493,156.918,331.931,160.689z"/>
</g>
<g>
	<path style="fill:#230208;" d="M319.684,232.723c-1.021,0-1.948-0.596-2.557-1.044c-5.469-4.053-8.787-8.198-10.147-12.674
		c-1.052-3.45-0.932-7.054-0.816-10.539c0.035-1.056,0.071-2.147,0.073-3.205c0-2.852-0.255-5.697-0.76-8.49
		c-0.291,0.402-0.599,0.79-0.925,1.164l-1.982,2.276v-2.872c-0.324-0.56-1.916-1.954-2.611-2.564
		c-0.473-0.415-0.847-0.742-1.061-0.966l-1.043-1.083c-1.047-1.086-2.095-2.174-3.127-3.274c-0.872-0.925-1.697-1.8-1.524-2.89
		c0.164-1.035,1.14-1.646,2.303-2.282c1.729-0.949,3.685-1.493,5.655-1.573c0.166-0.006,0.329-0.01,0.492-0.01
		c2.512,0,5.098,0.772,7.479,2.232c2.223,1.365,4.207,3.291,5.738,5.572c3.094,4.604,4.274,10.097,5.021,14.864
		c0.165,1.054,0.313,2.113,0.462,3.172c0.174,1.242,0.355,2.526,0.559,3.776c0.045,0.279,0.089,0.549,0.138,0.825
		c0.13,0.752,0.263,1.404,0.603,1.844c0.504,0.653,1.477,0.874,2.602,1.13c1.255,0.285,2.677,0.608,3.706,1.69l1.066,1.121
		l-1.392,0.675c-0.947,0.459-1.329,1.856-1.698,3.207l-0.044,0.16c-0.805,2.932-2.076,5.696-3.775,8.215
		c-0.33,0.495-0.724,0.999-1.347,1.297C320.438,232.639,320.07,232.723,319.684,232.723z"/>
	<path style="fill:#230208;" d="M306.369,214.281c-2.631,0-4.763-1.775-6.319-3.07c-2.227-1.87-4.515-3.792-6.268-6.219
		c-0.868-1.206-1.577-2.497-2.262-3.746c-0.533-0.972-1.037-1.89-1.612-2.776c-0.347-0.526-0.735-1.053-1.202-1.299
		c-0.201-0.105-0.342-0.157-0.431-0.183c-0.061,0.145-0.127,0.369-0.176,0.532c-0.185,0.625-0.439,1.48-1.226,1.917
		c-0.318,0.177-0.693,0.264-1.145,0.264c-1.59,0-4.075-1.121-6.28-2.172c-0.221-0.105-0.406-0.193-0.543-0.256
		c-0.235-0.11-0.92-0.431-1.057-1.227c-0.105-0.505,0.124-0.926,0.235-1.128l2.613-4.614c0.788-1.392,1.867-3.296,3.824-4.105
		c0.617-0.256,1.288-0.386,1.993-0.386c1.425,0,2.974,0.518,4.605,1.541c2.521,1.576,4.6,3.698,6.611,5.749
		c0.56,0.572,1.12,1.143,1.689,1.702c2.045,2.007,4.811,4.425,8.068,5.303l0.833,0.225l0.052,13.574l-0.838,0.227
		c-0.359,0.097-0.738,0.146-1.126,0.146L306.369,214.281z"/>
</g>
<path style="fill:#D75668;" d="M307.191,201.2c-3.311-0.893-6.108-3.176-8.566-5.588c-2.599-2.554-5.018-5.368-8.108-7.3
	c-1.667-1.045-3.752-1.819-5.566-1.068c-1.531,0.633-2.452,2.17-3.272,3.616c-0.865,1.531-1.735,3.063-2.605,4.599
	c-0.068,0.124-0.141,0.26-0.113,0.396c0.034,0.198,0.232,0.305,0.412,0.39c1.175,0.537,5.735,2.882,6.95,2.204
	c1.079-0.599,0.339-3.616,2.91-2.277c0.695,0.367,1.187,1.023,1.622,1.684c1.367,2.108,2.373,4.436,3.842,6.475
	c1.673,2.317,3.887,4.176,6.074,6.012c1.65,1.373,3.486,2.825,5.633,2.808c0.277,0,0.559-0.034,0.831-0.107L307.191,201.2z"/>
<path style="fill:#F1A79E;" d="M287.806,191.046c0.188,0.908,1.062,1.471,1.777,2.062c1.608,1.329,2.682,3.225,4.335,4.498
	c1.755,1.352,4.114,1.887,6.281,1.425c0.509-0.811,0.062-1.862-0.392-2.706c-0.933-1.732-1.9-3.468-3.21-4.936
	c-1.528-1.713-3.619-3.28-5.721-4.22C288.44,186.08,287.308,188.644,287.806,191.046z"/>
<path style="fill:#230208;" d="M352.32,250.766c-1.253-2.191-1.952-4.683-2.021-7.207c-0.012-0.444-0.005-0.89,0.001-1.335
	c0.013-0.896,0.026-1.823-0.101-2.768c-0.202-1.491-0.738-2.87-1.224-4.045c-0.912-2.205-2.01-4.486-3.849-6.236
	c-1.025-0.975-2.194-1.702-3.325-2.405l-4.515-2.807c1.483-3.046,2.263-6.191,2.253-9.161c-0.013-4.2-1.603-8.118-4.365-10.75
	c-1.165-1.103-2.51-1.967-3.697-2.729c-1.703-1.096-3.823-2.459-6.256-2.695c-0.337-0.032-0.701-0.048-1.081-0.048
	c-1.507,0-3.319,0.257-4.972,0.704l-1.062,0.287l0.259,1.069c0.367,1.52,0.691,3.18,0.988,5.074
	c0.166,1.058,0.315,2.119,0.464,3.182c0.213,1.519,0.433,3.09,0.703,4.633c0.167,0.967,0.384,1.982,1.038,2.832
	c1.002,1.297,2.537,1.646,3.892,1.954c0.525,0.119,1.035,0.235,1.483,0.397c-0.803,1.018-1.168,2.353-1.481,3.496l-0.043,0.158
	c-0.74,2.694-1.907,5.235-3.472,7.555c-0.089,0.134-0.297,0.446-0.452,0.52c-0.022,0.01-0.051,0.021-0.105,0.021
	c-0.181,0-0.539-0.105-1.181-0.576l-0.058-0.049l-1.251-0.946l-0.521,1.442c-0.283,0.782-0.506,1.471-0.681,2.103
	c-0.414,1.482-0.658,2.997-0.894,4.461c-0.17,1.057-0.346,2.15-0.583,3.194c-0.714,3.156-2.084,6.22-3.962,8.863l-0.06,0.084
	c-0.984,1.388-2.209,3.115-1.621,5.09l0.403,1.351l1.231-0.687c4.423-2.468,9.432-3.871,14.484-4.056
	c0.291-0.01,0.584-0.017,0.877-0.023c1.789-0.04,3.638-0.081,5.38-0.867l1.07-0.483l-0.524-1.051
	c-1.204-2.414-1.887-5.099-2.025-7.845c0.29,0.238,0.557,0.482,0.785,0.749c1.392,1.638,3.663,4.119,3.545,6.733l-0.046,1.011
	l0.999,0.157c5.548,0.87,8.867,1.983,14.325,3.31l2.552,0.62L352.32,250.766z"/>
<g>
	<path style="fill:#D75668;" d="M320.758,215.67c-0.508-0.661-0.678-1.514-0.819-2.334c-0.051-0.283-0.096-0.559-0.141-0.842
		c-0.379-2.311-0.661-4.645-1.023-6.956c-0.791-5.051-1.995-10.171-4.842-14.409c-1.396-2.079-3.255-3.927-5.391-5.238
		c-2.221-1.362-4.735-2.158-7.334-2.057c-1.797,0.073-3.582,0.571-5.159,1.435c-2.283,1.249-2.175,1.627-0.497,3.407
		c1.373,1.463,2.774,2.904,4.164,4.351c0.667,0.701,3.984,3.289,3.984,4.164c0.915-1.051,1.684-2.226,2.283-3.481
		c0.921,3.774,1.384,7.662,1.384,11.549c-0.006,4.498-0.616,9.114,0.695,13.414c1.531,5.04,5.504,8.956,9.736,12.092
		c0.729,0.537,1.673,1.085,2.486,0.689c0.39-0.186,0.661-0.554,0.898-0.91c1.627-2.413,2.853-5.085,3.622-7.882
		c0.429-1.565,0.881-3.379,2.339-4.085C325.499,216.851,322.216,217.558,320.758,215.67z"/>
	<path style="fill:#D75668;" d="M349.169,243.59c-0.036-1.328,0.088-2.665-0.09-3.981c-0.177-1.304-0.645-2.549-1.148-3.765
		c-0.881-2.129-1.914-4.261-3.583-5.849c-0.937-0.892-2.045-1.581-3.143-2.264c-1.545-0.962-3.091-1.922-4.637-2.883
		c-0.682-0.424-1.351-1.033-2.011-1.336c-0.287,0.587-0.589,1.166-0.919,1.727c-0.782,1.329-1.675,2.591-2.423,3.94
		c-1.295,2.334-2.1,4.92-2.427,7.567c0.646,0.652,1.329,1.266,2.057,1.825c0.785,0.604,1.623,1.159,2.265,1.914
		c1.699,1.998,3.931,4.895,3.813,7.516c5.602,0.878,8.907,1.989,14.417,3.329C349.995,248.979,349.243,246.295,349.169,243.59z"/>
</g>
<path style="fill:#FDAEA7;" d="M336.98,234.632c1.176-1.346,2.866-2.317,4.654-2.325c0.65-0.003,1.324,0.13,1.842,0.522
	c0.614,0.464,0.926,1.219,1.158,1.952c0.621,1.959,0.867,4.035,0.72,6.085c-0.016,0.221-0.039,0.45-0.149,0.641
	c-0.153,0.266-0.446,0.413-0.722,0.547c-0.805,0.388-1.876,0.737-2.497,0.094c-0.2-0.207-0.307-0.484-0.431-0.744
	c-0.496-1.045-1.337-1.923-2.359-2.465c0.404,1.572,0.534,3.214,0.382,4.83c-0.856,0.114-1.745-0.518-1.92-1.364
	c-0.32,0.664-0.873,1.212-1.539,1.526c-0.284-1.611-1.264-3.418-1.248-5.036C334.885,237.43,336.056,235.69,336.98,234.632z"/>
<path style="fill:#D75668;" d="M338.312,214.708c0.011,3.368-1.023,6.673-2.639,9.645c-0.141,0.266-0.288,0.525-0.441,0.785
	c-0.78,1.328-1.673,2.594-2.418,3.938c-1.079,1.944-1.825,4.068-2.238,6.255c-0.836,4.503-0.243,9.284,1.803,13.386
	c-1.803,0.814-3.859,0.723-5.831,0.791c-5.238,0.192-10.419,1.644-14.996,4.198c-0.441-1.48,0.627-2.938,1.52-4.198
	c1.972-2.774,3.39-5.944,4.142-9.267c0.571-2.514,0.768-5.114,1.463-7.6c0.186-0.672,0.412-1.35,0.655-2.023
	c0.023,0.017,0.039,0.034,0.062,0.051c0.729,0.537,1.673,1.085,2.486,0.689c0.39-0.186,0.661-0.554,0.898-0.91
	c1.627-2.413,2.853-5.085,3.622-7.882c0.429-1.565,0.881-3.379,2.339-4.085c-1.644-1.729-4.927-1.023-6.385-2.91
	c-0.508-0.661-0.678-1.514-0.819-2.334c-0.452-2.588-0.757-5.204-1.164-7.798c-0.271-1.729-0.593-3.458-1.006-5.165
	c1.712-0.463,3.927-0.785,5.65-0.622c2.102,0.203,3.978,1.379,5.752,2.52c1.232,0.791,2.469,1.593,3.532,2.599
	C336.956,207.306,338.301,211.041,338.312,214.708z"/>
<path style="fill:#022128;" d="M345.822,247.516c0.757-0.228,0.845-1.257,0.73-2.038c-0.699-4.748-3.317-8.963-5.876-13.023
	c-0.573-0.909-1.164-1.838-2.017-2.491c-0.757-0.579-1.989-1.043-2.892-0.564c0.427,1.337,2.207,2.839,3.058,4.03
	c1.02,1.428,1.964,2.911,2.827,4.439C343.377,240.925,344.78,244.164,345.822,247.516z"/>
<g>
	<path style="fill:#FDAEA7;" d="M335.673,224.353c-0.141,0.266-0.288,0.525-0.441,0.785c-0.78,1.328-1.673,2.594-2.418,3.938
		c-1.079,1.944-1.825,4.068-2.238,6.255c-0.429,0.401-0.876,0.791-1.317,1.181c-1.288,1.13-2.577,2.255-3.865,3.385
		c0.565-2.187,0.684-4.486,0.362-6.724c-0.735,1.339-1.463,2.684-2.192,4.023c-0.633,1.164-1.718,2.526-2.978,2.113
		c-0.294-0.599,0.028-1.305,0.35-1.893c2.124-3.927,4.255-7.86,6.803-11.527c0.836-1.204,1.735-2.413,2.136-3.825
		c0.35-1.215,0.305-2.503,0.254-3.769c-0.09-2.396-0.22-4.91-1.475-6.95c-0.672-1.085-2.464-3.588-2.464-3.588
		c0.763-1.876,3.283-2.56,5.165-1.808c1.882,0.746,3.159,2.537,3.938,4.407C337.114,214.753,336.668,219.618,335.673,224.353z"/>
	<path style="fill:#FDAEA7;" d="M319.797,212.495c-0.158,0.921-0.424,1.814-0.825,2.673c-0.78,1.667-2.537,3.255-4.277,2.65
		c0.028,0.876-0.107,1.757-0.39,2.588c-0.085,0.237-0.192,0.492-0.407,0.627c-0.469,0.283-1.034-0.147-1.413-0.542
		c-1.548-1.65-3.215-3.645-2.876-5.882c0.04-0.254,0.119-0.525,0.339-0.667c0.175-0.119,0.407-0.113,0.622-0.102
		c1.362,0.056,2.729,0.113,4.091,0.169c-0.147-2.368-1.424-4.486-2.192-6.73c-1.085-3.176-1.147-6.611-2.045-9.843
		c-0.701-2.52-1.899-4.854-3.193-7.114c-1.215-2.136-0.746-3.588,1.311-4.43c2.136,1.311,3.995,3.159,5.391,5.238
		c2.848,4.238,4.051,9.357,4.842,14.409C319.136,207.85,319.419,210.184,319.797,212.495z"/>
</g>
<g>
	<path style="fill:#022128;" d="M323.439,245.954c-0.895-3.547-0.096-7.339,1.65-10.499c0.3-0.543,2.239-4.028,2.905-2.515
		c0.216,0.491-0.821,2.474-1.006,3.011c-0.357,1.038-0.717,2.076-1.08,3.112c-0.417,1.19-0.838,2.378-1.264,3.565
		C324.403,243.3,323.272,245.29,323.439,245.954z"/>
	<path style="fill:#022128;" d="M304.533,192.997c0.335,0.315,0.68,0.619,1.025,0.924c0.613,0.54,1.225,1.08,1.838,1.62
		c-0.538-1.331-1.08-2.671-1.863-3.875c-0.594-0.913-2.7-3.659-4.098-2.802c-0.818,0.502,0.204,1.099,0.668,1.6
		C302.899,191.323,303.681,192.195,304.533,192.997z"/>
</g>
<path style="fill:#230208;" d="M309.982,200.785c-0.003,2.07-0.004,4.162,0.383,6.176c0.386,2.008,1.145,3.872,1.898,5.714
	c1.85,4.526,3.866,9.281,7.362,11.934c0.605-1.806-0.505-3.718-1.413-5.318c-1.011-1.78-1.841-3.707-2.613-5.662
	c-1.268-3.211-2.384-6.514-3.343-9.885c-0.798-2.804-1.985-6.208-2.241-9.277c-0.013-0.15-0.224-0.155-0.25-0.007
	C309.188,197.836,309.986,198.558,309.982,200.785z"/>
<path style="fill:#A09F77;" d="M298.478,275.447c0.068,5.259,1.716,10.353,3.347,15.353c1.435,4.399,2.871,8.797,4.306,13.196
	c0.336,1.029,0.747,2.152,1.694,2.674c0.993,0.547,2.21,0.243,3.338,0.141c3.764-0.341,7.614,2.042,8.988,5.564
	c0.463,1.187,0.802,2.633,1.97,3.141c1.57,0.683,3.164-0.877,4.838-1.237c2.449-0.527,4.894,1.593,7.344,1.068
	c2.263-0.485,3.438-2.928,5.184-4.447c2.6-2.26,6.353-2.374,9.769-2.819c5.711-0.745,11.724-3.132,14.478-8.191
	c1.041-1.911,1.536-4.062,2.168-6.145c0.97-3.198,2.286-6.29,3.916-9.207c1.581-2.828,3.48-5.542,4.336-8.667
	c0.708-2.587,0.661-5.314,0.544-7.993c-0.153-3.517-0.496-7.254-2.637-10.048c-1.813-2.365-4.705-3.711-7.636-4.247
	c-2.931-0.536-5.94-0.346-8.914-0.153c-9.522,0.615-19.049,1.231-28.532,2.314c-4.828,0.552-9.643,1.222-14.427,2.076
	c-3.522,0.629-8.318,0.621-10.418,3.763C299.553,265.446,298.419,270.875,298.478,275.447z"/>
<circle style="fill:#574F38;" cx="335.735" cy="273.733" r="33.355"/>
<circle style="fill:#D8D0A1;" cx="335.735" cy="273.733" r="29.452"/>
<path style="fill:#FFFFFB;" d="M360.045,273.73c0-13.43-10.887-24.317-24.317-24.317v0c-3.777,0-7.353,0.861-10.542,2.398
	c-0.447,0.215-0.883,0.448-1.314,0.69c-0.734,0.411-1.443,0.859-2.127,1.341c-0.778,0.548-1.524,1.138-2.231,1.771
	c-0.335,0.3-0.663,0.606-0.981,0.923c-4.4,4.4-7.122,10.48-7.122,17.195c0,9.653,5.624,17.992,13.774,21.919
	c3.189,1.537,6.765,2.398,10.542,2.398l0,0C349.158,298.047,360.045,287.16,360.045,273.73z"/>
<path style="fill:#E2E2D3;" d="M335.728,249.413L335.728,249.413c-3.777,0-7.353,0.861-10.542,2.398
	c-0.447,0.215-0.883,0.448-1.314,0.69c-0.734,0.411-1.443,0.859-2.127,1.341c-0.778,0.548-1.524,1.138-2.231,1.771
	c-0.189,0.169-0.37,0.347-0.554,0.522c2.471-0.846,5.118-1.309,7.876-1.309v0c13.43,0,24.317,10.887,24.317,24.317
	c0,6.921-2.896,13.161-7.536,17.589c9.556-3.277,16.429-12.333,16.429-23.001C360.045,260.3,349.158,249.413,335.728,249.413z"/>
<path style="fill:#E2A67D;" d="M142.332,284.289c-5.028-2.798-11.719,1.307-17.407,2.177c-2.896,0.443-5.665,1.468-8.411,2.488
	c-0.734,0.273-1.49,0.558-2.06,1.095c-0.612,0.576-0.946,1.379-1.263,2.157c-1.195,2.933-2.413,6.002-2.153,9.158
	c0.22,2.673,1.483,5.136,2.761,7.494c7.167,13.228,15.576,25.766,22.432,39.158c1.317,2.572,2.584,5.199,3.267,8.007
	c0.297,1.221,1.038,2.84,2.24,2.476c0.559-0.169,0.885-0.738,1.13-1.268c1.881-4.073,2.3-8.803,1.164-13.143
	c-1.706-6.516-6.588-11.642-9.983-17.458c-2.98-5.104-4.846-10.816-8.039-15.789c-1.903-2.962-4.349-5.876-4.516-9.393
	c-0.129-2.712,1.148-5.278,2.511-7.627c0.544-0.937,1.144-1.901,2.077-2.452c0.838-0.495,1.848-0.597,2.821-0.597
	c4.534-0.003,9.497-3.647,13.374-1.478c3.362,1.88,7.933,5.838,11.794,6.13C155.106,292.089,144.835,285.682,142.332,284.289z"/>
<g>
	<path style="fill:#D89664;" d="M88.744,248.945c1.934,6.384,5.638,12.47,11.313,15.976c12.183,7.526,29.05,1.219,41.756,7.824
		c3.726,1.937,6.89,4.941,9.018,8.562c-2.775,1.656-6.181,1.727-9.412,1.751c-7.658,0.058-15.315,0.116-22.973,0.174
		c-4.588,0.035-9.272,0.055-13.628-1.387c-7.29-2.414-12.63-8.534-17.595-14.392c-1.421-1.676-2.857-3.378-3.802-5.361
		c-1.235-2.592-1.56-5.524-1.599-8.396c-0.05-3.625,0.333-7.235,0.87-10.815c0.268-1.786,0.473-9.022,2-10.076
		c2.559-1.766,1.959,4.603,2.14,6.244C87.201,242.392,87.768,245.719,88.744,248.945z"/>
	<path style="fill:#D89664;" d="M136.786,284.396c-5.939-1.192-12.476-0.458-17.375,3.096c-4.899,3.554-7.69,10.239-5.707,15.962
		c1.379,3.989,4.707,6.944,7.052,10.453c4.04,6.035,5.091,13.516,7.634,20.319c2.746,7.329,7.233,13.861,10.809,20.828
		c3.571,6.967,6.278,14.81,5.018,22.534c-0.61,3.718-2.379,7.34-4.927,10.12c-0.554-3.684-1.458-7.312-2.695-10.849l-23.314-66.613
		c-2.786-7.95-7.753-14.895-14.137-20.387c-4.701-4.046-8.741-9.662-11.583-16.335c0.226-0.243,0.429-0.503,0.616-0.78
		c1.927,1.757,3.922,3.554,6.368,4.469c3.656,1.367,7.775,0.565,11.578,1.441c2.011,0.463,3.893,1.39,5.865,2.012
		c3.763,1.181,7.786,1.226,11.73,1.079c9.758-0.356,20.652-1.469,28.179,4.752c3.477,2.876,6.459,9.716,8.097,14.073
		c0.279,0.741-0.689,1.304-1.197,0.697C154.42,296.049,145.135,286.08,136.786,284.396z"/>
</g>
<path style="fill:#513A33;" d="M163.925,289.438c-1.704-3.806-3.565-7.809-6.857-10.061c-3.265-2.234-7.355-2.341-11.209-2.21
	c-8.195,0.278-16.37,1.317-24.567,1.149c-8.197-0.168-16.563-1.62-23.72-5.977c-7.157-4.357-12.961-11.977-14.018-20.833
	c-0.765-6.405,2.663-19.541,2.548-19.894c-0.207-0.393-0.355-0.802-0.468-1.22c-1.368,1.393-2.511,3.074-3.333,4.897
	c-2.019,4.474-2.358,9.651-1.933,14.615c1.102,12.869,7.404,25.21,17.142,32.594c9.738,7.384,22.791,9.503,33.93,5.05
	c1.74-0.695,3.438-1.543,5.243-2.001c6.312-1.603,12.777,1.753,18.117,5.753c4.873,3.65,9.351,7.923,13.315,12.704
	C168.101,298.869,165.99,294.053,163.925,289.438z"/>
<path style="fill:#BF8C49;" d="M239.11,123.858c0.475,2.486,1.268,4.966,2.066,7.335c0.546,1.617,1.132,3.304,2.364,4.481
	c2.465,2.354,6.441,1.814,9.725,0.884c5.486-1.556,10.791-3.749,15.772-6.527c5.461-3.046,10.862-6.886,16.586-9.22
	c3.466-1.42,7.052-2.283,10.841-2.086c6.497,0.338,12.372,3.834,17.722,7.532c5.355,3.698,10.655,7.77,16.909,9.553
	c6.254,1.778,13.878,0.657,17.768-4.552c2.986-4.001,3.107-9.215,2.541-14.302c-0.152-1.344-0.349-2.683-0.556-3.986
	c-0.237-1.521-0.5-3.097-1.192-4.451c-0.162-0.318-0.349-0.621-0.561-0.914c-0.303-0.414-0.687-0.783-1.122-1.081
	c-1.167-2.632-2.455-5.204-4.168-7.507c-2.359-3.188-5.436-5.759-8.487-8.295c-2.576-2.147-5.158-4.299-7.942-6.173
	c-4.148-2.799-8.725-4.971-13.549-6.3c-5.198-1.43-10.665-1.874-16.025-1.298c-11.2,1.197-21.536,6.81-29.847,14.509
	c-1.607,1.48-3.132,3.041-4.577,4.663c-1.657,1.859-3.248,3.829-5.31,5.214c-0.116,0.076-0.227,0.152-0.349,0.227
	c-1.743,1.096-3.723,1.773-5.653,2.521c-4.941,1.925-10.013,4.734-12.211,9.558C238.398,116.846,238.438,120.357,239.11,123.858z"/>
<g>
	<path style="fill:#D8A76C;" d="M330.827,99.161c-0.296,1.128-0.816,2.184-1.38,3.205c-2.585,4.684-6.167,8.814-10.438,12.035
		c2.233,0.878,4.677-0.462,6.653-1.824c1.063-0.733,2.116-1.491,3.035-2.398c3.241-3.199,4.483-7.88,5.216-12.374
		c0.233-1.425,0.423-2.916-0.024-4.288c-0.557-1.71-2.561-3.27-3.268-1.054C330.052,94.242,331.379,97.056,330.827,99.161z"/>
	<path style="fill:#D8A76C;" d="M337.432,112.144c-1.248,2.523-2.498,5.051-3.987,7.44c-1.927,3.093-4.249,5.94-6.892,8.45
		c2.875-0.759,5.746-1.671,8.285-3.219c4.073-2.483,7.116-6.601,8.294-11.224c1.095-4.298,0.786-10.373-2.096-13.95
		c-0.801,1.531-0.373,3.858-0.798,5.592C339.645,107.652,338.53,109.922,337.432,112.144z"/>
	<path style="fill:#D8A76C;" d="M286.718,91.151c-1.833,6.139-1.719,12.667-1.589,19.072c0.053,2.621,0.134,5.355,1.372,7.666
		c-1.775-0.297-3.066-1.948-3.545-3.683c-0.478-1.735-0.319-3.572-0.254-5.37c0.176-4.915-0.389-9.867,0.301-14.736
		c0.41-2.897,3.097-12.295,7.096-11.817C289.498,85.283,287.607,88.173,286.718,91.151z"/>
</g>
<path style="fill:#4F2E07;" d="M241.176,131.194c0.546,1.617,1.132,3.304,2.364,4.481c2.465,2.354,6.441,1.814,9.725,0.884
	c5.486-1.556,10.791-3.749,15.772-6.527c5.461-3.046,10.862-6.886,16.586-9.22c0.071-0.182,0.141-0.364,0.202-0.546
	c-3.86-0.338-7.593,1.404-10.902,3.425c-3.309,2.016-6.487,4.38-10.19,5.522c-2.647,0.818-5.476,0.98-8.058,1.98
	c-1.46,0.566-2.875,1.404-4.441,1.44c-0.904,0.025-1.798-0.232-2.622-0.606c-4.163-1.9-6.401-7.204-4.86-11.508
	c0.278-0.778,0.667-1.531,0.773-2.344c0.136-0.995-0.152-2.011,0.005-3.001c0.126-0.798,0.53-1.526,0.924-2.233
	c1.309-2.324,2.784-4.804,5.234-5.865c1.192-0.515,2.516-0.642,3.794-0.884c1.576-0.293,3.137-0.758,4.597-1.425
	c1.98-0.904,1.45-1.561-0.354-2.339c-0.667-0.288-1.339-0.576-2.006-0.864c-1.743,1.096-3.723,1.773-5.653,2.521
	c-4.941,1.925-10.013,4.734-12.211,9.558C237.362,119.12,239.257,125.49,241.176,131.194z"/>
<path style="fill:#704618;" d="M239.11,123.858c0.475,2.486,1.268,4.966,2.066,7.335c0.546,1.617,1.132,3.304,2.364,4.481
	c2.465,2.354,6.441,1.814,9.725,0.884c5.486-1.556,10.791-3.749,15.772-6.527c5.461-3.046,10.862-6.886,16.586-9.22
	c3.466-1.42,7.052-2.283,10.841-2.086c6.497,0.338,12.372,3.834,17.722,7.532c5.355,3.698,10.655,7.77,16.909,9.553
	c6.254,1.778,13.878,0.657,17.768-4.552c2.986-4.001,3.107-9.215,2.541-14.302c-0.152-1.344-0.349-2.683-0.556-3.986
	c-0.237-1.521-0.5-3.097-1.192-4.451c-0.045,0.177-0.081,0.349-0.136,0.525c-0.495,1.601-1.829,1.627-2.238,3.4
	c-0.435,1.874-0.854,3.738-1.531,5.542c-1.233,3.284-3.208,6.416-6.451,8.007c-2.556,1.248-5.507,1.349-8.356,1.324
	c-1.869-0.015-3.769-0.081-5.537-0.692c-3.42-1.187-5.805-4.198-8.482-6.633c-7.659-6.962-18.652-9.568-28.927-8.331
	c-10.271,1.243-19.869,6.012-28.165,12.195c-1.839,1.369-3.738,2.859-6.007,3.178C248.77,127.748,243.793,122.449,239.11,123.858z"
	/>
<g>
	<path style="fill:#4F2E07;" d="M260.525,84.723c-1.164,1.127-2.175,2.409-3.396,3.473c-3.317,2.89-7.85,3.914-11.579,6.248
		c-1.913,1.198-3.608,2.742-4.978,4.537c1.602,0.823,3.588,0.34,5.147-0.561c1.559-0.901,2.87-2.184,4.418-3.103
		c2.068-1.228,4.482-1.765,6.586-2.93c2.223-1.231,4.006-3.108,5.751-4.955c1.107-1.171,2.213-2.343,3.32-3.514
		c0.846-0.896,4.044-4.224,0.901-3.504C264.62,80.889,262.012,83.284,260.525,84.723z"/>
	<path style="fill:#4F2E07;" d="M344.981,91.202c-1.472-0.677-3.033-1.156-4.467-1.91c-3.894-2.047-6.489-5.902-10.014-8.534
		c-1.809-1.35-3.862-2.372-6.03-2.999c-0.187,1.791,0.981,3.468,2.385,4.595s3.074,1.885,4.491,2.996
		c1.893,1.484,3.267,3.54,5.114,5.08c1.952,1.627,4.346,2.61,6.7,3.569c1.492,0.608,2.985,1.216,4.477,1.824
		c1.141,0.465,5.401,2.241,3.593-0.428C350.036,93.632,346.86,92.067,344.981,91.202z"/>
</g>
<path style="fill:#D8A76C;" d="M254.606,110.066c0.89,3.652,2.47,7.212,5.07,9.925c-2.057-0.446-4.231-0.953-5.734-2.426
	c-1.764-1.728-2.195-4.375-2.408-6.835c-0.274-3.162-0.342-6.341-0.204-9.512c0.031-0.719,0.351-2.62,1.523-2.169
	c0.804,0.309,0.559,2.556,0.617,3.271C253.683,104.923,253.987,107.525,254.606,110.066z"/>
<path style="fill:#704618;" d="M267.957,91.46c0.025,1.152,9.296-2.182,13.433-4.89c1.996-1.298,4.032-2.622,6.325-3.269
	c2.844-0.808,5.865-0.515,8.811-0.222c5.249,0.53,10.503,1.061,15.752,1.586c1.314,0.131,2.642,0.268,3.895,0.672
	c1.627,0.525,3.067,1.475,4.491,2.415c4.698,3.112,9.397,6.219,14.1,9.331c3.344,2.213,6.82,4.562,8.77,8.063
	c1.637,2.93,2.147,6.562,4.562,8.891c0.576,0.556,2.021,2.031,3.309,2.92c-0.152-1.344-0.349-2.683-0.556-3.986
	c-0.293-1.874-0.621-3.834-1.753-5.365c-0.303-0.414-0.687-0.783-1.122-1.081c-1.167-2.632-2.455-5.204-4.168-7.507
	c-2.359-3.188-5.436-5.759-8.487-8.295c-2.576-2.147-5.158-4.299-7.942-6.173c-4.148-2.799-8.725-4.971-13.549-6.3
	c-5.198-1.43-10.665-1.874-16.025-1.298C286.604,78.148,276.267,83.761,267.957,91.46z"/>
<path style="fill:#A09F77;" d="M132.125,167.234c0.077,5.983,1.952,11.779,3.809,17.468c1.633,5.005,3.266,10.009,4.899,15.014
	c0.382,1.17,0.849,2.448,1.928,3.042c1.129,0.622,2.514,0.277,3.798,0.161c4.283-0.388,8.663,2.324,10.226,6.33
	c0.527,1.35,0.912,2.996,2.241,3.574c1.786,0.777,3.6-0.998,5.505-1.408c2.786-0.6,5.568,1.813,8.355,1.215
	c2.575-0.552,3.911-3.332,5.899-5.06c2.958-2.572,7.228-2.701,11.115-3.208c6.498-0.848,13.339-3.564,16.473-9.319
	c1.184-2.175,1.748-4.622,2.466-6.991c1.104-3.638,2.6-7.157,4.456-10.475c1.799-3.218,3.96-6.306,4.933-9.861
	c0.806-2.943,0.752-6.046,0.619-9.094c-0.174-4.001-0.564-8.254-3-11.433c-2.063-2.691-5.353-4.222-8.688-4.832
	c-3.335-0.61-6.759-0.393-10.142-0.175c-10.834,0.7-21.674,1.4-32.463,2.633c-5.493,0.628-10.972,1.391-16.415,2.362
	c-4.007,0.715-9.464,0.707-11.853,4.281C133.348,155.855,132.058,162.032,132.125,167.234z"/>
<circle style="fill:#574F38;" cx="174.511" cy="165.282" r="37.95"/>
<circle style="fill:#D8D0A1;" cx="174.511" cy="165.282" r="33.511"/>
<circle style="fill:#FFFFFB;" cx="174.511" cy="165.282" r="27.667"/>
<path style="fill:#E2E2D3;" d="M146.841,165.28c0,15.28,12.387,27.667,27.667,27.667v-55.334
	C159.228,137.613,146.841,150,146.841,165.28z"/>
<path style="fill:#513A33;" d="M225.158,154.439c-0.929-3.157-4.116-12.881-8.354-14.148c-0.197-0.387-0.414-0.766-0.633-1.141
	c-0.506-0.868-1.011-1.735-1.517-2.603c-0.441-0.757-0.896-1.531-1.568-2.094c-0.608-0.509-1.356-0.815-2.091-1.113
	c-0.929-0.377-2.461-1.36-3.415-1.094c2.065,1.986,3.005,3.925,4.505,6.269c0.324,0.905,0.553,1.843,0.893,2.743
	c0.705,1.863,1.866,3.511,3.023,5.134c0.586,2.596,1.506,5.166,2.411,7.397c1.611,3.972,3.866,8.024,3.234,12.264
	c-0.356,2.389-1.607,4.538-2.874,6.594c-3.626,5.886-7.589,11.566-11.861,17.001c2.415,0.586,5.003-0.265,7.015-1.724
	c2.012-1.459,3.543-3.473,4.998-5.488c3.963-5.489,7.718-11.61,7.866-18.378C226.863,160.793,226.08,157.571,225.158,154.439z"/>
<g>
</g>
<g>
</g>
<g>
</g>
<g>
</g>
<g>
</g>
<g>
</g>
<g>
</g>
<g>
</g>
<g>
</g>
<g>
</g>
<g>
</g>
<g>
</g>
<g>
</g>
<g>
</g>
<g>
</g>
</svg>
