<?xml version="1.0" encoding="iso-8859-1"?>
<!-- Generator: Adobe Illustrator 19.0.0, SVG Export Plug-In . SVG Version: 6.00 Build 0)  -->
<svg version="1.1" id="Capa_1" xmlns="http://www.w3.org/2000/svg" xmlns:xlink="http://www.w3.org/1999/xlink" x="0px" y="0px"
	 viewBox="0 0 475.676 475.676" style="enable-background:new 0 0 475.676 475.676;" xml:space="preserve">
<path style="fill:#27A2DB;" d="M409.323,141.272c9.811-8.781,22.429-17.379,35.149-13.981c8.704,2.325,15.006,9.784,19.92,17.335
	c6.417,9.861,11.618,21.109,11.266,32.868c-0.241,8.064-3.068,15.792-5.668,23.43c-7.793,22.9-13.811,46.405-17.981,70.233
	c-1.034,5.907-2.636,12.763-8.114,15.202c-2.059,0.917-4.372,1.029-6.624,1.116c-6.691,0.259-13.8,0.312-19.543-3.131
	c-8.486-5.089-11.196-15.939-12.78-25.706c-3.541-21.839-5.262-43.973-5.14-66.097c0.057-10.348-2.576-19.681-3.236-29.633
	C395.984,153.993,403.106,146.836,409.323,141.272z"/>
<path style="fill:#1C75A1;" d="M432.726,268.845c-4.153,0-5.272-0.518-5.385-0.579c-0.317-0.25-2.198-2.147-3.9-12.63
	c-3.366-20.758-5.013-41.95-4.897-62.989c0.043-7.476-1-14.252-1.918-20.228c-0.549-3.567-1.07-6.952-1.314-10.154
	c0.448-0.921,1.912-2.927,6.51-7.044c10.044-8.983,15.112-9.952,16.822-9.952c0.36,0,0.674,0.037,0.994,0.122
	c1.058,0.281,4.052,1.768,9.056,9.452c5.723,8.8,8.422,16.026,8.239,22.088c-0.14,4.696-2.079,10.361-4.135,16.368l-0.543,1.586
	c-8.083,23.759-14.374,48.329-18.697,73.045c-0.058,0.323-0.113,0.628-0.165,0.915C433.171,268.845,432.948,268.845,432.726,268.845
	z"/>
<path style="fill:#27A2DB;" d="M66.352,141.272c-9.811-8.781-22.429-17.379-35.149-13.981c-8.704,2.325-15.006,9.784-19.92,17.335
	c-6.417,9.861-11.618,21.109-11.266,32.868c0.241,8.064,3.068,15.792,5.668,23.43c7.793,22.9,13.811,46.405,17.981,70.233
	c1.034,5.907,2.636,12.763,8.114,15.202c2.059,0.917,4.372,1.029,6.624,1.116c6.691,0.259,13.8,0.312,19.543-3.131
	c8.486-5.089,11.196-15.939,12.78-25.706c3.541-21.839,5.262-43.973,5.14-66.097c-0.057-10.348,2.576-19.681,3.236-29.633
	C79.692,153.993,72.569,146.836,66.352,141.272z"/>
<path style="fill:#1C75A1;" d="M42.95,268.845c4.153,0,5.272-0.518,5.385-0.579c0.317-0.25,2.198-2.147,3.9-12.63
	c3.366-20.758,5.013-41.95,4.897-62.989c-0.043-7.476,1-14.252,1.918-20.228c0.549-3.567,1.07-6.952,1.314-10.154
	c-0.448-0.921-1.912-2.927-6.51-7.044c-10.044-8.983-15.111-9.952-16.822-9.952c-0.36,0-0.674,0.037-0.994,0.122
	c-1.058,0.281-4.052,1.768-9.056,9.452c-5.723,8.8-8.422,16.026-8.239,22.088c0.14,4.696,2.08,10.361,4.135,16.368l0.543,1.586
	c8.083,23.759,14.374,48.329,18.697,73.045c0.058,0.323,0.113,0.628,0.165,0.915C42.505,268.845,42.727,268.845,42.95,268.845z"/>
<g>
	
		<ellipse transform="matrix(-0.9909 -0.1348 0.1348 -0.9909 828.1235 489.2553)" style="fill:#3A556A;" cx="430.624" cy="216.594" rx="5.875" ry="22.253"/>
	
		<ellipse transform="matrix(-0.1348 -0.9909 0.9909 -0.1348 -162.53 291.2381)" style="fill:#3A556A;" cx="45.886" cy="216.578" rx="22.253" ry="5.875"/>
</g>
<path style="fill:#27A2DB;" d="M387.553,396.736c0,0-20.795,13.551-47.272,29.162c-36.032,21.107-82.679,46.085-102.474,46.085
	c-21.482,0-74.561-29.412-111.404-51.456h-0.063c-22.044-13.239-38.217-23.792-38.217-23.792
	c-90.672-49.582-44.462-158.239-44.462-158.239c19.171-27.351,27.789-61.01,31.535-81.742c0.125-0.562,0.187-1.186,0.312-1.749
	c1.436-8.618,1.686-17.36,1.811-26.102c0.25-24.791,16.361-46.523,23.23-54.703c2.498-2.935,4.746-5.995,7.056-9.117
	C149.508,8.446,207.77,3.45,229.377,3.7c5.682,0.063,11.24,0.063,16.923,0c21.606-0.25,79.869,4.746,121.77,61.385
	c2.248,3.122,4.558,6.182,7.056,9.117c6.869,8.18,22.981,29.912,23.23,54.703c0.063,6.807,0.312,13.676,1.061,20.42
	c0.25,2.498,0.625,4.996,1.062,7.431c3.747,20.732,12.364,54.39,31.535,81.742C432.015,238.498,478.225,347.154,387.553,396.736z"/>
<polygon style="fill:#3A556A;" points="356.129,314.611 345.889,335.965 321.538,381.171 313.92,392.347 309.424,396.219 
	295.625,408.082 265.155,418.759 219.949,422.818 171.684,404.523 165.065,395.344 137.927,351.787 116.051,306.244 
	123.044,309.491 159.009,333.967 186.419,337.464 210.646,336.027 237.807,334.466 263.594,336.464 276.831,337.464 
	316.418,335.465 "/>
<g>
	<path style="fill:#1C75A1;" d="M344.313,243.941c4.833,3.534,9.562,7.661,11.835,13.2c-4.347,0.36-8.39-4.689-12.318-6.585
		c-7.646-3.692-10.244-7.262-17.477-11.71c-6.184-3.802-21.918-6.429-25.1-13.07C312.231,221.172,336.296,238.078,344.313,243.941z"
		/>
	<path style="fill:#1C75A1;" d="M131.363,243.941c-4.833,3.534-9.562,7.661-11.835,13.2c4.347,0.36,8.39-4.689,12.319-6.585
		c7.646-3.692,10.244-7.262,17.477-11.71c6.184-3.802,21.918-6.429,25.1-13.07C163.445,221.172,139.38,238.078,131.363,243.941z"/>
</g>
<path style="fill:#2D93BA;" d="M303.788,222.057c7.428,2.298,13.574,7.618,18.566,13.58c4.487,5.358,8.328,11.616,9.04,18.568
	c1.066,10.401-5.531,20.766-14.861,25.483c-9.33,4.717-20.781,4.205-30.36,0.015c-7.427-3.249-13.485-4.613-21.38-6.451
	c-3.312-0.771-8.421,11.16-11.82,11.041c-12.016-0.418-24.033-0.837-36.049-1.255c-5.026-0.175-12.221-13.806-16.897-11.957
	c-5.614,2.219-6.614,4.501-11.901,7.415c-8.681,4.785-19.494,3.919-28.853,0.655c-3.712-1.295-7.422-3.028-9.991-6.004
	c-1.902-2.204-3.059-4.96-3.843-7.763c-2.457-8.78-1.366-18.602,3.423-26.361c4.788-7.759,13.326-13.216,22.425-13.788
	c2.969-0.187,5.967,0.12,8.912-0.297c10.642-1.509,17.554-11.588,26.177-18.006c8.555-6.367,19.42-9.279,30.082-9.038
	c10.661,0.241,21.12,3.502,30.554,8.475c3.506,1.848,6.9,4.123,9.653,6.995c3.055,3.189,3.191,6.762,5.279,10.106
	c1.493,2.391,0.679,1.685,3.305,0.599c1.983-0.82,3.677-1.916,5.81-2.447C295.216,220.586,299.703,220.793,303.788,222.057z"/>
<g>
	<path style="fill:#3A556A;" d="M257.197,200.362c-3.501-1.571-7.112-2.96-10.882-3.673c-3.931-0.744-7.973-0.741-11.956-0.365
		c-21.761,2.052-42.038,15.944-51.811,35.496c0,0,30.05-26.318,51.811-28.37c3.983-0.376,8.025-0.378,11.956,0.365
		c3.77,0.713,7.381,2.102,10.882,3.673c14.531,6.521,34.069,24.686,34.069,24.686C285.298,217.407,271.727,206.883,257.197,200.362z
		"/>
	<path style="fill:#3A556A;" d="M291.965,263.767c-3.045-2.504-6.45-5.141-10.392-5.091c-4.352,0.055-7.892,3.34-11.004,6.382
		c-4.923,4.813-9.994,9.574-15.925,13.071c-5.93,3.497-12.811,4.888-19.696,4.888c-6.884,0-13.765-1.39-19.696-4.888
		c-5.931-3.497-11.002-8.258-15.925-13.071c-3.112-3.042-6.652-6.327-11.004-6.382c-3.942-0.05-7.346,2.587-10.392,5.091
		c-1.611,1.325-0.203,4.805,1.789,5.422c1.992,0.617,4.132,0.043,6.217-0.008c5.348-0.131,10.141,3.172,14.161,6.702
		c4.02,3.53,7.874,7.538,12.903,9.364c2.86,1.038,5.934,1.301,8.966,1.555c4.089,0.342,8.878,1.027,12.981,1.027
		c4.103,0,8.892-0.685,12.981-1.027c3.032-0.254,6.106-0.517,8.966-1.555c5.028-1.826,8.883-5.834,12.903-9.364
		c4.02-3.53,8.813-6.834,14.161-6.702c2.085,0.051,4.225,0.625,6.217,0.008C292.168,268.572,293.575,265.091,291.965,263.767z"/>
</g>
<path style="fill:#64798A;" d="M180.361,454.279c3.686,2.878,7.478,5.692,11.7,8.059c14.106,7.911,32.226,10.3,49.413,9.048
	c23.03-1.678,46.213-10.329,58.464-25.929c5.484-6.983,8.57-14.995,13.702-22.144c2.613-3.64,10.045-10.864,10.045-10.864
	c-4.045,2.11-7.433,4.851-10.045,7.711c-5.132,5.618-8.219,11.914-13.702,17.401c-12.251,12.258-35.435,19.056-58.464,20.375
	c-17.188,0.984-35.307-0.894-49.413-7.109c-4.222-1.86-8.014-4.072-11.7-6.333c-11.693-7.175-22.682-15.18-28.372-24.78l0.859,3.121
	C158.538,435.052,168.668,445.147,180.361,454.279z"/>
<path style="fill:#F6A74B;" d="M264.346,337.225l-12.427,12.427c-8.305,8.305-21.731,8.305-30.037,0l-12.427-12.427l1.186-1.186
	l27.164-1.561l25.79,1.998L264.346,337.225z"/>
<path style="fill:#3A556A;" d="M332.172,129.667c-18.006,33.663-53.475,56.547-94.305,56.547c-40.829,0-76.359-22.883-94.364-56.547
	c17.945-33.663,53.475-56.606,94.364-56.606C278.697,73.061,314.227,96.005,332.172,129.667z"/>
<path style="fill:#D5D6DB;" d="M288.995,129.651c0,12.526-4.516,24.088-12.044,33.001c-9.394,11.141-23.425,18.186-39.143,18.186
	c-28.243,0-51.187-22.944-51.187-51.187c0-18.728,10.057-35.108,25.052-44.021c7.648-4.577,16.56-7.166,26.135-7.166
	C266.111,78.464,288.995,101.348,288.995,129.651z"/>
<path style="fill:#E1E6E9;" d="M288.995,129.651c0,12.526-4.516,24.088-12.044,33.001c-7.648,4.576-16.621,7.226-26.195,7.226
	c-28.303,0-51.187-22.944-51.187-51.187c0-12.586,4.577-24.148,12.104-33.061c7.648-4.577,16.56-7.166,26.135-7.166
	C266.111,78.464,288.995,101.348,288.995,129.651z"/>
<circle style="fill:#3A556A;" cx="237.807" cy="129.65" r="27.099"/>
<circle style="fill:#FCD462;" cx="237.807" cy="129.65" r="17.62"/>
<circle style="fill:#64798A;" cx="237.807" cy="129.65" r="10.571"/>
<g>
	<circle style="fill:#E1E6E9;" cx="243.239" cy="124.667" r="4.433"/>
	<circle style="fill:#E1E6E9;" cx="232.281" cy="133.627" r="2.828"/>
</g>
<g>
	<path style="fill:#64798A;" d="M324.463,151.435c1.983-2.334,3.916-4.71,5.799-7.126c2.33-2.989,4.606-6.08,6.043-9.586
		c1.438-3.506,1.977-7.51,0.763-11.1c-1.533-4.532-6.183-9.309-10.176-11.679c-1.273,2.196,0.844,5.798,1.362,8.113
		c0.809,3.612,1.184,7.319,1.135,11.02C329.312,136.891,328.44,146.763,324.463,151.435z"/>
	<path style="fill:#64798A;" d="M151.212,151.435c-1.983-2.334-3.916-4.71-5.799-7.126c-2.33-2.989-4.606-6.08-6.043-9.586
		s-1.977-7.51-0.763-11.1c1.533-4.532,6.183-9.309,10.176-11.679c1.273,2.196-0.844,5.798-1.362,8.113
		c-0.809,3.612-1.184,7.319-1.135,11.02C146.363,136.891,147.236,146.763,151.212,151.435z"/>
</g>
<g>
	<path style="fill:#2D93BA;" d="M387.553,396.736c0,0-20.795,13.551-47.272,29.162c4.309-12.177,10.303-23.729,17.797-34.22
		c13.613-19.171,32.222-35.282,40.403-57.326c13.239-35.657-4.621-74.686-5.932-112.653c-0.5-13.363,1.186-26.664,2.623-39.903
		c0.749-7.244-1.186-26.102,4.246-32.472c0.25,2.498,0.625,4.996,1.062,7.431c3.747,20.732,12.364,54.39,31.535,81.742
		C432.015,238.498,478.225,347.154,387.553,396.736z"/>
	<path style="fill:#2D93BA;" d="M126.34,420.528c-22.044-13.239-38.217-23.792-38.217-23.792
		c-90.672-49.582-44.462-158.239-44.462-158.239c19.171-27.351,27.789-61.01,31.535-81.742c0.125-0.562,0.187-1.186,0.312-1.749
		c6.869,1.811,6.994,12.427,7.743,19.92c2.31,21.981-2.623,44.212-8.118,65.381c-8.18,31.785-17.298,66.13-4.996,96.542
		c5.058,12.552,13.426,23.417,21.731,34.096c8.056,10.428,16.174,20.795,24.229,31.223
		C120.283,407.54,124.529,414.096,126.34,420.528z"/>
</g>
<path style="fill:#E56353;" d="M309.424,396.219l-13.799,11.864l-30.47,10.677l-45.206,4.059l-48.265-18.295l-6.619-9.179
	c10.053-12.55,23.227-20.23,37.838-20.23c12.737,0,24.538,5.932,33.967,15.86c9.49-9.928,21.229-15.86,34.029-15.86
	C285.76,375.114,299.309,383.169,309.424,396.219z"/>
<g>
	<path style="fill:#2D93BA;" d="M212.847,40.013c13.947-1.986,28.106-1.69,42.191-1.39c1.811,0.039,3.731,0.109,5.244,1.105
		c1.513,0.996,2.33,3.274,1.172,4.667c-14.066-0.472-28.139-0.723-42.212-0.753c-5.468-0.012-11.003,0.018-16.299,1.377
		c-4.239,1.088-8.214,2.999-12.157,4.898c-1.862,0.897-9.109,5.723-10.768,4.225c-3.247-2.931,4.93-6.116,6.092-6.652
		C194.553,43.593,203.681,41.381,212.847,40.013z"/>
	<path style="fill:#2D93BA;" d="M144.32,88.213c-2.969,4.454-5.939,8.909-8.908,13.363c-0.532,0.799-0.983,2.054-0.165,2.556
		c0.309,0.19,0.697,0.175,1.057,0.132c1.992-0.241,3.842-1.188,5.451-2.387c4.409-3.285,7.105-8.321,9.661-13.189
		c1.688-3.216,3.377-6.432,5.065-9.647c0.938-1.786,4.323-6.044,3.162-8.011C153.235,73.002,147.817,82.966,144.32,88.213z"/>
	<path style="fill:#2D93BA;" d="M303.812,57.03c5.3,2.985,10.707,6.056,14.726,10.622c1.989,2.259,3.587,4.83,5.175,7.388
		c4.488,7.228,8.975,14.456,13.463,21.684c1.731,2.788,3.513,5.73,3.702,9.006c-6.991-1.218-11.715-7.893-14.182-14.547
		c-1.51-4.073-2.556-8.481-5.387-11.777c-1.217-1.417-2.714-2.561-4.209-3.68c-7.894-5.904-16.095-11.398-24.557-16.453
		c-2.042-1.22-4.162-2.471-5.543-4.407c-2.678-3.756-0.949-7.707,3.501-5.333C294.989,51.926,299.379,54.533,303.812,57.03z"/>
	<path style="fill:#2D93BA;" d="M155.846,58.773c6.089-4.297,6.112-4.816,10.916-10.514c0.4-0.475,0.848-0.986,1.461-1.09
		c1.127-0.193,1.989,1.209,1.739,2.324c-0.25,1.115-1.174,1.932-2.042,2.677c-4.92,4.219-9.63,8.683-14.106,13.369
		c-1.668,1.746-3.501,3.63-5.894,3.955c0.004-2.154-1.208-4.571,0.09-6.29c0.467-0.618,1.179-0.993,1.867-1.349
		C151.866,60.828,153.856,59.8,155.846,58.773"/>
	<path style="fill:#2D93BA;" d="M182.748,36.29c6.256-3.365,12.651-6.472,19.162-9.311c2.198-0.958,4.428-1.892,6.779-2.363
		c2.091-0.419,4.236-0.462,6.369-0.505c6.526-0.13,13.052-0.26,19.579-0.39c0.964,1.597-0.747,3.504-2.423,4.322
		c-3.93,1.919-8.461,2.006-12.824,2.313c-14.106,0.992-28.016,4.691-40.752,10.836c-0.534-1.885,1.331-3.622,3.181-4.268
		s3.953-0.788,5.472-2.026"/>
	<path style="fill:#2D93BA;" d="M275.178,28.369c5.592,1.334,10.594,4.396,15.489,7.412c0.36,0.222,0.753,0.489,0.832,0.904
		c0.127,0.664-0.605,1.153-1.245,1.372c-3.615,1.237-7.572,0.266-11.266-0.711c-6.263-1.656-12.527-3.312-18.79-4.968
		c-2.399-0.634-7.836-1.923-8.402-4.989c-0.415-2.245,1.422-2.172,3.339-2.089c2.951,0.128,5.864,1.081,8.775,1.516
		C267.658,27.375,271.481,27.487,275.178,28.369z"/>
	<path style="fill:#2D93BA;" d="M326.874,57.924c3.785,3.412,5.974,8.318,6.941,13.321c-3.797,0.661-7.908-1.237-9.87-4.554
		c-0.646-1.092-1.067-2.3-1.645-3.429c-1.115-2.181-7.638-8.04-5.712-9.963C318.948,50.942,325.263,56.472,326.874,57.924z"/>
</g>
<g>
	<path style="fill:#E1E6E9;" d="M209.456,362.098c-4.377,4.377-20.382,4.377-24.759,0c-3.227-3.227,0-18.257,0-18.257h24.759
		C209.456,343.841,212.684,358.871,209.456,362.098z"/>
	<path style="fill:#E1E6E9;" d="M225.384,392.459c-3.187-5.306-18.717-9.18-24.023-5.992c-3.913,2.35-4.419,17.714-4.419,17.714
		l24.023,5.992C220.965,410.173,227.734,396.372,225.384,392.459z"/>
	<path style="fill:#E1E6E9;" d="M248.419,397.834c3.187-5.306,18.717-9.18,24.023-5.992c3.913,2.35,4.419,17.714,4.419,17.714
		l-24.023,5.992C252.837,415.548,246.068,401.747,248.419,397.834z"/>
	<path style="fill:#E1E6E9;" d="M191.279,385.404c-3.187-5.306-18.717-9.18-24.023-5.992c-3.913,2.35-4.419,17.714-4.419,17.714
		l24.023,5.992C186.861,403.118,193.63,389.316,191.279,385.404z"/>
	<path style="fill:#E1E6E9;" d="M280.738,387.626c3.187-5.306,18.717-9.18,24.023-5.992c3.913,2.35,4.419,17.714,4.419,17.714
		l-24.023,5.992C285.157,405.34,278.388,391.539,280.738,387.626z"/>
	<path style="fill:#E1E6E9;" d="M169.126,359.363c-4.597,1.83-16.348-3.229-18.178-7.826c-1.349-3.39,5.771-13.404,5.771-13.404
		l18.178,7.826C174.897,345.959,172.516,358.014,169.126,359.363z"/>
	<path style="fill:#E1E6E9;" d="M314.951,359.363c4.597,1.83,16.348-3.229,18.178-7.826c1.349-3.39-5.771-13.404-5.771-13.404
		l-18.178,7.826C309.18,345.959,311.561,358.014,314.951,359.363z"/>
	<path style="fill:#E1E6E9;" d="M299.817,362.098c-4.377,4.377-20.382,4.377-24.759,0c-3.227-3.227,0-18.257,0-18.257h24.759
		C299.817,343.841,303.045,358.871,299.817,362.098z"/>
</g>
<g>
	<path style="fill:#2D93BA;" d="M370.545,298.745c-4.057,5.889-11.02,10.278-17.52,13.866
		c-14.011,7.733-28.456,15.612-44.334,17.611c-18.602,2.342-37.161-3.615-55.86-4.987c-16.079-1.18-32.222,1.047-48.034,4.195
		c-9.21,1.834-18.501,3.993-27.875,3.442c-16.949-0.996-32.006-10.625-46.192-19.953c-5.498-3.616-10.997-8.415-16.495-13.077
		c-0.482,0.798-1.028,1.555-1.6,2.292c6.032,7.289,12.064,15.1,18.095,20.809c14.186,13.426,29.243,27.286,46.192,28.719
		c9.374,0.793,18.665-2.315,27.875-4.954c15.812-4.531,31.955-7.736,48.034-6.038c18.699,1.975,37.257,10.549,55.86,7.178
		c15.878-2.878,30.323-14.218,44.334-25.349c6.902-5.483,14.38-12.223,18.283-21.519
		C371.021,300.244,370.768,299.505,370.545,298.745z"/>
	<path style="fill:#2D93BA;" d="M371.595,301.622c-11.054,11.126-20.706,23.705-28.486,37.422
		c-6.441,11.354-11.688,23.498-19.55,33.875c-18.791,24.805-50.549,36.417-81.227,37.598c-33.457,1.289-69.101-9.883-89.801-36.769
		c-9.339-12.13-15.118-26.636-22.075-40.335c-5.332-10.499-8.909-22.578-17.466-30.362c-0.237,0.221-0.46,0.455-0.708,0.667
		c8.907,9.574,12.699,24.246,18.174,37.399c6.957,16.715,12.736,34.414,22.075,49.214c20.7,32.805,56.345,46.436,89.801,44.864
		c30.678-1.441,62.436-15.609,81.227-45.875c7.862-12.663,13.109-27.48,19.55-41.334c7.828-16.84,17.547-32.281,28.687-45.917
		C371.729,301.921,371.659,301.774,371.595,301.622z"/>
</g>
<g>
	<path style="fill:#64798A;" d="M363.422,294.866c1.543,0.9,3.071,1.831,4.501,2.901c9.314,6.97,13.457,20.124,9.819,31.173
		c1.004-3.048-10.382-17.174-12.267-20.032c-2.856-4.331-12.452-14.051-11.594-18.804
		C357.211,291.164,360.357,293.077,363.422,294.866z"/>
	<path style="fill:#64798A;" d="M113.466,294.866c-1.543,0.9-3.071,1.831-4.501,2.901c-9.314,6.97-13.457,20.124-9.819,31.173
		c-1.004-3.048,10.382-17.174,12.267-20.032c2.856-4.331,12.452-14.051,11.594-18.804
		C119.677,291.164,116.53,293.077,113.466,294.866z"/>
</g>
<g>
</g>
<g>
</g>
<g>
</g>
<g>
</g>
<g>
</g>
<g>
</g>
<g>
</g>
<g>
</g>
<g>
</g>
<g>
</g>
<g>
</g>
<g>
</g>
<g>
</g>
<g>
</g>
<g>
</g>
</svg>
