<?xml version="1.0" encoding="iso-8859-1"?>
<!-- Generator: Adobe Illustrator 19.0.0, SVG Export Plug-In . SVG Version: 6.00 Build 0)  -->
<svg version="1.1" id="Capa_1" xmlns="http://www.w3.org/2000/svg" xmlns:xlink="http://www.w3.org/1999/xlink" x="0px" y="0px"
	 viewBox="0 0 468.293 468.293" style="enable-background:new 0 0 468.293 468.293;" xml:space="preserve">
<path style="fill:#22938D;" d="M45.877,278.091c-1.209-0.628-2.444-1.204-3.692-1.754c-2.781-1.225-5.091-3.364-6.377-6.117
	c-0.007-0.015-0.014-0.031-0.022-0.046c-3.672-7.881-5.468-17.169-5.654-29.23c-0.016-1.057-0.045-2.166-0.074-3.314
	c-0.206-7.985-0.463-17.922,2.917-25.251c0.933-2.023,2.01-3.847,3.052-5.612c0.64-1.085,1.245-2.11,1.801-3.151
	c0.538-1.007,1.051-2.064,1.594-3.183c1.927-3.969,4.112-8.469,7.982-11.454c3.515-2.711,8.945-4.266,14.897-4.266
	c4.239,0,8.264,0.783,11.331,2.205c3.151,1.46,5.61,3.848,7.779,5.954c1.479,1.435,3.031,2.777,4.532,4.074
	c5.135,4.438,10.445,9.026,13.054,17.524c2.734,8.907,5.255,18.045,7.693,26.882c1.233,4.469,2.465,8.936,3.727,13.385
	c1.933,6.813,3.931,13.859,4.324,21.435c0.466,8.985-1.615,17.074-5.86,22.777c-4.633,6.224-12.054,9.794-20.359,9.794
	c-1.713,0-3.439-0.155-5.129-0.461c-0.055-0.01-0.111-0.02-0.166-0.03c-7.904-1.472-14.696-6.412-18.987-13.211
	C59.758,287.935,53.543,282.071,45.877,278.091z"/>
<path style="fill:#63C7C5;" d="M88.524,303.214c6.541,0,12.346-2.758,15.926-7.567c3.478-4.673,5.174-11.488,4.774-19.19
	c-0.361-6.954-2.273-13.694-4.123-20.213c-1.262-4.452-2.495-8.92-3.729-13.39l-0.025-0.092c-2.423-8.781-4.928-17.86-7.633-26.672
	c-2.143-6.977-6.425-10.677-11.383-14.962c-1.56-1.348-3.173-2.741-4.769-4.291c-1.945-1.888-3.955-3.84-6.253-4.905
	c-2.321-1.076-5.604-1.693-9.007-1.693c-4.685,0-8.992,1.165-11.522,3.115c-2.842,2.192-4.643,5.903-6.385,9.491
	c-0.572,1.178-1.105,2.277-1.691,3.373c-0.611,1.144-1.245,2.218-1.915,3.354c-1.023,1.734-1.981,3.356-2.794,5.119
	c-2.84,6.159-2.602,15.383-2.411,22.793c0.031,1.183,0.059,2.304,0.076,3.372c0.173,11.256,1.806,19.83,5.137,26.98
	c0.708,1.514,1.985,2.721,3.617,3.44c1.507,0.664,2.819,1.288,4.011,1.907c8.331,4.326,15.417,10.863,20.492,18.904
	c3.578,5.67,9.164,9.58,15.324,10.727l0.128,0.023C85.745,303.089,87.14,303.214,88.524,303.214z"/>
<g>
	<path style="fill:#22938D;" d="M64.398,219.965c-4.347-1.306-9.594-0.394-12.336,3.465c-2.749,3.871-2.226,9.39-0.76,14.001
		c1.466,4.61,3.752,9.007,4.183,13.858c0.192,2.159,0.012,4.38,0.581,6.461c0.497,1.816,1.531,3.398,2.548,4.943
		c1.423,2.161,2.846,4.322,4.269,6.483c5.993,9.1,13.451,19.103,23.802,19.569c5.38,0.242,10.804-2.452,14.125-7.017
		s4.45-10.88,2.943-16.446c-0.895-3.304-2.628-6.259-4.34-9.166C91.475,242.635,79.724,224.568,64.398,219.965z"/>
	<path style="fill:#22938D;" d="M61.001,225.785c-0.624-1.271-1.249-2.541-1.873-3.812c-1.882-3.828-3.806-7.802-4.26-12.234
		c-0.338-3.303,0.167-6.638,0.67-9.909c0.606-3.945,1.401-9.983,4.446-12.134c1.465,4.247-1.783,12.668-1.924,17.508
		C57.855,212.216,58.827,219.285,61.001,225.785z"/>
	<path style="fill:#22938D;" d="M56.151,233.48c-0.951-1.009-1.902-2.018-2.853-3.027c-2.866-3.04-5.812-6.204-7.486-10.284
		c-1.247-3.04-1.699-6.384-2.135-9.666c-0.526-3.958-1.458-9.974,0.844-13.013c2.585,3.574,1.845,12.658,3.065,17.319
		C49.354,221.562,52.259,227.987,56.151,233.48z"/>
</g>
<path style="fill:#344D5E;" d="M65.539,264.209c0.856,1.257,1.957,2.324,3.052,3.38c1.033,0.997,2.152,2.04,3.564,2.305
	c1.109,2.446,2.525,4.753,4.205,6.849c0.94,1.173,2.165,2.372,3.667,2.323c1.837-0.059,3.119-2.134,2.88-3.956
	c-0.239-1.822-1.579-3.318-3.067-4.397c-1.488-1.079-3.176-1.867-4.616-3.009c-1.605-1.274-2.852-2.953-3.84-4.748
	c-2.544-4.624-2.192-8.757-2.652-13.74c-0.167-1.811-1.138-7.662-3.719-7.973C60.315,240.677,63.426,261.104,65.539,264.209z"/>
<path style="fill:#22938D;" d="M422.416,278.091c1.209-0.628,2.444-1.204,3.692-1.754c2.781-1.225,5.091-3.364,6.377-6.117
	c0.007-0.015,0.014-0.031,0.022-0.046c3.672-7.881,5.468-17.169,5.654-29.23c0.016-1.057,0.045-2.166,0.074-3.314
	c0.206-7.985,0.463-17.922-2.917-25.251c-0.933-2.023-2.01-3.847-3.052-5.612c-0.64-1.085-1.245-2.11-1.801-3.151
	c-0.538-1.007-1.051-2.064-1.594-3.183c-1.927-3.969-4.112-8.469-7.982-11.454c-3.515-2.711-8.945-4.266-14.897-4.266
	c-4.239,0-8.264,0.783-11.332,2.205c-3.151,1.46-5.61,3.848-7.779,5.954c-1.479,1.435-3.031,2.777-4.532,4.074
	c-5.135,4.438-10.445,9.026-13.054,17.524c-2.734,8.907-5.255,18.045-7.693,26.882c-1.233,4.469-2.465,8.936-3.727,13.385
	c-1.933,6.813-3.931,13.859-4.324,21.435c-0.466,8.985,1.615,17.074,5.86,22.777c4.633,6.224,12.054,9.794,20.359,9.794
	c1.713,0,3.439-0.155,5.129-0.461c0.055-0.01,0.111-0.02,0.166-0.03c7.904-1.472,14.696-6.412,18.987-13.211
	C408.535,287.935,414.75,282.071,422.416,278.091z"/>
<path style="fill:#63C7C5;" d="M379.769,303.214c-6.541,0-12.346-2.758-15.926-7.567c-3.478-4.673-5.174-11.488-4.774-19.19
	c0.361-6.954,2.273-13.694,4.123-20.213c1.262-4.452,2.495-8.92,3.729-13.39l0.025-0.092c2.423-8.781,4.928-17.86,7.633-26.672
	c2.142-6.977,6.425-10.677,11.383-14.962c1.56-1.348,3.173-2.741,4.769-4.291c1.945-1.888,3.955-3.84,6.253-4.905
	c2.321-1.076,5.604-1.693,9.007-1.693c4.685,0,8.992,1.165,11.522,3.115c2.842,2.192,4.643,5.903,6.385,9.491
	c0.572,1.178,1.105,2.277,1.691,3.373c0.611,1.144,1.245,2.218,1.915,3.354c1.023,1.734,1.981,3.356,2.794,5.119
	c2.84,6.159,2.602,15.383,2.411,22.793c-0.031,1.183-0.059,2.304-0.076,3.372c-0.173,11.256-1.806,19.83-5.137,26.98
	c-0.708,1.514-1.985,2.721-3.617,3.44c-1.507,0.664-2.819,1.288-4.011,1.907c-8.331,4.326-15.417,10.863-20.492,18.904
	c-3.578,5.67-9.164,9.58-15.324,10.727l-0.128,0.023C382.547,303.089,381.153,303.214,379.769,303.214z"/>
<g>
	<path style="fill:#22938D;" d="M403.895,219.965c4.347-1.306,9.594-0.394,12.336,3.465c2.749,3.871,2.226,9.39,0.76,14.001
		c-1.466,4.61-3.752,9.007-4.183,13.858c-0.192,2.159-0.012,4.38-0.581,6.461c-0.497,1.816-1.531,3.398-2.548,4.943
		c-1.423,2.161-2.846,4.322-4.269,6.483c-5.993,9.1-13.451,19.103-23.802,19.569c-5.38,0.242-10.804-2.452-14.125-7.017
		s-4.45-10.88-2.943-16.446c0.895-3.304,2.628-6.259,4.34-9.166C376.818,242.635,388.568,224.568,403.895,219.965z"/>
	<path style="fill:#22938D;" d="M407.292,225.785c0.624-1.271,1.249-2.541,1.873-3.812c1.882-3.828,3.806-7.802,4.26-12.234
		c0.338-3.303-0.167-6.638-0.67-9.909c-0.606-3.945-1.401-9.983-4.446-12.134c-1.465,4.247,1.783,12.668,1.924,17.508
		C410.438,212.216,409.466,219.285,407.292,225.785z"/>
	<path style="fill:#22938D;" d="M412.142,233.48c0.951-1.009,1.902-2.018,2.853-3.027c2.865-3.04,5.812-6.204,7.486-10.284
		c1.247-3.04,1.699-6.384,2.135-9.666c0.526-3.958,1.458-9.974-0.844-13.013c-2.585,3.574-1.845,12.658-3.065,17.319
		C418.939,221.562,416.034,227.987,412.142,233.48z"/>
</g>
<path style="fill:#344D5E;" d="M402.753,264.209c-0.856,1.257-1.957,2.324-3.052,3.38c-1.033,0.997-2.152,2.04-3.564,2.305
	c-1.109,2.446-2.525,4.753-4.205,6.849c-0.94,1.173-2.165,2.372-3.667,2.323c-1.837-0.059-3.119-2.134-2.88-3.956
	c0.239-1.822,1.579-3.318,3.067-4.397c1.488-1.079,3.176-1.867,4.616-3.009c1.605-1.274,2.852-2.953,3.84-4.748
	c2.544-4.624,2.192-8.757,2.652-13.74c0.167-1.811,1.138-7.662,3.719-7.973C407.977,240.677,404.866,261.104,402.753,264.209z"/>
<path style="fill:#22938D;" d="M401.454,171.507c0,20.516-3.528,40.194-9.977,58.434c0,0-33.045,79.521-35.919,123.031
	c-0.967,14.537-5.14,28.715-12.759,41.133c-7.269,11.829-18.268,24.947-34.574,34.749c-13.266,7.978-25.518,17.476-36.481,28.393
	c-6.919,6.882-18.406,11.046-37.596,11.046c-19.189,0-30.677-4.164-37.596-11.046c-10.963-10.917-23.215-20.415-36.481-28.393
	c-16.306-9.802-27.305-22.92-34.574-34.749c-7.619-12.418-11.792-26.596-12.759-41.133c-2.874-43.51-35.919-123.031-35.919-123.031
	c-6.449-18.24-9.977-37.918-9.977-58.434c0-35.965,10.797-69.332,29.249-96.905c4.155-6.218,8.706-12.133,13.616-17.725
	c1.815-2.073,3.685-4.109,5.601-6.089C145.626,19.429,187.681,0,234.148,0c3.731,0,7.434,0.129,11.11,0.368
	c2.487,0.175,4.965,0.396,7.425,0.682c8.595,0.967,16.988,2.598,25.141,4.855C349.045,25.592,401.454,92.271,401.454,171.507z"/>
<path style="fill:#63C7C5;" d="M395.927,171.507c0,19.383-3.234,38.379-9.608,56.463c-2.036,4.901-33.404,81.216-36.278,124.643
	c-0.93,14.021-5.067,27.37-11.948,38.6c-8.549,13.92-19.558,24.993-32.722,32.907c-13.717,8.254-26.347,18.084-37.531,29.212
	c-6.375,6.347-17.402,9.433-33.69,9.433c-16.297,0-27.315-3.086-33.699-9.433c-11.175-11.129-23.805-20.958-37.531-29.212
	c-13.165-7.913-24.164-18.987-32.713-32.907c-6.891-11.23-11.018-24.579-11.948-38.6c-2.874-43.427-34.252-119.752-36.278-124.653
	c-6.375-18.075-9.608-37.071-9.608-56.453c0-32.879,9.36-63.556,25.491-89.36c4.026,2.727,7.766,5.813,11.193,9.507
	c1.234-4.044,2.515-8.171,4.965-11.617c2.46-3.445,6.329-6.154,10.557-6.108c4.763,0.046,9.037,3.482,13.791,3.362
	c7.13-0.193,11.396-7.775,14.224-14.316c5.214,0.617,9.894,3.427,14.242,6.366c4.348,2.939,8.669,6.126,13.68,7.674
	c5.021,1.557,11.018,1.161,14.813-2.469c3.796-3.63,3.943-10.898-0.543-13.625c11.764-2.635,23.98-3.298,35.965-1.944
	c-1.796-6.071-5.251-11.644-9.894-15.947c10.502-1.732,21.198-2.386,31.838-1.944c0.166-5.758-1.907-11.552-5.684-15.891
	c8.66-2.119,17.504-3.491,26.403-4.1c-0.47-3.169-1.732-10.023-0.562-10.769C343.425,28.171,395.927,93.662,395.927,171.507z"/>
<path style="fill:#1A8981;" d="M325.323,371.784c-0.286,1.566-0.682,3.363-1.852,4.956c-1.105,1.511-2.644,2.423-3.703,2.976
	c-2.957,1.548-6.329,2.386-9.774,2.423h-0.258c-3.547,0-7.038-0.848-10.088-2.451c-1.677-0.884-3.16-1.953-4.606-2.976
	c-0.599-0.433-1.198-0.866-1.815-1.281c-0.672-0.451-1.363-0.894-2.073-1.299c-4.873-2.874-10.355-4.846-15.219-6.486
	c-10.852-3.657-25.14-7.867-39.475-7.867c-4.265,0-8.411,0.378-12.326,1.115c-3.62,0.682-7.195,1.713-10.723,2.92
	c-4.081,1.382-8.098,2.994-12.041,4.588l-7.305,2.939l-12.022,4.836l-7.794,3.141c-2.57,1.041-5.214,2.1-8.006,2.819
	c-1.216,0.322-2.469,0.58-3.759,0.737c-0.921,0.111-1.842,0.175-2.745,0.175c-4.035,0-7.628-1.124-10.382-3.234
	c-1.916-1.483-3.528-3.51-4.781-6.034c-2.69-5.389-3.28-12.179-1.649-19.106c1.465-6.264,4.523-12.031,7.315-16.84
	c1.419-2.451,3.003-5.012,5.334-6.983c4.118-3.491,9.48-4.385,14.675-4.827c4.192-0.359,8.457-0.543,12.667-0.543
	c12.335,0,24.063,1.502,34.85,4.477c2.404,0.663,4.615,1.612,6.753,2.543c1.511,0.654,2.948,1.271,4.422,1.778
	c1.723,0.599,3.685,0.967,5.822,1.105c0.626,0.037,1.281,0.055,1.944,0.055c2.506,0,5.048-0.267,7.582-0.673
	c2.533-0.405,5.058-0.958,7.499-1.502c5.656-1.28,11.35-3.022,16.859-4.708c2.414-0.746,4.818-1.483,7.241-2.183
	c6.485-1.889,14.187-3.915,22.211-4.615c1.363-0.12,2.552-0.175,3.639-0.175c3.206,0,5.887,0.507,8.208,1.548
	c4.256,1.925,7.729,5.841,10.603,11.995C325.848,346.459,327.543,359.476,325.323,371.784z"/>
<path style="fill:#001D1E;" d="M319.123,370.549c-0.23,1.271-0.516,2.579-1.281,3.62c-0.663,0.903-1.63,1.538-2.625,2.054
	c-1.391,0.728-2.874,1.253-4.404,1.585c-4.146,0.903-8.614,0.368-12.372-1.612c-2.1-1.105-3.952-2.607-5.924-3.934
	c-0.47-0.313-0.949-0.626-1.437-0.921c-4.901-3.022-10.382-5.048-15.854-6.9c-16.499-5.564-34.113-9.83-51.221-6.587
	c-3.547,0.673-7.02,1.667-10.447,2.819c-4.044,1.363-8.015,2.957-11.967,4.551c-2.598,1.05-5.196,2.091-7.794,3.132
	c-4.072,1.64-8.135,3.28-12.206,4.919c-2.027,0.82-4.063,1.631-6.089,2.451c-3.224,1.29-6.486,2.598-9.922,3.141
	c-0.24,0.037-0.47,0.074-0.709,0.101c-3.685,0.451-7.646-0.129-10.594-2.395c-1.64-1.262-2.893-2.985-3.814-4.836
	c-2.515-5.048-2.653-11.027-1.363-16.518c1.281-5.491,3.906-10.567,6.734-15.44c1.262-2.183,2.607-4.376,4.523-6.006
	c0.746-0.636,1.566-1.161,2.423-1.603c3.04-1.585,6.67-2.091,10.143-2.395c1.004-0.083,2.018-0.157,3.031-0.221h0.009
	c6.642-0.433,13.432-0.387,20.184,0.184c7.315,0.608,14.583,1.833,21.511,3.74c0.175,0.046,0.359,0.101,0.534,0.157
	c3.473,1.032,6.633,2.764,10.042,3.943c2.018,0.7,4.155,1.069,6.338,1.207c0.719,0.046,1.437,0.064,2.165,0.064
	c5.085-0.018,10.336-1.115,14.989-2.165c0.654-0.147,1.317-0.304,1.971-0.461c7.213-1.75,14.252-4.127,21.373-6.209
	c2.285-0.663,4.569-1.299,6.882-1.87c4.588-1.152,9.231-2.054,13.948-2.469c1.382-0.12,2.791-0.193,4.192-0.138
	c2.008,0.074,3.998,0.405,5.831,1.234c4.182,1.879,6.882,6.016,8.826,10.18C319.612,347.343,321.159,359.255,319.123,370.549z"/>
<g>
	<path style="fill:#E1E6E9;" d="M180.836,356.325c-2.377,0.525-5.546,1.096-8.549,1.612c-0.442,0.074-0.875,0.147-1.299,0.221
		c-0.175,0.028-0.35,0.055-0.525,0.064c-4.081,0.378-7.683-2.828-7.683-7.011v-19.042c2.847-1.483,6.218-2.027,9.489-2.34
		c0.221-0.018,0.433-0.037,0.654-0.055c0.387-0.037,0.783-0.064,1.179-0.083c0.617-0.055,1.234-0.101,1.852-0.138h0.009
		l7.554,21.971C184.236,353.608,182.983,355.846,180.836,356.325z"/>
	<path style="fill:#E1E6E9;" d="M216.7,346.45l-13.155,1.916l-1.391,0.203c-0.148,0.018-0.295,0.037-0.442,0.037
		c-2.985,0.193-5.564-2.174-5.564-5.233v-13.634c5.472,0.451,10.917,1.253,16.214,2.432c0.627,0.138,1.253,0.276,1.879,0.442
		c1.152,0.258,2.285,0.553,3.418,0.866c0.175,0.046,0.359,0.101,0.534,0.157l1.603,8.485
		C220.182,344.184,218.773,346.155,216.7,346.45z"/>
	<path style="fill:#E1E6E9;" d="M252.997,349.444h-12.345c-1.999,0-3.63-1.575-3.685-3.574c-0.055-1.944-0.129-4.468-0.23-7.02
		c5.085-0.018,10.336-1.115,14.989-2.165c0.654-0.147,1.317-0.304,1.971-0.461l2.791,8.374
		C257.28,346.984,255.512,349.444,252.997,349.444z"/>
	<path style="fill:#E1E6E9;" d="M303.941,345.4l-13.312,2.718c-3.538,0.719-6.946-1.732-7.37-5.316
		c-0.488-4.146-1.05-9.636-1.308-14.657c1.548-0.387,3.095-0.746,4.652-1.069c0.608-0.129,1.216-0.249,1.824-0.359
		c2.469-0.461,4.956-0.82,7.471-1.041c1.382-0.12,2.791-0.193,4.192-0.138c2.598,4.597,5.546,10.511,6.697,15.403
		C307.267,342.968,305.977,344.985,303.941,345.4z"/>
	<path style="fill:#E1E6E9;" d="M310.814,377.809c-0.608,0.129-1.225,0.23-1.842,0.304c-0.608,0.074-1.225,0.111-1.842,0.111
		c-3.012,0.055-6.025-0.626-8.687-2.027c-2.1-1.105-3.952-2.607-5.924-3.934c-0.47-0.313-0.949-0.626-1.437-0.921l-0.433-5.675
		c-0.267-3.547,2.386-6.504,5.73-6.808c0.516-0.055,1.05-0.037,1.594,0.046l0.258,0.037l7.996,1.262
		c2.939,0.461,5.186,2.902,5.352,5.878C311.772,369.499,311.763,374.032,310.814,377.809z"/>
	<path style="fill:#E1E6E9;" d="M213.614,360.204l-0.055,0.47c-4.044,1.363-8.015,2.957-11.967,4.551
		c-2.598,1.05-5.196,2.091-7.794,3.132c-0.332-1.557-0.525-3.077-0.626-4.394c-0.166-2.202,1.05-4.238,3.022-5.14
		c0.194-0.092,0.387-0.175,0.599-0.24c0.378-0.12,0.783-0.249,1.207-0.378c2.948-0.903,6.762-1.981,9.959-2.856
		C211.025,354.511,213.973,357.035,213.614,360.204z"/>
	<path style="fill:#E1E6E9;" d="M181.592,373.276c-1.76,0.709-3.519,1.419-5.279,2.119c-0.267,0.111-0.544,0.221-0.811,0.332
		c-0.304,0.12-0.599,0.24-0.903,0.359c-2.929,1.17-5.905,2.294-9.019,2.782c-0.783-1.686-1.585-3.427-2.285-4.947
		c-1.115-2.432,0.092-5.306,2.616-6.2l7.563-2.681c2.275-0.811,4.791,0.295,5.721,2.524L181.592,373.276z"/>
</g>
<g>
	<path style="fill:#496070;" d="M172.287,357.938c-0.442,0.074-0.875,0.147-1.299,0.221c-0.175,0.028-0.35,0.055-0.525,0.064
		l-0.424-5.021l1.842-0.147L172.287,357.938z"/>
	<path style="fill:#496070;" d="M176.313,375.395c-0.267,0.111-0.544,0.221-0.811,0.332c-0.304,0.12-0.599,0.24-0.903,0.359
		l-1.686-4.919l1.741-0.599L176.313,375.395z"/>
	<path style="fill:#496070;" d="M288.87,337.394l-1.842,0.074l-0.424-10.392c0.608-0.129,1.216-0.249,1.824-0.359L288.87,337.394z"
		/>
	<path style="fill:#496070;" d="M174.434,334.805l-1.833,0.12l-0.332-5.094c0.221-0.018,0.433-0.037,0.654-0.055
		c0.387-0.037,0.783-0.064,1.179-0.083L174.434,334.805z"/>
	<path style="fill:#496070;" d="M214.563,337.366l-1.842,0.129l-0.359-5.325c0.627,0.138,1.253,0.276,1.879,0.442L214.563,337.366z"
		/>
	<polygon style="fill:#496070;" points="251.919,349.444 250.067,349.444 249.717,343.677 251.56,343.566 	"/>
	<path style="fill:#496070;" d="M298.727,367.546l-1.833,0.111l-0.516-8.798c0.516-0.055,1.05-0.037,1.594,0.046l0.258,0.037
		L298.727,367.546z"/>
	<path style="fill:#496070;" d="M308.971,378.113c-0.608,0.074-1.225,0.111-1.842,0.111l-0.359-6.274l1.842-0.111L308.971,378.113z"
		/>
	<path style="fill:#496070;" d="M203.545,348.366l-1.391,0.203c-0.148,0.018-0.295,0.037-0.442,0.037l-0.415-7.094l1.842-0.101
		L203.545,348.366z"/>
	<path style="fill:#496070;" d="M198.404,363.668l-1.833,0.138l-0.378-4.984c0.194-0.092,0.387-0.175,0.599-0.24
		c0.378-0.12,0.783-0.249,1.207-0.378L198.404,363.668z"/>
</g>
<path style="fill:#2EA09A;" d="M223.279,411.144c1.638-0.749,3.352-1.42,5.185-1.793c4.194-0.854,8.622-0.092,12.807,0.792
	c2.576,0.545,5.17,1.147,7.456,2.232c5.75,2.728,8.619,7.975,11.136,12.885c-2.334-0.043-4.488-0.927-6.613-1.691
	c-13.065-4.698-28.394-5.329-42.006-1.728c-1.366,0.361-2.601,0.876-3.687,1.551C210.903,418.307,217.073,413.982,223.279,411.144z"
	/>
<path style="fill:#85DDD9;" d="M262.992,434.004c0,11.018-13.404,19.954-29.94,19.954c-13.045,0-24.137-5.555-28.245-13.312
	c-1.096-2.082-1.695-4.311-1.695-6.642c0-11.018,13.404-19.945,29.94-19.945c2.607,0,5.14,0.221,7.554,0.645
	C253.485,416.934,262.992,424.727,262.992,434.004z"/>
<g>
	<path style="fill:#22938D;" d="M277.044,429.887c-1.572,1.235-2.622,3.001-3.636,4.724c-2.328,3.958-6.08,12.328-6.08,12.328
		s-0.852,1.192-1.538,3.179c-0.22,0.318-0.401,0.694-0.55,0.932c-0.814,1.302-1.537,2.653-2.191,4.042
		c-0.34,0.733-0.661,1.486-1.151,2.128c-1.491,1.953-4.265,2.557-5.79,4.483c1.204,0.258,2.409-0.341,3.495-0.921
		c1.259-0.672,2.517-1.343,3.775-2.015c0.614-0.328,1.228-0.664,1.814-1.038c0.188,1.023,0.483,2.084,0.947,3.18
		c4.308-6.828,8.091-13.989,11.302-21.397c0.635-1.465,1.251-2.946,2.067-4.319c1.798-3.026,6.02-4.7,7.27-7.693
		C284.299,426.249,279.208,428.187,277.044,429.887z"/>
	<path style="fill:#22938D;" d="M193.963,435.208c-1.194-1.348-7.295-6.615-9.325-5.616c-1.586,0.781,1.354,3.693,2.119,4.634
		c4.389,5.397,3.591,8.516,3.408,14.688c-0.041,1.388,0.902,2.632,2.259,2.923c3.946,0.845,11.021,4.678,5.478-7.264
		C196.453,441.452,196.244,437.783,193.963,435.208z"/>
</g>
<g>
	<path style="fill:#1A8981;" d="M223.998,309.776c0.86-0.353,1.632-0.917,2.229-1.629c0.896-1.068,1.374-2.417,1.833-3.733
		c0.524-1.502,1.048-3.005,1.573-4.507c0.771-2.209,1.544-4.425,2.038-6.713c0.437-2.023,1.951-8.752,0.437-10.492
		c-2.27-2.606-2.504,4.589-2.822,6.007c-0.806,3.589-1.876,7.112-2.86,10.655C226.063,300.671,224.767,309.46,223.998,309.776z"/>
	<path style="fill:#1A8981;" d="M186.63,288.822c-0.82,2.393-1.909,4.741-2.909,7.103c-0.369,0.872-1.687,6.731-2.469,6.941
		c0.874-0.235,1.66-0.611,2.267-1.086c0.912-0.712,1.397-1.611,1.864-2.489c0.533-1.002,1.066-2.003,1.6-3.005
		c0.784-1.473,1.57-2.95,2.073-4.475"/>
	<path style="fill:#1A8981;" d="M191.688,316.685c0.874-0.235,1.66-0.611,2.267-1.086c0.912-0.712,1.397-1.611,1.864-2.489
		c0.533-1.002,1.066-2.003,1.6-3.005c0.784-1.473,1.57-2.95,2.073-4.475c0.445-1.349,1.985-5.835,0.444-6.994
		c-2.309-1.738-2.547,3.059-2.87,4.004c-0.82,2.393-1.909,4.741-2.909,7.103C193.788,310.615,192.471,316.474,191.688,316.685z"/>
	<path style="fill:#1A8981;" d="M278.056,316.685c-0.874-0.235-1.66-0.611-2.267-1.086c-0.912-0.712-1.397-1.611-1.864-2.489
		c-0.533-1.002-1.066-2.003-1.6-3.005c-0.784-1.473-1.57-2.95-2.073-4.475c-0.445-1.349-1.985-5.835-0.444-6.994
		c2.309-1.738,2.547,3.059,2.87,4.004c0.82,2.393,1.909,4.741,2.909,7.103C275.956,310.615,277.274,316.474,278.056,316.685z"/>
	<path style="fill:#1A8981;" d="M236.979,323.594c0.86-0.353,1.632-0.917,2.229-1.629c0.896-1.068,1.374-2.417,1.833-3.733
		c0.524-1.502,1.048-3.005,1.573-4.507c0.771-2.209,1.544-4.425,2.038-6.713c0.437-2.023,1.951-8.752,0.437-10.492
		c-2.27-2.606-2.504,4.589-2.822,6.007c-0.806,3.589-1.876,7.112-2.86,10.654C239.043,314.49,237.748,323.278,236.979,323.594z"/>
</g>
<path style="fill:#416275;" d="M381.39,153.522c-1.418-8.986-9.707-12.941-17.313-15.31c-7.606-2.37-15.631-1.875-23.454-2.926
	c-1.284-0.173-2.762-0.544-3.336-1.888c-0.454-1.064-0.152-2.338,0.205-3.451c2.701-8.413,7.968-11.472,12.542-17.819
	c4.121-5.72,2.766-9.828-4.664-6.388c-18.384,8.511-35.73,20.035-51.361,34.122c-6.914,6.231-13.552,13.005-21.268,17.804
	c-4.736,2.946-9.865,5.139-14.158,8.889c-1.237,1.08-2.399,2.34-3.421,3.728c0.027,0.008,0.055,0.013,0.083,0.022
	c5.011,1.54,8.395,5.251,10.082,10.103c1.038,2.985,1.142,6.948,0.226,9.989c-0.216,0.717-0.494,1.407-0.791,2.087
	c0.052,0.505,0.067,1.016,0.062,1.527c1.958-1.275,3.901-2.578,5.812-3.943c-0.376,6.685-2.746,16.658,0.97,20.018
	c0.016,0.014,0.068,0.012,0.086,0c4.103-2.66,6.248-13.973,12.855-14.744c7.277-0.849,14.252,3.154,20.73,7.092
	c6.478,3.938,13.382,8.04,20.675,7.408c-1.488-6.942-3.807-13.645-6.869-19.854c12.783,2.828,26.523,5.777,37.483,13.916
	c-3.12-7.712-7.672-12.688-10.791-20.4c-0.556-1.375-1.11-3.015-0.477-4.345c0.555-1.165,1.795-1.589,2.916-1.878
	c8.558-2.213,18.968-6.04,27.695-5.059c-1.864-10.01-13.121-11.525-21.528-14.653C362.98,155.545,372.647,152.693,381.39,153.522z"
	/>
<path style="fill:#344D5E;" d="M334.513,127.955c-0.382,1.026-0.705,2.2-0.219,3.181c0.614,1.239,2.193,1.581,3.567,1.74
	c8.364,0.969,16.945,0.513,25.077,2.697c8.132,2.184,16.113,7.898,17.629,16.181c-9.348-0.765-18.803-0.204-27.995,1.66
	c8.988,2.884,19.366,7.225,21.359,16.451c-9.331-0.904-18.804-0.321-27.953,1.719c-1.198,0.267-2.524,0.657-3.117,1.731
	c-0.677,1.226-0.084,2.737,0.51,4.005c3.335,7.109,6.67,14.218,10.006,21.327c-11.717-7.502-24.877-12.743-38.544-15.35
	c3.274,5.724,5.753,11.902,7.344,18.301c-7.798,0.582-15.179-3.199-22.105-6.829c-6.926-3.63-14.383-7.32-22.164-6.537
	c-4.437,0.446-8.185,5.48-10.586,9.723c-0.935,1.652-3.452,1.109-3.643-0.779c-0.452-4.444-0.885-10.109-0.643-13.805
	c-6.406,3.945-13.062,7.483-19.916,10.585l10.447-22.228c-3.893,0.996-7.648,2.529-11.126,4.542
	c-0.575-5.717,3.117-11.115,7.707-14.571c4.59-3.457,10.073-5.478,15.137-8.193c8.25-4.424,15.347-10.668,22.739-16.411
	c16.712-12.985,35.258-23.607,54.914-31.452c7.944-3.171,9.393,0.616,4.987,5.888C343.033,117.381,337.401,120.2,334.513,127.955z"
	/>
<path style="fill:#BA372D;" d="M309.036,183.254c-16.676-1.623-31.326-11.089-39.627-26.822l-0.498-0.945l0.498-0.945
	c8.301-15.733,23.832-25.507,40.534-25.507c13.722,0,34.166,15.08,40.188,23.494c1.061,1.482,1.696,3.273,0.89,4.945l-1.084,2.247
	C341.602,175.452,325.723,183.254,309.036,183.254z"/>
<path style="fill:#E56353;" d="M309.943,133.689c-16.078,0-30.21,8.725-38.119,21.849c-0.512,0.85-0.512,1.928,0,2.778
	c7.91,13.124,22.041,21.849,38.119,21.849c16.076,0,30.206-8.723,38.147-21.844c0.516-0.852,0.516-1.934,0-2.786
	C340.15,142.412,326.019,133.689,309.943,133.689z"/>
<path style="fill:#416275;" d="M86.902,153.522c1.418-8.986,9.707-12.941,17.313-15.31c7.606-2.37,15.631-1.875,23.454-2.926
	c1.284-0.173,2.762-0.544,3.336-1.888c0.454-1.064,0.152-2.338-0.205-3.451c-2.701-8.413-7.968-11.472-12.542-17.819
	c-4.121-5.72-2.766-9.828,4.664-6.388c18.384,8.511,35.73,20.035,51.361,34.122c6.914,6.231,13.552,13.005,21.268,17.804
	c4.736,2.946,9.865,5.139,14.158,8.889c1.237,1.08,2.399,2.34,3.421,3.728c-0.027,0.008-0.055,0.013-0.083,0.022
	c-5.011,1.54-8.395,5.251-10.082,10.103c-1.038,2.985-1.142,6.948-0.226,9.989c0.216,0.717,0.494,1.407,0.791,2.087
	c-0.052,0.505-0.067,1.016-0.062,1.527c-1.958-1.275-3.901-2.578-5.812-3.943c0.376,6.685,2.746,16.658-0.97,20.018
	c-0.016,0.014-0.068,0.012-0.086,0c-4.103-2.66-6.248-13.973-12.855-14.744c-7.277-0.849-14.252,3.154-20.73,7.092
	c-6.478,3.938-13.382,8.04-20.675,7.408c1.488-6.942,3.807-13.645,6.869-19.854c-12.783,2.828-26.523,5.777-37.483,13.916
	c3.12-7.712,7.672-12.688,10.791-20.4c0.556-1.375,1.11-3.015,0.477-4.345c-0.555-1.165-1.795-1.589-2.916-1.878
	c-8.558-2.213-18.968-6.04-27.695-5.059c1.864-10.01,13.121-11.525,21.528-14.653C105.313,155.545,95.645,152.693,86.902,153.522z"
	/>
<path style="fill:#344D5E;" d="M133.78,127.955c0.382,1.026,0.705,2.2,0.219,3.181c-0.614,1.239-2.193,1.581-3.567,1.74
	c-8.364,0.969-16.945,0.513-25.077,2.697c-8.132,2.184-16.113,7.898-17.629,16.181c9.348-0.765,18.803-0.204,27.995,1.66
	c-8.988,2.884-19.366,7.225-21.359,16.451c9.331-0.904,18.804-0.321,27.953,1.719c1.198,0.267,2.524,0.657,3.117,1.731
	c0.677,1.226,0.084,2.737-0.51,4.005c-3.335,7.109-6.67,14.218-10.006,21.327c11.717-7.502,24.877-12.743,38.544-15.35
	c-3.274,5.724-5.753,11.902-7.344,18.301c7.798,0.582,15.179-3.199,22.105-6.829c6.926-3.63,14.383-7.32,22.164-6.537
	c4.437,0.446,8.185,5.48,10.586,9.723c0.935,1.652,3.452,1.109,3.643-0.779c0.452-4.444,0.885-10.109,0.643-13.805
	c6.406,3.945,13.062,7.483,19.916,10.585l-10.447-22.228c3.893,0.996,7.648,2.529,11.126,4.542
	c0.575-5.717-3.117-11.115-7.707-14.571c-4.59-3.457-10.073-5.478-15.137-8.193c-8.25-4.424-15.347-10.668-22.739-16.411
	c-16.712-12.985-35.258-23.607-54.914-31.452c-7.944-3.171-9.393,0.616-4.987,5.888C125.26,117.381,130.892,120.2,133.78,127.955z"
	/>
<path style="fill:#BA372D;" d="M159.256,183.254c16.676-1.623,31.326-11.089,39.627-26.822l0.498-0.945l-0.498-0.945
	c-8.301-15.733-23.832-25.507-40.534-25.507c-13.722,0-34.166,15.08-40.188,23.494c-1.061,1.482-1.696,3.273-0.89,4.945l1.083,2.247
	C126.69,175.452,142.57,183.254,159.256,183.254z"/>
<path style="fill:#E56353;" d="M158.349,133.689c16.078,0,30.21,8.725,38.119,21.849c0.512,0.85,0.512,1.928,0,2.778
	c-7.91,13.124-22.041,21.849-38.119,21.849c-16.076,0-30.206-8.723-38.147-21.844c-0.516-0.852-0.516-1.934,0-2.786
	C128.143,142.412,142.273,133.689,158.349,133.689z"/>
<g>
	<path style="fill:#22938D;" d="M328.827,76.572c-7.749,0.826-15.102,3.734-22.344,6.613c-11.857,4.715-23.819,9.485-34.402,16.614
		c-8.03,5.41-20.433,15.135-21.583,25.326c9.409-6.439,18.469-13.517,28.17-19.706c17.17-10.953,35.449-22.264,55.805-22.89
		c5.448-0.168,10.926,0.447,16.339-0.192C344.908,77.252,336.576,75.746,328.827,76.572z"/>
	<path style="fill:#22938D;" d="M139.466,76.572c7.749,0.826,15.102,3.734,22.344,6.613c11.857,4.715,23.819,9.485,34.402,16.614
		c8.03,5.41,20.433,15.135,21.583,25.326c-9.409-6.439-18.469-13.517-28.17-19.706c-17.17-10.953-35.449-22.264-55.805-22.89
		c-5.448-0.168-10.926,0.447-16.339-0.192C123.385,77.252,131.716,75.746,139.466,76.572z"/>
	<path style="fill:#22938D;" d="M259.448,233.48c6.733,10.558,6.608,25.078-0.305,35.519c10.44,12.346,19.742,10.974,33.273,19.823
		c11.779,7.703,26.762,26.29,37.965,34.81c-0.133-1.752-0.921-4.146-1.959-6.639c-2.76-6.628-6.675-12.713-11.385-18.132
		l-5.814-6.689c-5.312-6.112-11.643-11.256-18.732-15.171c-11.179-6.174-27.834-16.864-28.704-26.158"/>
	<path style="fill:#22938D;" d="M208.845,233.48c-6.733,10.558-6.608,25.078,0.305,35.519
		c-10.44,12.346-19.742,10.974-33.273,19.823c-11.779,7.703-26.762,26.29-37.965,34.81c0.133-1.752,0.921-4.146,1.959-6.639
		c2.76-6.628,6.675-12.713,11.385-18.132l5.814-6.689c5.312-6.112,11.643-11.256,18.732-15.171
		c11.179-6.174,27.834-16.864,28.704-26.158"/>
</g>
<path style="fill:#385766;" d="M249.136,272.409c-1.779,0-3.511-0.28-5.149-0.832c-3.383-1.139-5.764-4.009-7.866-6.54
	c-0.006-0.007-0.012-0.014-0.017-0.021c-1.016-1.224-2.898-1.224-3.914,0c-0.006,0.007-0.012,0.014-0.018,0.021
	c-2.101,2.531-4.483,5.401-7.865,6.54c-1.638,0.552-3.37,0.832-5.15,0.832c-5.705,0-11.152-2.846-14.214-7.428
	c-4.063-6.079-4.052-14.504,0.03-24.364c5.627-13.592,17.619-24.91,26.688-32.01l0.917-0.718c0.921-0.721,2.216-0.721,3.137,0
	l0.917,0.718c9.069,7.101,21.06,18.419,26.688,32.01c4.083,9.86,4.093,18.285,0.03,24.364
	C260.288,269.562,254.841,272.409,249.136,272.409L249.136,272.409z"/>
<path style="fill:#1A2B35;" d="M259.595,242.158c-3.876-9.36-11.16-17.911-19.028-24.994c-3.64-3.277-9.2-3.277-12.841,0
	c-7.868,7.083-15.152,15.633-19.028,24.994c-2.737,6.61-4.379,14.633-0.403,20.582c3.097,4.633,9.442,6.795,14.724,5.016
	c4.488-1.512,7.595-8.965,11.128-9.686c3.533,0.72,6.64,8.174,11.128,9.686c5.281,1.779,11.627-0.383,14.724-5.016
	C263.973,256.791,262.332,248.769,259.595,242.158z"/>
<g>
	<path style="fill:#22938D;" d="M209.402,89.233c2.621-0.256,5.324-0.296,8.008-0.334c18.894-0.271,38.72-0.456,55.571,3.284
		c-13.545,0.04-27.089,0.061-40.634,0.061c-6.535,0-33.606,1.49-37.036-0.65C199.782,90.749,204.601,89.702,209.402,89.233z"/>
	<path style="fill:#22938D;" d="M115.002,258.156c-0.563-1.665-0.855-3.423-1.145-5.168c-2.04-12.283-4.054-25.189-0.786-36.843
		c1.266,8.832,2.506,17.668,3.721,26.508c0.586,4.264,4.917,21.671,2.49,24.284C117.801,264.169,116.031,261.207,115.002,258.156z"
		/>
	<path style="fill:#22938D;" d="M140.118,273.649c-0.563-1.665-0.855-3.423-1.145-5.168c-2.04-12.283-4.054-25.189-0.786-36.843
		c1.266,8.832,2.506,17.668,3.721,26.508c0.586,4.264,4.917,21.671,2.49,24.284C142.917,279.661,141.148,276.7,140.118,273.649z"/>
	<path style="fill:#22938D;" d="M353.291,258.156c0.563-1.665,0.855-3.423,1.145-5.168c2.04-12.283,4.054-25.189,0.786-36.843
		c-1.266,8.832-2.506,17.668-3.721,26.508c-0.586,4.264-4.917,21.671-2.49,24.284C350.491,264.169,352.261,261.207,353.291,258.156z
		"/>
	<path style="fill:#22938D;" d="M328.175,273.649c0.563-1.665,0.855-3.423,1.145-5.168c2.04-12.283,4.054-25.189,0.786-36.843
		c-1.266,8.832-2.506,17.668-3.721,26.508c-0.586,4.264-4.917,21.671-2.49,24.284C325.375,279.661,327.145,276.7,328.175,273.649z"
		/>
	<path style="fill:#22938D;" d="M302.656,52.992c-1.814-1.018-3.757-1.901-5.688-2.778c-13.586-6.173-27.873-12.577-41.272-15.144
		c9.789,4.311,19.584,8.608,29.385,12.89c4.729,2.066,23.839,11.723,27.01,11.228C309.129,57.152,305.978,54.856,302.656,52.992z"/>
</g>
<g>
	<polygon style="fill:#F7D98F;" points="309.96,133.056 311.797,146.08 317.764,134.358 315.273,147.273 324.722,138.124 
		318.173,149.53 330.081,143.945 320.183,152.606 333.259,151.19 321.085,156.169 333.912,159.075 320.781,159.831 331.97,166.745 
		319.305,163.196 327.643,173.368 316.816,165.899 321.399,178.228 313.585,167.648 313.916,180.797 309.96,168.253 
		306.004,180.797 306.336,167.648 298.521,178.228 303.104,165.899 292.277,173.368 300.615,163.196 287.95,166.745 
		299.139,159.831 286.008,159.075 298.835,156.169 286.661,151.19 299.737,152.606 289.839,143.945 301.747,149.53 295.198,138.124 
		304.647,147.273 302.156,134.358 308.123,146.08 	"/>
	<polygon style="fill:#F7D98F;" points="158.333,133.056 160.17,146.08 166.136,134.358 163.645,147.273 173.095,138.124 
		166.545,149.53 178.453,143.945 168.555,152.606 181.631,151.19 169.457,156.169 182.285,159.075 169.154,159.831 180.342,166.745 
		167.678,163.196 176.015,173.368 165.189,165.899 169.772,178.228 161.957,167.648 162.288,180.797 158.333,168.253 
		154.377,180.797 154.708,167.648 146.894,178.228 151.476,165.899 140.65,173.368 148.987,163.196 136.323,166.745 
		147.511,159.831 134.38,159.075 147.208,156.169 135.034,151.19 148.11,152.606 138.212,143.945 150.12,149.53 143.57,138.124 
		153.02,147.273 150.529,134.358 156.495,146.08 	"/>
</g>
<circle style="fill:#FCD462;" cx="158.333" cy="156.928" r="20.093"/>
<path style="fill:#EFC356;" d="M170.922,172.582c-3.445,2.782-7.831,4.44-12.593,4.44c-11.101,0-20.092-8.991-20.092-20.092
	c0-4.781,1.667-9.166,4.459-12.612L170.922,172.582z"/>
<path style="fill:#344D5E;" d="M111.741,116.056c7.756,1.304,12.347,1.241,19.546,5.662c16.803,10.323,33.606,20.646,50.409,30.969
	c6.36,3.906,12.868,7.876,20.152,9.519c0.028,0.007,0.063,0.014,0.092,0.021c7.256,1.608,15.534,0.508,20.886-4.647
	c-10.986-3.025-21.231-8.701-29.622-16.415c-3.201-2.94-6.127-6.163-9.3-9.131c-4.569-4.266-9.611-7.975-14.653-11.67
	c-6.191-4.548-12.389-9.096-18.587-13.637c-5.345-3.928-11.049-7.989-17.649-8.602c-6.508-0.606-12.953,2.327-17.903,6.607
	c-0.663,0.571-1.417,1.213-2.186,1.897C108.914,110.19,104.556,114.851,111.741,116.056z"/>
<path style="fill:#64798A;" d="M111.741,116.056c7.756,1.304,12.347,1.241,19.546,5.662c16.803,10.323,33.606,20.646,50.409,30.969
	c6.36,3.906,12.868,7.876,20.152,9.519c0.028,0.007,0.063,0.014,0.092,0.021c-13.305-15.541-27.225-31.35-45.579-40.382
	c-8.539-4.21-17.769-6.797-26.893-9.568c-5.042-1.53-10.062-3.11-14.998-4.957c-0.423-0.155-0.959-0.402-1.544-0.691
	C108.914,110.19,104.556,114.851,111.741,116.056z"/>
<circle style="fill:#CE412D;" cx="158.333" cy="156.928" r="10.802"/>
<circle style="fill:#001B2D;" cx="158.333" cy="156.928" r="4.933"/>
<circle style="fill:#E1E6E9;" cx="162.541" cy="156.154" r="3.284"/>
<circle style="fill:#FCD462;" cx="309.947" cy="156.928" r="20.093"/>
<path style="fill:#EFC356;" d="M325.597,144.318c2.791,3.445,4.459,7.831,4.459,12.612c0,11.101-8.991,20.092-20.092,20.092
	c-4.763,0-9.148-1.658-12.593-4.44L325.597,144.318z"/>
<circle style="fill:#CE412D;" cx="309.947" cy="156.928" r="10.802"/>
<circle style="fill:#001B2D;" cx="309.947" cy="156.928" r="4.933"/>
<circle style="fill:#E1E6E9;" cx="305.764" cy="156.154" r="3.284"/>
<path style="fill:#344D5E;" d="M356.551,116.056c-7.756,1.304-12.347,1.241-19.546,5.662
	c-16.803,10.323-33.606,20.646-50.409,30.969c-6.36,3.906-12.868,7.876-20.152,9.519c-0.028,0.007-0.063,0.014-0.092,0.021
	c-7.256,1.608-15.534,0.508-20.886-4.647c10.986-3.025,21.231-8.701,29.622-16.415c3.201-2.94,6.127-6.163,9.301-9.131
	c4.569-4.266,9.611-7.975,14.653-11.67c6.191-4.548,12.389-9.096,18.587-13.637c5.345-3.928,11.049-7.989,17.649-8.602
	c6.508-0.606,12.953,2.327,17.903,6.607c0.663,0.571,1.417,1.213,2.186,1.897C359.379,110.19,363.737,114.851,356.551,116.056z"/>
<path style="fill:#CE412D;" d="M266.722,8.571c-3.39-0.782-7.467-0.408-9.581,2.355c-1.393,1.822-1.665,4.348-3.186,6.064
	c-3.562,4.019-10.629,0.855-15.323,3.464c-3.236,1.798-4.456,5.924-4.306,9.623c0.05,1.242,0.211,2.54-0.272,3.685
	c-1.059,2.515-4.405,2.893-7.135,2.887c-4.636-0.01-9.271-0.02-13.906-0.03c-1.69-0.004-3.468,0.014-4.938,0.848
	c-3.735,2.119-3.13,7.598-2.017,11.746c-8.536,1.224-18.254,3.218-22.492,10.728c-0.804,1.425-1.407,3.047-2.693,4.059
	c-2.19,1.722-5.426,0.978-7.877-0.346c-5.069-2.738-9.087-7.609-14.713-8.851c-4.648-1.026-9.816,0.897-12.662,4.713
	c-1.419,1.902-2.36,4.274-4.35,5.566c-2.665,1.731-6.144,0.909-9.312,0.647c-10.774-0.893-20.682,5.405-29.651,11.441
	c-1.208,0.813-2.44,1.649-3.314,2.814c-2.606,3.475-1.194,8.385,0.318,12.457c0.907,2.441,1.976,5.079,4.248,6.353
	c1.531,0.858,3.367,0.943,5.121,0.908c17.102-0.342,32.776-9.944,49.785-11.762c8.651-0.925,17.395,0.194,26.084-0.24
	c8.69-0.435,17.835-2.739,23.759-9.112c1.769-1.903,3.223-4.139,5.325-5.666c6.713-4.874,17.207-0.805,23.779-5.868
	c6.263-4.825,5.823-15.682,12.745-19.504c2.574-1.421,5.641-1.507,8.528-2.066c2.887-0.559,5.979-1.907,7.052-4.645
	c0.991-2.529,0.028-5.729,1.714-7.859c1.502-1.899,4.288-1.945,6.642-2.513c3.927-0.949,7.444-4.124,8.019-8.122
	C283.101,15.48,272.264,9.849,266.722,8.571z"/>
<path style="fill:#64798A;" d="M356.551,116.056c-7.756,1.304-12.347,1.241-19.546,5.662
	c-16.803,10.323-33.606,20.646-50.409,30.969c-6.36,3.906-12.868,7.876-20.152,9.519c-0.028,0.007-0.063,0.014-0.092,0.021
	c13.306-15.541,27.225-31.35,45.579-40.382c8.539-4.21,17.769-6.797,26.893-9.568c5.042-1.53,10.062-3.11,14.998-4.957
	c0.423-0.155,0.959-0.402,1.544-0.691C359.379,110.19,363.737,114.851,356.551,116.056z"/>
<path style="fill:#D15241;" d="M277.824,5.905c-6.172,6.771-14.113,11.921-22.81,14.823c-1.971,0.663-3.98,1.207-6.016,1.621
	c-0.387,0.092-0.783,0.166-1.179,0.24c-1.023,0.184-2.1,0.359-2.939,0.995c-3.031,2.275-0.157,7.352-1.658,10.834
	c-0.009,0.018-0.018,0.037-0.028,0.055c-0.35,0.792-0.884,1.419-1.538,1.916c-1.631,1.271-4.026,1.769-6.163,2.082
	c-4.772,0.7-9.544,1.391-14.307,2.091c-0.866,0.129-1.815,0.304-2.34,1.004c-0.59,0.792-0.378,1.889-0.276,2.865
	c0.286,2.856-0.829,5.758-2.782,7.84c-1.078,1.152-2.423,2.064-3.924,2.57c-0.746,0.258-1.511,0.415-2.285,0.516h-0.018
	c-2.432,0.313-4.965,0-7.444-0.055c-3.28-0.064-6.919,0.544-8.936,3.132c-1.308,1.677-1.713,3.924-2.404,5.96
	c-0.479,1.419-1.096,2.736-2.248,3.667c-1.373,1.105-3.224,1.391-4.984,1.511c-4.45,0.295-8.945-0.286-13.183-1.667
	c-1.787-0.58-3.519-1.308-5.187-2.165c-3.501-1.815-7.047-4.302-10.963-3.878c-3.335,0.35-6.034,2.736-8.844,4.569
	c-5.795,3.777-12.584,5.352-19.355,7.02c-3.399,0.829-6.799,1.677-10.06,2.837c-1.962,0.691-3.869,1.492-5.702,2.469
	c-2.073,1.096-4.054,2.414-6.311,3.031c-2.266,0.617-4.938,0.378-6.559-1.308c-1.483-1.548-1.658-3.694-1.29-5.877
	c4.155-6.218,8.706-12.133,13.616-17.725c1.815-2.073,3.685-4.109,5.601-6.089C145.626,19.429,187.681,0,234.148,0
	c3.731,0,7.434,0.129,11.11,0.368c2.487,0.175,4.965,0.396,7.425,0.682C261.279,2.018,269.671,3.648,277.824,5.905z"/>
<g>
	<path style="fill:#EC947C;" d="M222.256,14.095c1.729,1.211,3.536,2.315,5.405,3.305c2.682,1.42,5.576,2.665,7.587,4.906
		c2.011,2.241,2.796,5.885,0.791,8.057c-1.867,2.022-5.158,1.904-7.93,1.345c-3.766-0.76-7.43-2.048-10.84-3.812
		c-0.35-0.181-0.739-0.373-1.119-0.281c-0.527,0.127-0.753,0.718-0.868,1.235c-1.024,4.605,0.555,9.685,3.924,13.159
		c2.246,2.316,5.516,4.719,4.843,7.791c-0.328,1.5-1.567,2.611-2.742,3.621c-1.781,1.53-3.63,3.098-5.904,3.798
		c-1.569,0.483-3.267,0.526-4.816,1.064c-3.854,1.337-6.252,5.518-10.283,6.257c-2.327,0.427-4.725-0.411-6.866-1.454
		c-1.29-0.628-2.597-1.389-3.332-2.597c-1.341-2.205-0.32-4.963,0.72-7.275c1.502-3.339,3.004-6.678,4.505-10.017
		c-3.946-3.276-6.968-7.941-7.076-12.941c-0.107-5,3.299-10.116,8.331-11.046c4.149-0.766,8.955,1.162,12.448-1.107
		c2.46-1.598,3.262-4.686,4.759-7.169c0.925-1.536,3.988-4.482,5.512-2.775c0.327,0.366-0.025,2.678,0.331,3.414
		C220.147,12.632,221.311,13.434,222.256,14.095z"/>
	<path style="fill:#EC947C;" d="M259.398,12.595c0.769,0.538,1.572,1.029,2.403,1.469c1.192,0.631,2.479,1.185,3.373,2.181
		s1.243,2.616,0.351,3.582c-0.83,0.899-2.293,0.847-3.525,0.598c-1.674-0.338-3.303-0.91-4.819-1.694
		c-0.155-0.08-0.329-0.166-0.498-0.125c-0.234,0.057-0.335,0.319-0.386,0.549c-0.455,2.047,0.247,4.306,1.744,5.85
		c0.999,1.029,2.452,2.098,2.153,3.464c-0.146,0.667-0.697,1.161-1.219,1.61c-0.792,0.68-1.614,1.377-2.625,1.689
		c-0.697,0.215-1.452,0.234-2.141,0.473c-1.713,0.595-2.779,2.453-4.571,2.782c-1.035,0.19-2.1-0.183-3.052-0.646
		c-0.573-0.279-1.155-0.617-1.481-1.154c-0.596-0.98-0.142-2.206,0.32-3.234c0.668-1.484,1.335-2.969,2.003-4.453
		c-1.754-1.456-3.098-3.53-3.145-5.753c-0.048-2.223,1.467-4.497,3.704-4.91c1.844-0.341,3.981,0.517,5.534-0.492
		c1.093-0.71,1.45-2.083,2.116-3.187c0.411-0.683,1.773-1.993,2.451-1.234c0.145,0.163-0.011,1.19,0.147,1.518
		C258.461,11.944,258.978,12.3,259.398,12.595z"/>
	<path style="fill:#EC947C;" d="M166.007,79.972c-1.742-0.27-3.526-0.739-4.977-1.804c-1.451-1.065-2.497-2.841-2.232-4.507
		c0.072-0.454,0.237-0.894,0.208-1.36c-0.048-0.759-0.596-1.429-1.152-1.999c-2.121-2.175-4.793-3.835-7.66-4.757
		c-1.288-0.414-2.632-0.691-3.819-1.364c-1.187-0.673-2.221-1.877-2.19-3.17c0.048-1.993,2.511-3.48,1.813-5.412
		c-0.206-0.57-0.665-1.033-1.146-1.428c-2.206-1.812-5.385-2.936-6.254-5.574c-0.881-2.674,1.428-5.27,4.106-5.889
		c2.678-0.619,5.568,0.134,8.357,0.679c2.789,0.545,5.843,0.84,8.143-0.556c0.832-0.505,1.517-1.207,2.345-1.717
		c0.155-0.096,0.314-0.184,0.476-0.265c1.582-0.792,1.266-3.148-0.507-3.424c-0.061-0.009-0.121-0.019-0.182-0.028
		c-1.28-0.188-2.051-1.579-1.413-2.678c0.467-0.805,1.178-1.487,1.987-1.966c1.557-0.921,3.435-1.233,5.269-1.529
		c2.647-0.428,5.294-0.855,7.941-1.283c1.353-0.219,2.885-0.398,4.057,0.43c1.251,0.883,1.562,2.531,1.758,3.986
		c0.17,1.261,0.341,2.541,0.163,3.775c-0.536,3.722-3.997,6.085-5.825,9.297c-1.033,1.815-1.568,3.953-2.968,5.5
		c-1.383,1.528-3.584,2.228-5.746,2.013c-1.333-0.133-2.288,1.21-1.773,2.449l0.318,0.766c0.376,0.905,0.758,1.822,1.347,2.623
		c1.444,1.966,3.892,2.954,5.693,4.621c3.454,3.195,3.854,8.876,1.058,12.191c-2.796,3.315-8.244,3.995-12.382,1.771
		c-0.705-0.379-1.403-0.86-1.791-1.549c-0.458-0.814-0.406-1.763-0.422-2.662c-0.043-2.423-0.683-4.882-1.851-7.107"/>
	<path style="fill:#EC947C;" d="M104.54,77.662c0.589,1.131,1.341,2.188,2.229,3.131c0.647,0.687,1.394,1.331,2.302,1.638
		c0.908,0.307,2.004,0.211,2.655-0.432c0.177-0.175,0.32-0.387,0.534-0.521c0.348-0.218,0.808-0.186,1.227-0.12
		c1.598,0.254,3.137,0.916,4.412,1.897c0.573,0.441,1.102,0.949,1.757,1.264c0.656,0.314,1.497,0.393,2.056-0.029
		c0.861-0.65,0.765-2.212,1.825-2.512c0.313-0.089,0.655-0.031,0.974,0.058c1.465,0.407,2.923,1.462,4.344,1.015
		c1.441-0.453,1.88-2.296,1.339-3.679s-1.748-2.427-2.833-3.492c-1.085-1.065-2.141-2.327-2.227-3.787
		c-0.031-0.528,0.07-1.054,0.042-1.582c-0.072-1.387-0.999-2.609-1.887-3.735c1.674,0.818,3.151,2.018,4.267,3.467
		c0.875-0.491,1.248-1.548,1.18-2.529c-0.068-0.981-0.501-1.913-0.927-2.819c-0.615-1.309-1.231-2.618-1.846-3.927
		c-0.315-0.669-0.701-1.405-1.42-1.664c-0.767-0.276-1.585,0.106-2.283,0.478c-0.605,0.322-1.219,0.651-1.706,1.118
		c-1.471,1.412-1.458,3.693-2.314,5.517c-0.483,1.031-1.26,1.943-1.514,3.052c-0.383,1.67,0.656,3.577,2.332,4.276
		c-0.814,0.189-1.627,0.378-2.441,0.568c-0.511,0.119-1.03,0.239-1.56,0.23c-1.301-0.02-2.477-0.794-3.756-1.067
		c-2.451-0.524-5.066,1.091-5.672,3.377c-0.607,2.286,0.748,4.917,2.979,6.051c0.38,0.193,0.803,0.351,1.223,0.305
		c0.496-0.054,0.897-0.376,1.297-0.653c1.077-0.746,2.35-1.237,3.681-1.421"/>
</g>
<g>
</g>
<g>
</g>
<g>
</g>
<g>
</g>
<g>
</g>
<g>
</g>
<g>
</g>
<g>
</g>
<g>
</g>
<g>
</g>
<g>
</g>
<g>
</g>
<g>
</g>
<g>
</g>
<g>
</g>
</svg>
