<svg enable-background="new 0 0 468.293 468.293" viewBox="0 0 468.293 468.293" xmlns="http://www.w3.org/2000/svg"><path d="m45.877 278.091c-1.209-.628-2.444-1.204-3.692-1.754-2.781-1.225-5.091-3.364-6.377-6.117-.007-.015-.014-.031-.022-.046-3.672-7.881-5.468-17.169-5.654-29.23-.016-1.057-.045-2.166-.074-3.314-.206-7.985-.463-17.922 2.917-25.251.933-2.023 2.01-3.847 3.052-5.612.64-1.085 1.245-2.11 1.801-3.151.538-1.007 1.051-2.064 1.594-3.183 1.927-3.969 4.112-8.469 7.982-11.454 3.515-2.711 8.945-4.266 14.897-4.266 4.239 0 8.264.783 11.331 2.205 3.151 1.46 5.61 3.848 7.779 5.954 1.479 1.435 3.031 2.777 4.532 4.074 5.135 4.438 10.445 9.026 13.054 17.524 2.734 8.907 5.255 18.045 7.693 26.882 1.233 4.469 2.465 8.936 3.727 13.385 1.933 6.813 3.931 13.859 4.324 21.435.466 8.985-1.615 17.074-5.86 22.777-4.633 6.224-12.054 9.794-20.359 9.794-1.713 0-3.439-.155-5.129-.461-.055-.01-.111-.02-.166-.03-7.904-1.472-14.696-6.412-18.987-13.211-4.482-7.106-10.697-12.97-18.363-16.95z" fill="#22938d"/><path d="m88.524 303.214c6.541 0 12.346-2.758 15.926-7.567 3.478-4.673 5.174-11.488 4.774-19.19-.361-6.954-2.273-13.694-4.123-20.213-1.262-4.452-2.495-8.92-3.729-13.39l-.025-.092c-2.423-8.781-4.928-17.86-7.633-26.672-2.143-6.977-6.425-10.677-11.383-14.962-1.56-1.348-3.173-2.741-4.769-4.291-1.945-1.888-3.955-3.84-6.253-4.905-2.321-1.076-5.604-1.693-9.007-1.693-4.685 0-8.992 1.165-11.522 3.115-2.842 2.192-4.643 5.903-6.385 9.491-.572 1.178-1.105 2.277-1.691 3.373-.611 1.144-1.245 2.218-1.915 3.354-1.023 1.734-1.981 3.356-2.794 5.119-2.84 6.159-2.602 15.383-2.411 22.793.031 1.183.059 2.304.076 3.372.173 11.256 1.806 19.83 5.137 26.98.708 1.514 1.985 2.721 3.617 3.44 1.507.664 2.819 1.288 4.011 1.907 8.331 4.326 15.417 10.863 20.492 18.904 3.578 5.67 9.164 9.58 15.324 10.727l.128.023c1.376.252 2.771.377 4.155.377z" fill="#63c7c5"/><path d="m64.398 219.965c-4.347-1.306-9.594-.394-12.336 3.465-2.749 3.871-2.226 9.39-.76 14.001 1.466 4.61 3.752 9.007 4.183 13.858.192 2.159.012 4.38.581 6.461.497 1.816 1.531 3.398 2.548 4.943l4.269 6.483c5.993 9.1 13.451 19.103 23.802 19.569 5.38.242 10.804-2.452 14.125-7.017s4.45-10.88 2.943-16.446c-.895-3.304-2.628-6.259-4.34-9.166-7.938-13.481-19.689-31.548-35.015-36.151z" fill="#22938d"/><path d="m61.001 225.785c-.624-1.271-1.249-2.541-1.873-3.812-1.882-3.828-3.806-7.802-4.26-12.234-.338-3.303.167-6.638.67-9.909.606-3.945 1.401-9.983 4.446-12.134 1.465 4.247-1.783 12.668-1.924 17.508-.205 7.012.767 14.081 2.941 20.581z" fill="#22938d"/><path d="m56.151 233.48c-.951-1.009-1.902-2.018-2.853-3.027-2.866-3.04-5.812-6.204-7.486-10.284-1.247-3.04-1.699-6.384-2.135-9.666-.526-3.958-1.458-9.974.844-13.013 2.585 3.574 1.845 12.658 3.065 17.319 1.768 6.753 4.673 13.178 8.565 18.671z" fill="#22938d"/><path d="m65.539 264.209c.856 1.257 1.957 2.324 3.052 3.38 1.033.997 2.152 2.04 3.564 2.305 1.109 2.446 2.525 4.753 4.205 6.849.94 1.173 2.165 2.372 3.667 2.323 1.837-.059 3.119-2.134 2.88-3.956s-1.579-3.318-3.067-4.397-3.176-1.867-4.616-3.009c-1.605-1.274-2.852-2.953-3.84-4.748-2.544-4.624-2.192-8.757-2.652-13.74-.167-1.811-1.138-7.662-3.719-7.973-4.698-.566-1.587 19.861.526 22.966z" fill="#344d5e"/><path d="m422.416 278.091c1.209-.628 2.444-1.204 3.692-1.754 2.781-1.225 5.091-3.364 6.377-6.117.007-.015.014-.031.022-.046 3.672-7.881 5.468-17.169 5.654-29.23.016-1.057.045-2.166.074-3.314.206-7.985.463-17.922-2.917-25.251-.933-2.023-2.01-3.847-3.052-5.612-.64-1.085-1.245-2.11-1.801-3.151-.538-1.007-1.051-2.064-1.594-3.183-1.927-3.969-4.112-8.469-7.982-11.454-3.515-2.711-8.945-4.266-14.897-4.266-4.239 0-8.264.783-11.332 2.205-3.151 1.46-5.61 3.848-7.779 5.954-1.479 1.435-3.031 2.777-4.532 4.074-5.135 4.438-10.445 9.026-13.054 17.524-2.734 8.907-5.255 18.045-7.693 26.882-1.233 4.469-2.465 8.936-3.727 13.385-1.933 6.813-3.931 13.859-4.324 21.435-.466 8.985 1.615 17.074 5.86 22.777 4.633 6.224 12.054 9.794 20.359 9.794 1.713 0 3.439-.155 5.129-.461.055-.01.111-.02.166-.03 7.904-1.472 14.696-6.412 18.987-13.211 4.483-7.106 10.698-12.97 18.364-16.95z" fill="#22938d"/><path d="m379.769 303.214c-6.541 0-12.346-2.758-15.926-7.567-3.478-4.673-5.174-11.488-4.774-19.19.361-6.954 2.273-13.694 4.123-20.213 1.262-4.452 2.495-8.92 3.729-13.39l.025-.092c2.423-8.781 4.928-17.86 7.633-26.672 2.142-6.977 6.425-10.677 11.383-14.962 1.56-1.348 3.173-2.741 4.769-4.291 1.945-1.888 3.955-3.84 6.253-4.905 2.321-1.076 5.604-1.693 9.007-1.693 4.685 0 8.992 1.165 11.522 3.115 2.842 2.192 4.643 5.903 6.385 9.491.572 1.178 1.105 2.277 1.691 3.373.611 1.144 1.245 2.218 1.915 3.354 1.023 1.734 1.981 3.356 2.794 5.119 2.84 6.159 2.602 15.383 2.411 22.793-.031 1.183-.059 2.304-.076 3.372-.173 11.256-1.806 19.83-5.137 26.98-.708 1.514-1.985 2.721-3.617 3.44-1.507.664-2.819 1.288-4.011 1.907-8.331 4.326-15.417 10.863-20.492 18.904-3.578 5.67-9.164 9.58-15.324 10.727l-.128.023c-1.377.252-2.771.377-4.155.377z" fill="#63c7c5"/><path d="m403.895 219.965c4.347-1.306 9.594-.394 12.336 3.465 2.749 3.871 2.226 9.39.76 14.001-1.466 4.61-3.752 9.007-4.183 13.858-.192 2.159-.012 4.38-.581 6.461-.497 1.816-1.531 3.398-2.548 4.943-1.423 2.161-2.846 4.322-4.269 6.483-5.993 9.1-13.451 19.103-23.802 19.569-5.38.242-10.804-2.452-14.125-7.017s-4.45-10.88-2.943-16.446c.895-3.304 2.628-6.259 4.34-9.166 7.938-13.481 19.688-31.548 35.015-36.151z" fill="#22938d"/><path d="m407.292 225.785c.624-1.271 1.249-2.541 1.873-3.812 1.882-3.828 3.806-7.802 4.26-12.234.338-3.303-.167-6.638-.67-9.909-.606-3.945-1.401-9.983-4.446-12.134-1.465 4.247 1.783 12.668 1.924 17.508.205 7.012-.767 14.081-2.941 20.581z" fill="#22938d"/><path d="m412.142 233.48c.951-1.009 1.902-2.018 2.853-3.027 2.865-3.04 5.812-6.204 7.486-10.284 1.247-3.04 1.699-6.384 2.135-9.666.526-3.958 1.458-9.974-.844-13.013-2.585 3.574-1.845 12.658-3.065 17.319-1.768 6.753-4.673 13.178-8.565 18.671z" fill="#22938d"/><path d="m402.753 264.209c-.856 1.257-1.957 2.324-3.052 3.38-1.033.997-2.152 2.04-3.564 2.305-1.109 2.446-2.525 4.753-4.205 6.849-.94 1.173-2.165 2.372-3.667 2.323-1.837-.059-3.119-2.134-2.88-3.956s1.579-3.318 3.067-4.397 3.176-1.867 4.616-3.009c1.605-1.274 2.852-2.953 3.84-4.748 2.544-4.624 2.192-8.757 2.652-13.74.167-1.811 1.138-7.662 3.719-7.973 4.698-.566 1.587 19.861-.526 22.966z" fill="#344d5e"/><path d="m401.454 171.507c0 20.516-3.528 40.194-9.977 58.434 0 0-33.045 79.521-35.919 123.031-.967 14.537-5.14 28.715-12.759 41.133-7.269 11.829-18.268 24.947-34.574 34.749-13.266 7.978-25.518 17.476-36.481 28.393-6.919 6.882-18.406 11.046-37.596 11.046-19.189 0-30.677-4.164-37.596-11.046-10.963-10.917-23.215-20.415-36.481-28.393-16.306-9.802-27.305-22.92-34.574-34.749-7.619-12.418-11.792-26.596-12.759-41.133-2.874-43.51-35.919-123.031-35.919-123.031-6.449-18.24-9.977-37.918-9.977-58.434 0-35.965 10.797-69.332 29.249-96.905 4.155-6.218 8.706-12.133 13.616-17.725 1.815-2.073 3.685-4.109 5.601-6.089 30.318-31.359 72.373-50.788 118.84-50.788 3.731 0 7.434.129 11.11.368 2.487.175 4.965.396 7.425.682 8.595.967 16.988 2.598 25.141 4.855 71.221 19.687 123.63 86.366 123.63 165.602z" fill="#22938d"/><path d="m395.927 171.507c0 19.383-3.234 38.379-9.608 56.463-2.036 4.901-33.404 81.216-36.278 124.643-.93 14.021-5.067 27.37-11.948 38.6-8.549 13.92-19.558 24.993-32.722 32.907-13.717 8.254-26.347 18.084-37.531 29.212-6.375 6.347-17.402 9.433-33.69 9.433-16.297 0-27.315-3.086-33.699-9.433-11.175-11.129-23.805-20.958-37.531-29.212-13.165-7.913-24.164-18.987-32.713-32.907-6.891-11.23-11.018-24.579-11.948-38.6-2.874-43.427-34.252-119.752-36.278-124.653-6.375-18.075-9.608-37.071-9.608-56.453 0-32.879 9.36-63.556 25.491-89.36 4.026 2.727 7.766 5.813 11.193 9.507 1.234-4.044 2.515-8.171 4.965-11.617 2.46-3.445 6.329-6.154 10.557-6.108 4.763.046 9.037 3.482 13.791 3.362 7.13-.193 11.396-7.775 14.224-14.316 5.214.617 9.894 3.427 14.242 6.366s8.669 6.126 13.68 7.674c5.021 1.557 11.018 1.161 14.813-2.469 3.796-3.63 3.943-10.898-.543-13.625 11.764-2.635 23.98-3.298 35.965-1.944-1.796-6.071-5.251-11.644-9.894-15.947 10.502-1.732 21.198-2.386 31.838-1.944.166-5.758-1.907-11.552-5.684-15.891 8.66-2.119 17.504-3.491 26.403-4.1-.47-3.169-1.732-10.023-.562-10.769 70.573 17.845 123.075 83.336 123.075 161.181z" fill="#63c7c5"/><path d="m325.323 371.784c-.286 1.566-.682 3.363-1.852 4.956-1.105 1.511-2.644 2.423-3.703 2.976-2.957 1.548-6.329 2.386-9.774 2.423h-.258c-3.547 0-7.038-.848-10.088-2.451-1.677-.884-3.16-1.953-4.606-2.976-.599-.433-1.198-.866-1.815-1.281-.672-.451-1.363-.894-2.073-1.299-4.873-2.874-10.355-4.846-15.219-6.486-10.852-3.657-25.14-7.867-39.475-7.867-4.265 0-8.411.378-12.326 1.115-3.62.682-7.195 1.713-10.723 2.92-4.081 1.382-8.098 2.994-12.041 4.588l-7.305 2.939-12.022 4.836-7.794 3.141c-2.57 1.041-5.214 2.1-8.006 2.819-1.216.322-2.469.58-3.759.737-.921.111-1.842.175-2.745.175-4.035 0-7.628-1.124-10.382-3.234-1.916-1.483-3.528-3.51-4.781-6.034-2.69-5.389-3.28-12.179-1.649-19.106 1.465-6.264 4.523-12.031 7.315-16.84 1.419-2.451 3.003-5.012 5.334-6.983 4.118-3.491 9.48-4.385 14.675-4.827 4.192-.359 8.457-.543 12.667-.543 12.335 0 24.063 1.502 34.85 4.477 2.404.663 4.615 1.612 6.753 2.543 1.511.654 2.948 1.271 4.422 1.778 1.723.599 3.685.967 5.822 1.105.626.037 1.281.055 1.944.055 2.506 0 5.048-.267 7.582-.673 2.533-.405 5.058-.958 7.499-1.502 5.656-1.28 11.35-3.022 16.859-4.708 2.414-.746 4.818-1.483 7.241-2.183 6.485-1.889 14.187-3.915 22.211-4.615 1.363-.12 2.552-.175 3.639-.175 3.206 0 5.887.507 8.208 1.548 4.256 1.925 7.729 5.841 10.603 11.995 5.297 11.332 6.992 24.349 4.772 36.657z" fill="#1a8981"/><path d="m319.123 370.549c-.23 1.271-.516 2.579-1.281 3.62-.663.903-1.63 1.538-2.625 2.054-1.391.728-2.874 1.253-4.404 1.585-4.146.903-8.614.368-12.372-1.612-2.1-1.105-3.952-2.607-5.924-3.934-.47-.313-.949-.626-1.437-.921-4.901-3.022-10.382-5.048-15.854-6.9-16.499-5.564-34.113-9.83-51.221-6.587-3.547.673-7.02 1.667-10.447 2.819-4.044 1.363-8.015 2.957-11.967 4.551-2.598 1.05-5.196 2.091-7.794 3.132-4.072 1.64-8.135 3.28-12.206 4.919-2.027.82-4.063 1.631-6.089 2.451-3.224 1.29-6.486 2.598-9.922 3.141-.24.037-.47.074-.709.101-3.685.451-7.646-.129-10.594-2.395-1.64-1.262-2.893-2.985-3.814-4.836-2.515-5.048-2.653-11.027-1.363-16.518 1.281-5.491 3.906-10.567 6.734-15.44 1.262-2.183 2.607-4.376 4.523-6.006.746-.636 1.566-1.161 2.423-1.603 3.04-1.585 6.67-2.091 10.143-2.395 1.004-.083 2.018-.157 3.031-.221h.009c6.642-.433 13.432-.387 20.184.184 7.315.608 14.583 1.833 21.511 3.74.175.046.359.101.534.157 3.473 1.032 6.633 2.764 10.042 3.943 2.018.7 4.155 1.069 6.338 1.207.719.046 1.437.064 2.165.064 5.085-.018 10.336-1.115 14.989-2.165.654-.147 1.317-.304 1.971-.461 7.213-1.75 14.252-4.127 21.373-6.209 2.285-.663 4.569-1.299 6.882-1.87 4.588-1.152 9.231-2.054 13.948-2.469 1.382-.12 2.791-.193 4.192-.138 2.008.074 3.998.405 5.831 1.234 4.182 1.879 6.882 6.016 8.826 10.18 4.863 10.392 6.41 22.304 4.374 33.598z" fill="#001d1e"/><path d="m180.836 356.325c-2.377.525-5.546 1.096-8.549 1.612-.442.074-.875.147-1.299.221-.175.028-.35.055-.525.064-4.081.378-7.683-2.828-7.683-7.011v-19.042c2.847-1.483 6.218-2.027 9.489-2.34.221-.018.433-.037.654-.055.387-.037.783-.064 1.179-.083.617-.055 1.234-.101 1.852-.138h.009l7.554 21.971c.719 2.084-.534 4.322-2.681 4.801z" fill="#e1e6e9"/><path d="m216.7 346.45-13.155 1.916-1.391.203c-.148.018-.295.037-.442.037-2.985.193-5.564-2.174-5.564-5.233v-13.634c5.472.451 10.917 1.253 16.214 2.432.627.138 1.253.276 1.879.442 1.152.258 2.285.553 3.418.866.175.046.359.101.534.157l1.603 8.485c.386 2.063-1.023 4.034-3.096 4.329z" fill="#e1e6e9"/><path d="m252.997 349.444h-12.345c-1.999 0-3.63-1.575-3.685-3.574-.055-1.944-.129-4.468-.23-7.02 5.085-.018 10.336-1.115 14.989-2.165.654-.147 1.317-.304 1.971-.461l2.791 8.374c.792 2.386-.976 4.846-3.491 4.846z" fill="#e1e6e9"/><path d="m303.941 345.4-13.312 2.718c-3.538.719-6.946-1.732-7.37-5.316-.488-4.146-1.05-9.636-1.308-14.657 1.548-.387 3.095-.746 4.652-1.069.608-.129 1.216-.249 1.824-.359 2.469-.461 4.956-.82 7.471-1.041 1.382-.12 2.791-.193 4.192-.138 2.598 4.597 5.546 10.511 6.697 15.403.48 2.027-.81 4.044-2.846 4.459z" fill="#e1e6e9"/><path d="m310.814 377.809c-.608.129-1.225.23-1.842.304-.608.074-1.225.111-1.842.111-3.012.055-6.025-.626-8.687-2.027-2.1-1.105-3.952-2.607-5.924-3.934-.47-.313-.949-.626-1.437-.921l-.433-5.675c-.267-3.547 2.386-6.504 5.73-6.808.516-.055 1.05-.037 1.594.046l.258.037 7.996 1.262c2.939.461 5.186 2.902 5.352 5.878.193 3.417.184 7.95-.765 11.727z" fill="#e1e6e9"/><path d="m213.614 360.204-.055.47c-4.044 1.363-8.015 2.957-11.967 4.551-2.598 1.05-5.196 2.091-7.794 3.132-.332-1.557-.525-3.077-.626-4.394-.166-2.202 1.05-4.238 3.022-5.14.194-.092.387-.175.599-.24.378-.12.783-.249 1.207-.378 2.948-.903 6.762-1.981 9.959-2.856 3.066-.838 6.014 1.686 5.655 4.855z" fill="#e1e6e9"/><path d="m181.592 373.276c-1.76.709-3.519 1.419-5.279 2.119-.267.111-.544.221-.811.332-.304.12-.599.24-.903.359-2.929 1.17-5.905 2.294-9.019 2.782-.783-1.686-1.585-3.427-2.285-4.947-1.115-2.432.092-5.306 2.616-6.2l7.563-2.681c2.275-.811 4.791.295 5.721 2.524z" fill="#e1e6e9"/><g fill="#496070"><path d="m172.287 357.938c-.442.074-.875.147-1.299.221-.175.028-.35.055-.525.064l-.424-5.021 1.842-.147z"/><path d="m176.313 375.395c-.267.111-.544.221-.811.332-.304.12-.599.24-.903.359l-1.686-4.919 1.741-.599z"/><path d="m288.87 337.394-1.842.074-.424-10.392c.608-.129 1.216-.249 1.824-.359z"/><path d="m174.434 334.805-1.833.12-.332-5.094c.221-.018.433-.037.654-.055.387-.037.783-.064 1.179-.083z"/><path d="m214.563 337.366-1.842.129-.359-5.325c.627.138 1.253.276 1.879.442z"/><path d="m251.919 349.444h-1.852l-.35-5.767 1.843-.111z"/><path d="m298.727 367.546-1.833.111-.516-8.798c.516-.055 1.05-.037 1.594.046l.258.037z"/><path d="m308.971 378.113c-.608.074-1.225.111-1.842.111l-.359-6.274 1.842-.111z"/><path d="m203.545 348.366-1.391.203c-.148.018-.295.037-.442.037l-.415-7.094 1.842-.101z"/><path d="m198.404 363.668-1.833.138-.378-4.984c.194-.092.387-.175.599-.24.378-.12.783-.249 1.207-.378z"/></g><path d="m223.279 411.144c1.638-.749 3.352-1.42 5.185-1.793 4.194-.854 8.622-.092 12.807.792 2.576.545 5.17 1.147 7.456 2.232 5.75 2.728 8.619 7.975 11.136 12.885-2.334-.043-4.488-.927-6.613-1.691-13.065-4.698-28.394-5.329-42.006-1.728-1.366.361-2.601.876-3.687 1.551 3.346-5.085 9.516-9.41 15.722-12.248z" fill="#2ea09a"/><path d="m262.992 434.004c0 11.018-13.404 19.954-29.94 19.954-13.045 0-24.137-5.555-28.245-13.312-1.096-2.082-1.695-4.311-1.695-6.642 0-11.018 13.404-19.945 29.94-19.945 2.607 0 5.14.221 7.554.645 12.879 2.23 22.386 10.023 22.386 19.3z" fill="#85ddd9"/><path d="m277.044 429.887c-1.572 1.235-2.622 3.001-3.636 4.724-2.328 3.958-6.08 12.328-6.08 12.328s-.852 1.192-1.538 3.179c-.22.318-.401.694-.55.932-.814 1.302-1.537 2.653-2.191 4.042-.34.733-.661 1.486-1.151 2.128-1.491 1.953-4.265 2.557-5.79 4.483 1.204.258 2.409-.341 3.495-.921 1.259-.672 2.517-1.343 3.775-2.015.614-.328 1.228-.664 1.814-1.038.188 1.023.483 2.084.947 3.18 4.308-6.828 8.091-13.989 11.302-21.397.635-1.465 1.251-2.946 2.067-4.319 1.798-3.026 6.02-4.7 7.27-7.693-2.479-1.251-7.57.687-9.734 2.387z" fill="#22938d"/><path d="m193.963 435.208c-1.194-1.348-7.295-6.615-9.325-5.616-1.586.781 1.354 3.693 2.119 4.634 4.389 5.397 3.591 8.516 3.408 14.688-.041 1.388.902 2.632 2.259 2.923 3.946.845 11.021 4.678 5.478-7.264-1.449-3.121-1.658-6.79-3.939-9.365z" fill="#22938d"/><path d="m223.998 309.776c.86-.353 1.632-.917 2.229-1.629.896-1.068 1.374-2.417 1.833-3.733.524-1.502 1.048-3.005 1.573-4.507.771-2.209 1.544-4.425 2.038-6.713.437-2.023 1.951-8.752.437-10.492-2.27-2.606-2.504 4.589-2.822 6.007-.806 3.589-1.876 7.112-2.86 10.655-.363 1.307-1.659 10.096-2.428 10.412z" fill="#1a8981"/><path d="m186.63 288.822c-.82 2.393-1.909 4.741-2.909 7.103-.369.872-1.687 6.731-2.469 6.941.874-.235 1.66-.611 2.267-1.086.912-.712 1.397-1.611 1.864-2.489.533-1.002 1.066-2.003 1.6-3.005.784-1.473 1.57-2.95 2.073-4.475" fill="#1a8981"/><path d="m191.688 316.685c.874-.235 1.66-.611 2.267-1.086.912-.712 1.397-1.611 1.864-2.489.533-1.002 1.066-2.003 1.6-3.005.784-1.473 1.57-2.95 2.073-4.475.445-1.349 1.985-5.835.444-6.994-2.309-1.738-2.547 3.059-2.87 4.004-.82 2.393-1.909 4.741-2.909 7.103-.369.872-1.686 6.731-2.469 6.942z" fill="#1a8981"/><path d="m278.056 316.685c-.874-.235-1.66-.611-2.267-1.086-.912-.712-1.397-1.611-1.864-2.489-.533-1.002-1.066-2.003-1.6-3.005-.784-1.473-1.57-2.95-2.073-4.475-.445-1.349-1.985-5.835-.444-6.994 2.309-1.738 2.547 3.059 2.87 4.004.82 2.393 1.909 4.741 2.909 7.103.369.872 1.687 6.731 2.469 6.942z" fill="#1a8981"/><path d="m236.979 323.594c.86-.353 1.632-.917 2.229-1.629.896-1.068 1.374-2.417 1.833-3.733.524-1.502 1.048-3.005 1.573-4.507.771-2.209 1.544-4.425 2.038-6.713.437-2.023 1.951-8.752.437-10.492-2.27-2.606-2.504 4.589-2.822 6.007-.806 3.589-1.876 7.112-2.86 10.654-.364 1.309-1.659 10.097-2.428 10.413z" fill="#1a8981"/><path d="m381.39 153.522c-1.418-8.986-9.707-12.941-17.313-15.31-7.606-2.37-15.631-1.875-23.454-2.926-1.284-.173-2.762-.544-3.336-1.888-.454-1.064-.152-2.338.205-3.451 2.701-8.413 7.968-11.472 12.542-17.819 4.121-5.72 2.766-9.828-4.664-6.388-18.384 8.511-35.73 20.035-51.361 34.122-6.914 6.231-13.552 13.005-21.268 17.804-4.736 2.946-9.865 5.139-14.158 8.889-1.237 1.08-2.399 2.34-3.421 3.728.027.008.055.013.083.022 5.011 1.54 8.395 5.251 10.082 10.103 1.038 2.985 1.142 6.948.226 9.989-.216.717-.494 1.407-.791 2.087.052.505.067 1.016.062 1.527 1.958-1.275 3.901-2.578 5.812-3.943-.376 6.685-2.746 16.658.97 20.018.016.014.068.012.086 0 4.103-2.66 6.248-13.973 12.855-14.744 7.277-.849 14.252 3.154 20.73 7.092s13.382 8.04 20.675 7.408c-1.488-6.942-3.807-13.645-6.869-19.854 12.783 2.828 26.523 5.777 37.483 13.916-3.12-7.712-7.672-12.688-10.791-20.4-.556-1.375-1.11-3.015-.477-4.345.555-1.165 1.795-1.589 2.916-1.878 8.558-2.213 18.968-6.04 27.695-5.059-1.864-10.01-13.121-11.525-21.528-14.653 8.599-2.024 18.266-4.876 27.009-4.047z" fill="#416275"/><path d="m334.513 127.955c-.382 1.026-.705 2.2-.219 3.181.614 1.239 2.193 1.581 3.567 1.74 8.364.969 16.945.513 25.077 2.697s16.113 7.898 17.629 16.181c-9.348-.765-18.803-.204-27.995 1.66 8.988 2.884 19.366 7.225 21.359 16.451-9.331-.904-18.804-.321-27.953 1.719-1.198.267-2.524.657-3.117 1.731-.677 1.226-.084 2.737.51 4.005 3.335 7.109 6.67 14.218 10.006 21.327-11.717-7.502-24.877-12.743-38.544-15.35 3.274 5.724 5.753 11.902 7.344 18.301-7.798.582-15.179-3.199-22.105-6.829s-14.383-7.32-22.164-6.537c-4.437.446-8.185 5.48-10.586 9.723-.935 1.652-3.452 1.109-3.643-.779-.452-4.444-.885-10.109-.643-13.805-6.406 3.945-13.062 7.483-19.916 10.585l10.447-22.228c-3.893.996-7.648 2.529-11.126 4.542-.575-5.717 3.117-11.115 7.707-14.571 4.59-3.457 10.073-5.478 15.137-8.193 8.25-4.424 15.347-10.668 22.739-16.411 16.712-12.985 35.258-23.607 54.914-31.452 7.944-3.171 9.393.616 4.987 5.888-4.892 5.85-10.524 8.669-13.412 16.424z" fill="#344d5e"/><path d="m309.036 183.254c-16.676-1.623-31.326-11.089-39.627-26.822l-.498-.945.498-.945c8.301-15.733 23.832-25.507 40.534-25.507 13.722 0 34.166 15.08 40.188 23.494 1.061 1.482 1.696 3.273.89 4.945l-1.084 2.247c-8.335 15.731-24.214 23.533-40.901 23.533z" fill="#ba372d"/><path d="m309.943 133.689c-16.078 0-30.21 8.725-38.119 21.849-.512.85-.512 1.928 0 2.778 7.91 13.124 22.041 21.849 38.119 21.849 16.076 0 30.206-8.723 38.147-21.844.516-.852.516-1.934 0-2.786-7.94-13.123-22.071-21.846-38.147-21.846z" fill="#e56353"/><path d="m86.902 153.522c1.418-8.986 9.707-12.941 17.313-15.31 7.606-2.37 15.631-1.875 23.454-2.926 1.284-.173 2.762-.544 3.336-1.888.454-1.064.152-2.338-.205-3.451-2.701-8.413-7.968-11.472-12.542-17.819-4.121-5.72-2.766-9.828 4.664-6.388 18.384 8.511 35.73 20.035 51.361 34.122 6.914 6.231 13.552 13.005 21.268 17.804 4.736 2.946 9.865 5.139 14.158 8.889 1.237 1.08 2.399 2.34 3.421 3.728-.027.008-.055.013-.083.022-5.011 1.54-8.395 5.251-10.082 10.103-1.038 2.985-1.142 6.948-.226 9.989.216.717.494 1.407.791 2.087-.052.505-.067 1.016-.062 1.527-1.958-1.275-3.901-2.578-5.812-3.943.376 6.685 2.746 16.658-.97 20.018-.016.014-.068.012-.086 0-4.103-2.66-6.248-13.973-12.855-14.744-7.277-.849-14.252 3.154-20.73 7.092s-13.382 8.04-20.675 7.408c1.488-6.942 3.807-13.645 6.869-19.854-12.783 2.828-26.523 5.777-37.483 13.916 3.12-7.712 7.672-12.688 10.791-20.4.556-1.375 1.11-3.015.477-4.345-.555-1.165-1.795-1.589-2.916-1.878-8.558-2.213-18.968-6.04-27.695-5.059 1.864-10.01 13.121-11.525 21.528-14.653-8.598-2.024-18.266-4.876-27.009-4.047z" fill="#416275"/><path d="m133.78 127.955c.382 1.026.705 2.2.219 3.181-.614 1.239-2.193 1.581-3.567 1.74-8.364.969-16.945.513-25.077 2.697s-16.113 7.898-17.629 16.181c9.348-.765 18.803-.204 27.995 1.66-8.988 2.884-19.366 7.225-21.359 16.451 9.331-.904 18.804-.321 27.953 1.719 1.198.267 2.524.657 3.117 1.731.677 1.226.084 2.737-.51 4.005-3.335 7.109-6.67 14.218-10.006 21.327 11.717-7.502 24.877-12.743 38.544-15.35-3.274 5.724-5.753 11.902-7.344 18.301 7.798.582 15.179-3.199 22.105-6.829s14.383-7.32 22.164-6.537c4.437.446 8.185 5.48 10.586 9.723.935 1.652 3.452 1.109 3.643-.779.452-4.444.885-10.109.643-13.805 6.406 3.945 13.062 7.483 19.916 10.585l-10.447-22.228c3.893.996 7.648 2.529 11.126 4.542.575-5.717-3.117-11.115-7.707-14.571-4.59-3.457-10.073-5.478-15.137-8.193-8.25-4.424-15.347-10.668-22.739-16.411-16.712-12.985-35.258-23.607-54.914-31.452-7.944-3.171-9.393.616-4.987 5.888 4.892 5.85 10.524 8.669 13.412 16.424z" fill="#344d5e"/><path d="m159.256 183.254c16.676-1.623 31.326-11.089 39.627-26.822l.498-.945-.498-.945c-8.301-15.733-23.832-25.507-40.534-25.507-13.722 0-34.166 15.08-40.188 23.494-1.061 1.482-1.696 3.273-.89 4.945l1.083 2.247c8.336 15.731 24.216 23.533 40.902 23.533z" fill="#ba372d"/><path d="m158.349 133.689c16.078 0 30.21 8.725 38.119 21.849.512.85.512 1.928 0 2.778-7.91 13.124-22.041 21.849-38.119 21.849-16.076 0-30.206-8.723-38.147-21.844-.516-.852-.516-1.934 0-2.786 7.941-13.123 22.071-21.846 38.147-21.846z" fill="#e56353"/><path d="m328.827 76.572c-7.749.826-15.102 3.734-22.344 6.613-11.857 4.715-23.819 9.485-34.402 16.614-8.03 5.41-20.433 15.135-21.583 25.326 9.409-6.439 18.469-13.517 28.17-19.706 17.17-10.953 35.449-22.264 55.805-22.89 5.448-.168 10.926.447 16.339-.192-5.904-5.085-14.236-6.591-21.985-5.765z" fill="#22938d"/><path d="m139.466 76.572c7.749.826 15.102 3.734 22.344 6.613 11.857 4.715 23.819 9.485 34.402 16.614 8.03 5.41 20.433 15.135 21.583 25.326-9.409-6.439-18.469-13.517-28.17-19.706-17.17-10.953-35.449-22.264-55.805-22.89-5.448-.168-10.926.447-16.339-.192 5.904-5.085 14.235-6.591 21.985-5.765z" fill="#22938d"/><path d="m259.448 233.48c6.733 10.558 6.608 25.078-.305 35.519 10.44 12.346 19.742 10.974 33.273 19.823 11.779 7.703 26.762 26.29 37.965 34.81-.133-1.752-.921-4.146-1.959-6.639-2.76-6.628-6.675-12.713-11.385-18.132l-5.814-6.689c-5.312-6.112-11.643-11.256-18.732-15.171-11.179-6.174-27.834-16.864-28.704-26.158" fill="#22938d"/><path d="m208.845 233.48c-6.733 10.558-6.608 25.078.305 35.519-10.44 12.346-19.742 10.974-33.273 19.823-11.779 7.703-26.762 26.29-37.965 34.81.133-1.752.921-4.146 1.959-6.639 2.76-6.628 6.675-12.713 11.385-18.132l5.814-6.689c5.312-6.112 11.643-11.256 18.732-15.171 11.179-6.174 27.834-16.864 28.704-26.158" fill="#22938d"/><path d="m249.136 272.409c-1.779 0-3.511-.28-5.149-.832-3.383-1.139-5.764-4.009-7.866-6.54-.006-.007-.012-.014-.017-.021-1.016-1.224-2.898-1.224-3.914 0-.006.007-.012.014-.018.021-2.101 2.531-4.483 5.401-7.865 6.54-1.638.552-3.37.832-5.15.832-5.705 0-11.152-2.846-14.214-7.428-4.063-6.079-4.052-14.504.03-24.364 5.627-13.592 17.619-24.91 26.688-32.01l.917-.718c.921-.721 2.216-.721 3.137 0l.917.718c9.069 7.101 21.06 18.419 26.688 32.01 4.083 9.86 4.093 18.285.03 24.364-3.062 4.581-8.509 7.428-14.214 7.428z" fill="#385766"/><path d="m259.595 242.158c-3.876-9.36-11.16-17.911-19.028-24.994-3.64-3.277-9.2-3.277-12.841 0-7.868 7.083-15.152 15.633-19.028 24.994-2.737 6.61-4.379 14.633-.403 20.582 3.097 4.633 9.442 6.795 14.724 5.016 4.488-1.512 7.595-8.965 11.128-9.686 3.533.72 6.64 8.174 11.128 9.686 5.281 1.779 11.627-.383 14.724-5.016 3.974-5.949 2.333-13.971-.404-20.582z" fill="#1a2b35"/><path d="m209.402 89.233c2.621-.256 5.324-.296 8.008-.334 18.894-.271 38.72-.456 55.571 3.284-13.545.04-27.089.061-40.634.061-6.535 0-33.606 1.49-37.036-.65 4.471-.845 9.29-1.892 14.091-2.361z" fill="#22938d"/><path d="m115.002 258.156c-.563-1.665-.855-3.423-1.145-5.168-2.04-12.283-4.054-25.189-.786-36.843 1.266 8.832 2.506 17.668 3.721 26.508.586 4.264 4.917 21.671 2.49 24.284-1.481-2.768-3.251-5.73-4.28-8.781z" fill="#22938d"/><path d="m140.118 273.649c-.563-1.665-.855-3.423-1.145-5.168-2.04-12.283-4.054-25.189-.786-36.843 1.266 8.832 2.506 17.668 3.721 26.508.586 4.264 4.917 21.671 2.49 24.284-1.481-2.769-3.25-5.73-4.28-8.781z" fill="#22938d"/><path d="m353.291 258.156c.563-1.665.855-3.423 1.145-5.168 2.04-12.283 4.054-25.189.786-36.843-1.266 8.832-2.506 17.668-3.721 26.508-.586 4.264-4.917 21.671-2.49 24.284 1.48-2.768 3.25-5.73 4.28-8.781z" fill="#22938d"/><path d="m328.175 273.649c.563-1.665.855-3.423 1.145-5.168 2.04-12.283 4.054-25.189.786-36.843-1.266 8.832-2.506 17.668-3.721 26.508-.586 4.264-4.917 21.671-2.49 24.284 1.48-2.769 3.25-5.73 4.28-8.781z" fill="#22938d"/><path d="m302.656 52.992c-1.814-1.018-3.757-1.901-5.688-2.778-13.586-6.173-27.873-12.577-41.272-15.144 9.789 4.311 19.584 8.608 29.385 12.89 4.729 2.066 23.839 11.723 27.01 11.228-2.962-2.036-6.113-4.332-9.435-6.196z" fill="#22938d"/><path d="m309.96 133.056 1.837 13.024 5.967-11.722-2.491 12.915 9.449-9.149-6.549 11.406 11.908-5.585-9.898 8.661 13.076-1.416-12.174 4.979 12.827 2.906-13.131.756 11.189 6.914-12.665-3.549 8.338 10.172-10.827-7.469 4.583 12.329-7.814-10.58.331 13.149-3.956-12.544-3.956 12.544.332-13.149-7.815 10.58 4.583-12.329-10.827 7.469 8.338-10.172-12.665 3.549 11.189-6.914-13.131-.756 12.827-2.906-12.174-4.979 13.076 1.416-9.898-8.661 11.908 5.585-6.549-11.406 9.449 9.149-2.491-12.915 5.967 11.722z" fill="#f7d98f"/><path d="m158.333 133.056 1.837 13.024 5.966-11.722-2.491 12.915 9.45-9.149-6.55 11.406 11.908-5.585-9.898 8.661 13.076-1.416-12.174 4.979 12.828 2.906-13.131.756 11.188 6.914-12.664-3.549 8.337 10.172-10.826-7.469 4.583 12.329-7.815-10.58.331 13.149-3.955-12.544-3.956 12.544.331-13.149-7.814 10.58 4.582-12.329-10.826 7.469 8.337-10.172-12.664 3.549 11.188-6.914-13.131-.756 12.828-2.906-12.174-4.979 13.076 1.416-9.898-8.661 11.908 5.585-6.55-11.406 9.45 9.149-2.491-12.915 5.966 11.722z" fill="#f7d98f"/><circle cx="158.333" cy="156.928" fill="#fcd462" r="20.093"/><path d="m170.922 172.582c-3.445 2.782-7.831 4.44-12.593 4.44-11.101 0-20.092-8.991-20.092-20.092 0-4.781 1.667-9.166 4.459-12.612z" fill="#efc356"/><path d="m111.741 116.056c7.756 1.304 12.347 1.241 19.546 5.662l50.409 30.969c6.36 3.906 12.868 7.876 20.152 9.519.028.007.063.014.092.021 7.256 1.608 15.534.508 20.886-4.647-10.986-3.025-21.231-8.701-29.622-16.415-3.201-2.94-6.127-6.163-9.3-9.131-4.569-4.266-9.611-7.975-14.653-11.67-6.191-4.548-12.389-9.096-18.587-13.637-5.345-3.928-11.049-7.989-17.649-8.602-6.508-.606-12.953 2.327-17.903 6.607-.663.571-1.417 1.213-2.186 1.897-4.012 3.561-8.37 8.222-1.185 9.427z" fill="#344d5e"/><path d="m111.741 116.056c7.756 1.304 12.347 1.241 19.546 5.662l50.409 30.969c6.36 3.906 12.868 7.876 20.152 9.519.028.007.063.014.092.021-13.305-15.541-27.225-31.35-45.579-40.382-8.539-4.21-17.769-6.797-26.893-9.568-5.042-1.53-10.062-3.11-14.998-4.957-.423-.155-.959-.402-1.544-.691-4.012 3.561-8.37 8.222-1.185 9.427z" fill="#64798a"/><circle cx="158.333" cy="156.928" fill="#ce412d" r="10.802"/><circle cx="158.333" cy="156.928" fill="#001b2d" r="4.933"/><circle cx="162.541" cy="156.154" fill="#e1e6e9" r="3.284"/><circle cx="309.947" cy="156.928" fill="#fcd462" r="20.093"/><path d="m325.597 144.318c2.791 3.445 4.459 7.831 4.459 12.612 0 11.101-8.991 20.092-20.092 20.092-4.763 0-9.148-1.658-12.593-4.44z" fill="#efc356"/><circle cx="309.947" cy="156.928" fill="#ce412d" r="10.802"/><circle cx="309.947" cy="156.928" fill="#001b2d" r="4.933"/><circle cx="305.764" cy="156.154" fill="#e1e6e9" r="3.284"/><path d="m356.551 116.056c-7.756 1.304-12.347 1.241-19.546 5.662-16.803 10.323-33.606 20.646-50.409 30.969-6.36 3.906-12.868 7.876-20.152 9.519-.028.007-.063.014-.092.021-7.256 1.608-15.534.508-20.886-4.647 10.986-3.025 21.231-8.701 29.622-16.415 3.201-2.94 6.127-6.163 9.301-9.131 4.569-4.266 9.611-7.975 14.653-11.67 6.191-4.548 12.389-9.096 18.587-13.637 5.345-3.928 11.049-7.989 17.649-8.602 6.508-.606 12.953 2.327 17.903 6.607.663.571 1.417 1.213 2.186 1.897 4.012 3.561 8.37 8.222 1.184 9.427z" fill="#344d5e"/><path d="m266.722 8.571c-3.39-.782-7.467-.408-9.581 2.355-1.393 1.822-1.665 4.348-3.186 6.064-3.562 4.019-10.629.855-15.323 3.464-3.236 1.798-4.456 5.924-4.306 9.623.05 1.242.211 2.54-.272 3.685-1.059 2.515-4.405 2.893-7.135 2.887-4.636-.01-9.271-.02-13.906-.03-1.69-.004-3.468.014-4.938.848-3.735 2.119-3.13 7.598-2.017 11.746-8.536 1.224-18.254 3.218-22.492 10.728-.804 1.425-1.407 3.047-2.693 4.059-2.19 1.722-5.426.978-7.877-.346-5.069-2.738-9.087-7.609-14.713-8.851-4.648-1.026-9.816.897-12.662 4.713-1.419 1.902-2.36 4.274-4.35 5.566-2.665 1.731-6.144.909-9.312.647-10.774-.893-20.682 5.405-29.651 11.441-1.208.813-2.44 1.649-3.314 2.814-2.606 3.475-1.194 8.385.318 12.457.907 2.441 1.976 5.079 4.248 6.353 1.531.858 3.367.943 5.121.908 17.102-.342 32.776-9.944 49.785-11.762 8.651-.925 17.395.194 26.084-.24 8.69-.435 17.835-2.739 23.759-9.112 1.769-1.903 3.223-4.139 5.325-5.666 6.713-4.874 17.207-.805 23.779-5.868 6.263-4.825 5.823-15.682 12.745-19.504 2.574-1.421 5.641-1.507 8.528-2.066s5.979-1.907 7.052-4.645c.991-2.529.028-5.729 1.714-7.859 1.502-1.899 4.288-1.945 6.642-2.513 3.927-.949 7.444-4.124 8.019-8.122.988-6.865-9.849-12.496-15.391-13.774z" fill="#ce412d"/><path d="m356.551 116.056c-7.756 1.304-12.347 1.241-19.546 5.662-16.803 10.323-33.606 20.646-50.409 30.969-6.36 3.906-12.868 7.876-20.152 9.519-.028.007-.063.014-.092.021 13.306-15.541 27.225-31.35 45.579-40.382 8.539-4.21 17.769-6.797 26.893-9.568 5.042-1.53 10.062-3.11 14.998-4.957.423-.155.959-.402 1.544-.691 4.013 3.561 8.371 8.222 1.185 9.427z" fill="#64798a"/><path d="m277.824 5.905c-6.172 6.771-14.113 11.921-22.81 14.823-1.971.663-3.98 1.207-6.016 1.621-.387.092-.783.166-1.179.24-1.023.184-2.1.359-2.939.995-3.031 2.275-.157 7.352-1.658 10.834-.009.018-.018.037-.028.055-.35.792-.884 1.419-1.538 1.916-1.631 1.271-4.026 1.769-6.163 2.082-4.772.7-9.544 1.391-14.307 2.091-.866.129-1.815.304-2.34 1.004-.59.792-.378 1.889-.276 2.865.286 2.856-.829 5.758-2.782 7.84-1.078 1.152-2.423 2.064-3.924 2.57-.746.258-1.511.415-2.285.516h-.018c-2.432.313-4.965 0-7.444-.055-3.28-.064-6.919.544-8.936 3.132-1.308 1.677-1.713 3.924-2.404 5.96-.479 1.419-1.096 2.736-2.248 3.667-1.373 1.105-3.224 1.391-4.984 1.511-4.45.295-8.945-.286-13.183-1.667-1.787-.58-3.519-1.308-5.187-2.165-3.501-1.815-7.047-4.302-10.963-3.878-3.335.35-6.034 2.736-8.844 4.569-5.795 3.777-12.584 5.352-19.355 7.02-3.399.829-6.799 1.677-10.06 2.837-1.962.691-3.869 1.492-5.702 2.469-2.073 1.096-4.054 2.414-6.311 3.031-2.266.617-4.938.378-6.559-1.308-1.483-1.548-1.658-3.694-1.29-5.877 4.155-6.218 8.706-12.133 13.616-17.725 1.815-2.073 3.685-4.109 5.601-6.089 30.318-31.36 72.373-50.789 118.84-50.789 3.731 0 7.434.129 11.11.368 2.487.175 4.965.396 7.425.682 8.596.968 16.988 2.598 25.141 4.855z" fill="#d15241"/><path d="m222.256 14.095c1.729 1.211 3.536 2.315 5.405 3.305 2.682 1.42 5.576 2.665 7.587 4.906s2.796 5.885.791 8.057c-1.867 2.022-5.158 1.904-7.93 1.345-3.766-.76-7.43-2.048-10.84-3.812-.35-.181-.739-.373-1.119-.281-.527.127-.753.718-.868 1.235-1.024 4.605.555 9.685 3.924 13.159 2.246 2.316 5.516 4.719 4.843 7.791-.328 1.5-1.567 2.611-2.742 3.621-1.781 1.53-3.63 3.098-5.904 3.798-1.569.483-3.267.526-4.816 1.064-3.854 1.337-6.252 5.518-10.283 6.257-2.327.427-4.725-.411-6.866-1.454-1.29-.628-2.597-1.389-3.332-2.597-1.341-2.205-.32-4.963.72-7.275 1.502-3.339 3.004-6.678 4.505-10.017-3.946-3.276-6.968-7.941-7.076-12.941-.107-5 3.299-10.116 8.331-11.046 4.149-.766 8.955 1.162 12.448-1.107 2.46-1.598 3.262-4.686 4.759-7.169.925-1.536 3.988-4.482 5.512-2.775.327.366-.025 2.678.331 3.414.511 1.059 1.675 1.861 2.62 2.522z" fill="#ec947c"/><path d="m259.398 12.595c.769.538 1.572 1.029 2.403 1.469 1.192.631 2.479 1.185 3.373 2.181s1.243 2.616.351 3.582c-.83.899-2.293.847-3.525.598-1.674-.338-3.303-.91-4.819-1.694-.155-.08-.329-.166-.498-.125-.234.057-.335.319-.386.549-.455 2.047.247 4.306 1.744 5.85.999 1.029 2.452 2.098 2.153 3.464-.146.667-.697 1.161-1.219 1.61-.792.68-1.614 1.377-2.625 1.689-.697.215-1.452.234-2.141.473-1.713.595-2.779 2.453-4.571 2.782-1.035.19-2.1-.183-3.052-.646-.573-.279-1.155-.617-1.481-1.154-.596-.98-.142-2.206.32-3.234.668-1.484 1.335-2.969 2.003-4.453-1.754-1.456-3.098-3.53-3.145-5.753-.048-2.223 1.467-4.497 3.704-4.91 1.844-.341 3.981.517 5.534-.492 1.093-.71 1.45-2.083 2.116-3.187.411-.683 1.773-1.993 2.451-1.234.145.163-.011 1.19.147 1.518.226.466.743.822 1.163 1.117z" fill="#ec947c"/><path d="m166.007 79.972c-1.742-.27-3.526-.739-4.977-1.804s-2.497-2.841-2.232-4.507c.072-.454.237-.894.208-1.36-.048-.759-.596-1.429-1.152-1.999-2.121-2.175-4.793-3.835-7.66-4.757-1.288-.414-2.632-.691-3.819-1.364s-2.221-1.877-2.19-3.17c.048-1.993 2.511-3.48 1.813-5.412-.206-.57-.665-1.033-1.146-1.428-2.206-1.812-5.385-2.936-6.254-5.574-.881-2.674 1.428-5.27 4.106-5.889s5.568.134 8.357.679 5.843.84 8.143-.556c.832-.505 1.517-1.207 2.345-1.717.155-.096.314-.184.476-.265 1.582-.792 1.266-3.148-.507-3.424-.061-.009-.121-.019-.182-.028-1.28-.188-2.051-1.579-1.413-2.678.467-.805 1.178-1.487 1.987-1.966 1.557-.921 3.435-1.233 5.269-1.529 2.647-.428 5.294-.855 7.941-1.283 1.353-.219 2.885-.398 4.057.43 1.251.883 1.562 2.531 1.758 3.986.17 1.261.341 2.541.163 3.775-.536 3.722-3.997 6.085-5.825 9.297-1.033 1.815-1.568 3.953-2.968 5.5-1.383 1.528-3.584 2.228-5.746 2.013-1.333-.133-2.288 1.21-1.773 2.449l.318.766c.376.905.758 1.822 1.347 2.623 1.444 1.966 3.892 2.954 5.693 4.621 3.454 3.195 3.854 8.876 1.058 12.191s-8.244 3.995-12.382 1.771c-.705-.379-1.403-.86-1.791-1.549-.458-.814-.406-1.763-.422-2.662-.043-2.423-.683-4.882-1.851-7.107" fill="#ec947c"/><path d="m104.54 77.662c.589 1.131 1.341 2.188 2.229 3.131.647.687 1.394 1.331 2.302 1.638s2.004.211 2.655-.432c.177-.175.32-.387.534-.521.348-.218.808-.186 1.227-.12 1.598.254 3.137.916 4.412 1.897.573.441 1.102.949 1.757 1.264.656.314 1.497.393 2.056-.029.861-.65.765-2.212 1.825-2.512.313-.089.655-.031.974.058 1.465.407 2.923 1.462 4.344 1.015 1.441-.453 1.88-2.296 1.339-3.679s-1.748-2.427-2.833-3.492-2.141-2.327-2.227-3.787c-.031-.528.07-1.054.042-1.582-.072-1.387-.999-2.609-1.887-3.735 1.674.818 3.151 2.018 4.267 3.467.875-.491 1.248-1.548 1.18-2.529s-.501-1.913-.927-2.819c-.615-1.309-1.231-2.618-1.846-3.927-.315-.669-.701-1.405-1.42-1.664-.767-.276-1.585.106-2.283.478-.605.322-1.219.651-1.706 1.118-1.471 1.412-1.458 3.693-2.314 5.517-.483 1.031-1.26 1.943-1.514 3.052-.383 1.67.656 3.577 2.332 4.276-.814.189-1.627.378-2.441.568-.511.119-1.03.239-1.56.23-1.301-.02-2.477-.794-3.756-1.067-2.451-.524-5.066 1.091-5.672 3.377-.607 2.286.748 4.917 2.979 6.051.38.193.803.351 1.223.305.496-.054.897-.376 1.297-.653 1.077-.746 2.35-1.237 3.681-1.421" fill="#ec947c"/></svg>