<?xml version="1.0" encoding="iso-8859-1"?>
<!-- Generator: Adobe Illustrator 19.0.0, SVG Export Plug-In . SVG Version: 6.00 Build 0)  -->
<svg version="1.1" id="Capa_1" xmlns="http://www.w3.org/2000/svg" xmlns:xlink="http://www.w3.org/1999/xlink" x="0px" y="0px"
	 viewBox="0 0 470.82 470.82" style="enable-background:new 0 0 470.82 470.82;" xml:space="preserve">
<path style="fill:#3A556A;" d="M418.941,295.492c-4.402,0-8.236-1.33-11.384-3.949c-4.837-4.042-6.43-9.983-6.955-11.935
	c-3.534-13.145-1.511-26.188,0.278-37.695c0.625-4.033,1.268-8.185,1.619-12.029c0.412-4.509,0.482-9.18,0.551-14.124
	c0.139-9.299,0.278-18.903,2.714-28.752c0.399-1.624,0.69-3.827,0.999-6.159c0.504-3.832,1.064-8.084,2.384-12.072
	c2.523-7.683,8.267-11.21,11.697-13.32c0.894-0.55,2.01-1.237,2.41-1.614c0.482-0.466,1.385-1.956,2.041-3.045
	c1.667-2.739,3.929-6.47,7.615-9.362c3.634-2.853,8.015-4.36,12.669-4.36c5.666,0,11.371,2.315,15.656,6.35
	c6.252,5.893,9.83,15.363,9.573,25.327c-0.122,4.762-1.042,9.055-1.85,12.842c-0.399,1.835-0.79,3.6-1.046,5.384
	c-0.96,6.563-0.07,13.906,0.873,21.682c1.098,9.041,2.34,19.233,0.69,29.635c-1.602,10.117-5.579,18.735-9.083,26.339
	c-1.81,3.92-4.055,8.78-7.337,13.162c-6.608,8.835-16.915,14.937-29.02,17.181C422.137,295.33,420.522,295.492,418.941,295.492z"/>
<g>
	<path style="fill:#27A2DB;" d="M418.941,288.145c-2.922,0-5.401-0.83-7.368-2.466c-2.761-2.308-3.934-5.759-4.576-8.154
		c-3.096-11.512-1.289-23.139,0.456-34.383c0.643-4.143,1.307-8.424,1.68-12.524c0.443-4.817,0.512-9.644,0.586-14.753
		c0.13-8.843,0.269-17.984,2.479-26.927c0.512-2.079,0.834-4.525,1.177-7.116c0.469-3.571,0.955-7.262,2.036-10.529
		c1.68-5.116,5.562-7.503,8.679-9.419c1.342-0.825,2.609-1.605,3.521-2.473c1.159-1.112,2.171-2.772,3.235-4.533
		c1.52-2.502,3.243-5.339,5.931-7.448c2.496-1.959,5.54-2.997,8.801-2.997c4.103,0,8.228,1.672,11.323,4.588
		c4.737,4.466,7.442,11.768,7.242,19.534c-0.104,4.033-0.912,7.785-1.689,11.414c-0.421,1.945-0.842,3.889-1.129,5.853
		c-1.116,7.647-0.156,15.528,0.855,23.873c1.081,8.883,2.197,18.068,0.725,27.346c-1.433,9.041-5.171,17.142-8.466,24.287
		c-1.745,3.779-3.725,8.058-6.53,11.806c-5.588,7.47-14.458,12.658-24.982,14.609C421.412,288.013,420.144,288.145,418.941,288.145z
		"/>
	<path style="fill:#27A2DB;" d="M430.519,163.104c3.494-3.339,5.069-8.735,8.835-11.693c4.3-3.377,10.641-2.46,14.654,1.322
		c4.012,3.783,5.84,9.856,5.69,15.672c-0.145,5.641-1.948,11.056-2.76,16.628c-2.466,16.913,4.264,34.279,1.589,51.153
		c-1.284,8.099-4.668,15.583-8.051,22.911c-1.753,3.796-3.536,7.62-5.994,10.907c-5.454,7.292-13.836,11.33-22.294,12.897
		c-2.706,0.501-5.741,0.692-7.929-1.133c-1.602-1.336-2.426-3.509-2.997-5.632c-3.906-14.538,0.918-29.944,2.296-45.03
		c1.245-13.631-0.337-27.663,2.931-40.883c1.326-5.364,1.452-12.256,3.1-17.258C421.313,167.731,426.94,166.524,430.519,163.104z"/>
</g>
<g>
	<path style="fill:#2D93BA;" d="M436.104,186.907c1.208-1.522,2.761-2.983,4.596-2.979c1.667,0.004,3.106,1.214,4.405,2.365
		c0.456-1.369,0.746-2.806,0.858-4.259c0.102-1.31,0.041-2.707-0.601-3.816c-0.953-1.648-2.977-2.21-4.721-1.853
		c-1.744,0.357-3.279,1.451-4.762,2.522c-2.174,1.568-4.395,3.184-5.95,5.478c-1.675,2.47-6.01,15.974-2.431,17.819
		C428.74,202.823,434.378,189.087,436.104,186.907z"/>
	<path style="fill:#2D93BA;" d="M445.467,209.847c0.097,1.703,0.159,3.428-0.148,5.1c-0.396,2.165-1.386,4.131-2.167,6.165
		c-1.932,5.031-2.601,10.522-3.251,15.938c-0.109,0.912-0.195,1.932,0.313,2.661c0.615,0.884,1.886,0.911,2.753,0.339
		c0.867-0.573,1.411-1.58,1.866-2.575c3.444-7.531,3.674-16.287,3.834-24.719c0.059-3.096,0.37-8.6-1.746-11.075
		C443.182,197.309,445.324,207.356,445.467,209.847z"/>
	<path style="fill:#2D93BA;" d="M431.726,249.275c-5.249-0.585-7.167-15.355-0.965-14.482
		C436.93,235.662,439.091,250.096,431.726,249.275z"/>
</g>
<path style="fill:#3A556A;" d="M51.879,295.492c4.402,0,8.236-1.33,11.384-3.949c4.837-4.042,6.43-9.983,6.955-11.935
	c3.534-13.145,1.511-26.188-0.278-37.695c-0.625-4.033-1.268-8.185-1.619-12.029c-0.412-4.509-0.482-9.18-0.551-14.124
	c-0.139-9.299-0.278-18.903-2.714-28.752c-0.399-1.624-0.69-3.827-0.999-6.159c-0.504-3.832-1.064-8.084-2.384-12.072
	c-2.523-7.683-8.267-11.21-11.697-13.32c-0.894-0.55-2.01-1.237-2.41-1.614c-0.482-0.466-1.385-1.956-2.041-3.045
	c-1.667-2.739-3.929-6.47-7.615-9.362c-3.634-2.853-8.015-4.36-12.669-4.36c-5.666,0-11.371,2.315-15.656,6.35
	c-6.252,5.893-9.83,15.363-9.573,25.327c0.122,4.762,1.042,9.055,1.85,12.842c0.399,1.835,0.79,3.6,1.046,5.384
	c0.96,6.563,0.069,13.906-0.873,21.682c-1.098,9.041-2.34,19.233-0.69,29.635c1.602,10.117,5.579,18.735,9.083,26.339
	c1.81,3.92,4.055,8.78,7.337,13.162c6.608,8.835,16.915,14.937,29.02,17.181C48.683,295.33,50.298,295.492,51.879,295.492z"/>
<g>
	<path style="fill:#27A2DB;" d="M51.879,288.145c2.922,0,5.401-0.83,7.368-2.466c2.761-2.308,3.934-5.759,4.576-8.154
		c3.096-11.512,1.289-23.139-0.456-34.383c-0.643-4.143-1.307-8.424-1.68-12.524c-0.443-4.817-0.512-9.644-0.586-14.753
		c-0.13-8.843-0.269-17.984-2.479-26.927c-0.512-2.079-0.834-4.525-1.177-7.116c-0.469-3.571-0.955-7.262-2.036-10.529
		c-1.68-5.116-5.562-7.503-8.679-9.419c-1.342-0.825-2.609-1.605-3.521-2.473c-1.159-1.112-2.171-2.772-3.235-4.533
		c-1.52-2.502-3.243-5.339-5.931-7.448c-2.496-1.959-5.54-2.997-8.801-2.997c-4.103,0-8.228,1.672-11.323,4.588
		c-4.737,4.466-7.442,11.768-7.242,19.534c0.104,4.033,0.912,7.785,1.689,11.414c0.421,1.945,0.842,3.889,1.129,5.853
		c1.116,7.647,0.156,15.528-0.855,23.873c-1.081,8.883-2.197,18.068-0.725,27.346c1.433,9.041,5.171,17.142,8.466,24.287
		c1.745,3.779,3.725,8.058,6.53,11.806c5.588,7.47,14.458,12.658,24.982,14.609C49.408,288.013,50.676,288.145,51.879,288.145z"/>
	<path style="fill:#27A2DB;" d="M40.301,163.104c-3.494-3.339-5.069-8.735-8.835-11.693c-4.3-3.377-10.641-2.46-14.653,1.322
		s-5.84,9.856-5.69,15.672c0.145,5.641,1.948,11.056,2.76,16.628c2.466,16.913-4.264,34.279-1.589,51.153
		c1.284,8.099,4.668,15.583,8.051,22.911c1.753,3.796,3.536,7.62,5.994,10.907c5.454,7.292,13.836,11.33,22.294,12.897
		c2.706,0.501,5.741,0.692,7.929-1.133c1.602-1.336,2.426-3.509,2.997-5.632c3.906-14.538-0.918-29.944-2.296-45.03
		c-1.245-13.631,0.336-27.663-2.931-40.883c-1.326-5.364-1.452-12.256-3.1-17.258C49.507,167.731,43.88,166.524,40.301,163.104z"/>
</g>
<g>
	<path style="fill:#2D93BA;" d="M34.716,186.907c-1.208-1.522-2.761-2.983-4.596-2.979c-1.667,0.004-3.106,1.214-4.405,2.365
		c-0.456-1.369-0.746-2.806-0.858-4.259c-0.102-1.31-0.041-2.707,0.601-3.816c0.953-1.648,2.977-2.21,4.721-1.853
		c1.744,0.357,3.279,1.451,4.762,2.522c2.174,1.568,4.395,3.184,5.95,5.478c1.675,2.47,6.01,15.974,2.431,17.819
		C42.08,202.823,36.442,189.087,34.716,186.907z"/>
	<path style="fill:#2D93BA;" d="M25.353,209.847c-0.097,1.703-0.159,3.428,0.148,5.1c0.396,2.165,1.386,4.131,2.167,6.165
		c1.932,5.031,2.601,10.522,3.251,15.938c0.109,0.912,0.195,1.932-0.313,2.661c-0.615,0.884-1.886,0.911-2.753,0.339
		c-0.867-0.573-1.411-1.58-1.866-2.575c-3.444-7.531-3.674-16.287-3.834-24.719c-0.059-3.096-0.37-8.6,1.746-11.075
		C27.638,197.309,25.496,207.356,25.353,209.847z"/>
	<path style="fill:#2D93BA;" d="M39.094,249.275c5.249-0.585,7.167-15.355,0.965-14.482
		C33.89,235.662,31.729,250.096,39.094,249.275z"/>
</g>
<path style="fill:#3A556A;" d="M235.408,469.481c-2.983,0.003-9.429,0.074-11.933,0.074c-17.551,0-36.926-1.08-47.557-9.092
	c-4.707-3.547-8.253-7.883-11.379-11.709c-1.133-1.386-2.262-2.774-3.447-4.106c-11.075-12.443-26.711-19.622-43.277-27.22
	c-2.688-1.231-5.36-2.456-8.006-3.703l-4.011-1.861c-8.923-4.111-19.043-8.77-26.964-15.888
	c-9.498-8.536-14.394-20.935-18.326-30.899l-0.453-1.152c-8.396-21.196-17.91-45.224-17.904-70.729
	c0.005-8.625,1.091-16.974,2.145-25.049c0.77-5.906,1.497-11.485,1.808-17.061c0.543-9.637-0.132-19.414-0.849-29.763
	c-1.202-17.309-2.44-35.205,2.335-53.025c1.123-4.203,2.53-8.185,3.89-12.033c1.655-4.68,3.215-9.1,4.111-13.458
	c1.165-5.65,1.323-11.732,1.497-18.17c0.169-6.341,0.337-12.897,1.486-19.62c5.086-29.726,27.687-55.739,67.169-77.322
	c32.082-17.538,68.982-26.432,109.666-26.432c40.689,0,77.589,8.894,109.671,26.432c39.482,21.583,62.083,47.596,67.169,77.32
	c1.149,6.731,1.323,13.292,1.486,19.636c0.169,6.435,0.332,12.512,1.492,18.16c0.901,4.356,2.461,8.781,4.116,13.464
	c1.36,3.845,2.767,7.822,3.89,12.025c4.775,17.82,3.537,35.716,2.335,53.025c-0.717,10.349-1.391,20.126-0.849,29.763
	c0.311,5.576,1.038,11.155,1.808,17.061c1.054,8.075,2.14,16.423,2.145,25.046c0.005,25.507-9.508,49.536-17.904,70.734l-0.48,1.21
	c-3.927,9.943-8.818,22.316-18.3,30.838c-7.922,7.118-18.041,11.777-26.964,15.888l-4.011,1.861c-2.641,1.244-5.313,2.469-7.995,3.7
	c-16.571,7.595-32.214,14.78-43.282,27.217c-1.19,1.337-2.319,2.725-3.452,4.111c-3.126,3.826-6.673,8.162-11.384,11.711
	c-10.631,8.009-30.006,9.143-47.557,9.089C244.357,469.545,238.391,469.478,235.408,469.481z"/>
<path style="fill:#27A2DB;" d="M413.937,251.694c-1.517-26.93,5.846-54.545-1.131-80.6c-2.359-8.813-6.312-17.173-8.152-26.109
	c-2.576-12.509-0.897-25.559-3.05-38.149c-5.416-31.669-33.508-54.256-61.7-69.668c-31.975-17.481-68.051-25.109-104.494-25.109
	s-72.517,7.628-104.494,25.109c-28.192,15.412-56.284,37.999-61.7,69.668c-2.153,12.589-0.474,25.64-3.05,38.149
	c-1.839,8.936-5.792,17.296-8.152,26.109c-6.976,26.055,0.387,53.67-1.129,80.6c-0.783,13.884-3.935,27.601-3.939,41.507
	c-0.007,23.12,8.633,45.258,17.145,66.754c3.84,9.697,8.04,20.873,15.961,27.991c7.816,7.025,18.95,11.587,28.355,16.014
	c19.319,9.095,40.217,17.162,54.752,33.511c4.341,4.882,8.04,10.442,13.258,14.373c10.793,8.131,39.481,6.844,52.995,6.844
	c13.514,0,42.202,1.288,52.995-6.844c5.218-3.931,8.917-9.49,13.258-14.373c14.536-16.35,35.433-24.416,54.754-33.511
	c9.403-4.427,20.537-8.989,28.354-16.014c7.921-7.118,12.121-18.294,15.961-27.991c8.511-21.496,17.151-43.635,17.145-66.754
	C417.871,279.295,414.719,265.577,413.937,251.694z"/>
<path style="fill:#3A556A;" d="M158.441,173.916c-18.347,0-33.611-8.66-39.835-22.6c-4.796-10.744-3.858-23.117,2.656-34.836
	c6.093-10.955,16.46-20.123,29.204-25.813c2.846-1.27,6.077-1.916,9.603-1.916c20.023,0,47.82,21.433,54.667,32.588
	c5.629,9.163,4.253,20.88-3.357,28.493l-2.625,2.648c-7.273,7.379-9.318,9.166-23.723,15.596
	C176.477,171.897,167.285,173.916,158.441,173.916z"/>
<path style="fill:#F6A74B;" d="M207.839,125.573c3.641,5.927,2.736,13.614-2.183,18.534c-9.146,9.148-8.772,9.812-23.924,16.578
	c-23.058,10.297-48.011,4.625-55.734-12.669c-7.723-17.294,4.709-39.661,27.768-49.958
	C168.918,91.292,201.069,114.551,207.839,125.573z"/>
<path style="fill:#FCD462;" d="M199.955,138.37l-2.753,2.753c-6.152,6.261-6.638,6.746-18.782,12.143
	c-6.476,2.915-13.385,4.48-19.969,4.48c-11.873,0-21.48-5.019-25.043-13.007c-2.699-5.991-1.943-13.223,1.997-20.401
	c1.241-2.267,2.807-4.426,4.534-6.423c4.425-5.127,10.308-9.445,17.108-12.467c0.378-0.162,0.756-0.27,1.241-0.378
	c0.54-0.054,1.133-0.108,1.781-0.108c13.223,0,36.106,17.055,40.856,24.827C202.6,132.542,202.168,136.104,199.955,138.37z"/>
<path style="fill:#3A556A;" d="M305.07,182.47c-18.157,0-32.92-18.036-42.107-33.168c-6.309-10.386-4.728-23.631,3.848-32.203
	l23.033-23.035c4.954-4.952,11.537-7.679,18.542-7.679c4.807,0,9.524,1.323,13.651,3.826c15.132,9.174,33.173,23.931,33.173,42.12
	C355.209,159.978,332.714,182.47,305.07,182.47z"/>
<path style="fill:#F6A74B;" d="M347.113,132.331c0,23.207-18.836,42.044-42.044,42.044c-14.715,0-27.673-16.904-35.186-29.275
	c-4.352-7.166-3.278-16.349,2.651-22.278l23.035-23.035c5.926-5.925,15.102-7.002,22.268-2.657
	C330.208,104.632,347.113,117.581,347.113,132.331z"/>
<path style="fill:#FCD462;" d="M339.039,132.326c0,18.728-15.274,33.948-33.948,33.948c-3.616,0-7.609-1.781-11.765-5.127
	c-5.343-4.264-11.01-11.172-16.515-20.239c-1.619-2.699-1.888-5.883-0.863-8.689c0.432-1.349,1.241-2.591,2.32-3.67l15.598-15.598
	l7.447-7.448c1.457-1.457,3.347-2.429,5.343-2.753c0.594-0.108,1.133-0.162,1.727-0.162c1.835,0,3.67,0.486,5.235,1.457
	C329.756,113.814,339.039,124.122,339.039,132.326z"/>
<path style="fill:#64798A;" d="M322.737,399.337c-0.907,0-1.808-0.029-2.714-0.087c-3.863-0.253-7.758-0.988-11.611-2.182
	c-5.492-1.671-10.583-4.008-15.506-6.272c-2.082-0.957-4.164-1.913-6.262-2.809c-2.272-0.967-4.917-1.866-7.658-2.596
	c-13.203-3.763-31.281-6.048-43.572-6.678c-12.291,0.63-30.364,2.912-43.44,6.641c-2.867,0.767-5.513,1.666-7.795,2.635
	c-2.098,0.893-4.18,1.853-6.261,2.809c-4.917,2.261-10.009,4.601-15.543,6.283c-3.8,1.181-7.7,1.916-11.537,2.166
	c-0.933,0.061-1.839,0.09-2.741,0.09c-4.912,0-9.466-0.878-13.535-2.606c-10.035-4.214-17.788-13.667-21.246-25.921
	c-2.593-9.189-3.573-20.063-2.762-30.614c0.2-2.714,0.685-5.392,1.428-7.953c1.976-7.592,5.956-14.457,9.197-19.565
	c3.768-5.932,7.953-11.303,12.454-15.965c7.858-8.193,16.45-13.978,25.526-17.18c4.122-1.505,8.47-2.443,12.85-2.759
	c1.16-0.084,2.314-0.124,3.463-0.124c4.527,0,9.266,0.622,14.489,1.9c6.146,1.484,12.086,3.711,17.83,5.861
	c1.845,0.693,3.689,1.384,5.539,2.048c3.605,1.344,7.758,2.815,11.833,3.795c3.821,0.98,7.173,1.463,10.357,1.502
	c2.92-0.039,6.188-0.498,10.072-1.444c4.006-1.012,8.222-2.493,11.854-3.8l4.875-1.824c5.982-2.261,12.17-4.599,18.584-6.143
	c5.192-1.273,9.93-1.895,14.452-1.895c1.154,0,2.309,0.04,3.468,0.124c4.269,0.308,8.581,1.217,12.823,2.699
	c9.134,3.278,17.715,9.076,25.568,17.253c4.475,4.649,8.665,10.017,12.433,15.946c3.289,5.11,5.603,9.527,7.263,13.864
	c1.892,4.593,3.004,9.147,3.315,13.727c0.87,10.388-0.095,21.283-2.714,30.551c-3.389,12.033-11.337,21.725-21.256,25.921
	C332.197,398.459,327.644,399.337,322.737,399.337z"/>
<path style="fill:#3A556A;" d="M349.725,368.611c-2.482,8.797-8.204,17.109-16.623,20.671c-3.94,1.673-8.257,2.159-12.575,1.889
	c-3.293-0.216-6.584-0.863-9.715-1.835c-7.286-2.213-14.032-5.829-20.994-8.797c-2.537-1.079-5.505-2.105-8.744-2.969
	c-14.194-4.048-33.462-6.369-45.659-6.962c-12.198,0.594-31.466,2.914-45.659,6.962c-3.239,0.864-6.207,1.889-8.744,2.969
	c-6.962,2.968-13.708,6.584-20.994,8.797c-3.131,0.972-6.423,1.619-9.715,1.835c-4.318,0.27-8.635-0.216-12.576-1.889
	c-8.473-3.562-14.14-11.874-16.622-20.671c-2.483-8.797-3.185-18.674-2.483-27.795c0.162-2.159,0.54-4.264,1.134-6.314
	c1.619-6.207,4.803-12.035,8.257-17.487c3.292-5.181,7.124-10.201,11.442-14.68c6.422-6.692,13.979-12.197,22.398-15.166
	c3.4-1.241,7.016-2.051,10.74-2.321c5.236-0.378,10.363,0.324,15.436,1.565c7.61,1.835,15.058,4.965,22.559,7.664
	c4.21,1.565,8.42,3.022,12.684,4.048c3.994,1.025,8.042,1.673,12.143,1.727c4.102-0.054,8.096-0.702,12.089-1.673
	c4.264-1.079,8.474-2.537,12.683-4.048c7.502-2.753,15.004-5.883,22.614-7.718c5.073-1.242,10.2-1.943,15.436-1.565
	c3.724,0.27,7.34,1.079,10.74,2.267c8.419,3.023,15.975,8.527,22.398,15.22c4.318,4.48,8.15,9.499,11.441,14.68
	c2.537,3.94,4.858,8.042,6.531,12.413c1.511,3.67,2.537,7.448,2.807,11.388C352.91,349.937,352.208,359.814,349.725,368.611z"/>
<g>
	<path style="fill:#E1E6E9;" d="M166.872,117.592c0,7.448-6.045,13.493-13.439,13.493c-7.341,0-13.331-5.883-13.493-13.169
		c4.425-5.127,10.308-9.445,17.108-12.467c0.378-0.162,0.756-0.27,1.241-0.378C163.309,107.013,166.872,111.925,166.872,117.592z"/>
	<path style="fill:#E1E6E9;" d="M306.062,127.9c0,8.528-6.908,15.382-15.382,15.382c-6.962,0-12.899-4.641-14.734-11.064
		c0.432-1.349,1.241-2.591,2.32-3.67l15.598-15.598C300.827,114.354,306.062,120.506,306.062,127.9z"/>
</g>
<path style="fill:#D15241;" d="M349.725,368.611c-2.482,8.797-8.204,17.109-16.623,20.671c-6.962,2.914-15.057,2.267-22.29,0.054
	c-7.286-2.213-14.032-5.829-20.994-8.797c-4.372-1.835-9.877-3.454-15.922-4.803c-6.315-1.457-13.223-2.591-19.808-3.454
	c-3.023-0.378-5.937-0.702-8.743-0.971c-3.616-0.324-6.962-0.594-9.93-0.702c-2.969,0.108-6.314,0.378-9.985,0.702
	c-2.752,0.27-5.721,0.594-8.689,0.971c-6.584,0.863-13.493,1.997-19.862,3.454c-5.991,1.349-11.496,2.968-15.868,4.803
	c-6.962,2.968-13.708,6.584-20.994,8.797c-7.287,2.213-15.328,2.861-22.291-0.054c-8.473-3.562-14.14-11.874-16.622-20.671
	c-2.483-8.797-3.185-18.674-2.483-27.795c0.162-2.159,0.54-4.264,1.134-6.314c9.283,1.133,18.62,1.349,27.741-0.756
	c8.366-1.997,16.299-5.937,24.827-6.746c13.331-1.187,25.96,5.397,38.535,10.039c23.046,8.582,48.898,10.794,72.429,3.508
	c7.718-2.375,15.166-5.775,23.046-7.826c10.956-2.914,22.452-3.184,33.785-3.4c3.023-0.054,6.153-0.108,9.229,0.108
	c1.511,3.67,2.537,7.448,2.807,11.388C352.91,349.937,352.208,359.814,349.725,368.611z"/>
<g>
	<path style="fill:#EBF0F3;" d="M189.755,377.57c-3.239,0.864-6.207,1.889-8.744,2.969c-6.962,2.968-13.708,6.584-20.994,8.797
		c-3.131,0.972-6.423,1.619-9.715,1.835c-3.994-7.016-7.125-13.925-9.445-20.671c-8.905-25.582-6.854-49.168-1.403-68.165
		c7.934-27.471,23.1-45.228,23.1-45.228c-1.295,10.255-1.403,20.347-0.702,30.062c1.835,25.529,9.283,48.574,16.299,65.251
		c4.155,9.877,8.149,17.541,10.632,22.02C189.323,375.411,189.647,376.491,189.755,377.57z"/>
	<path style="fill:#EBF0F3;" d="M333.804,356.576c-2.266,11.118-6.476,22.722-13.277,34.595c-3.293-0.216-6.584-0.863-9.715-1.835
		c-7.286-2.213-14.032-5.829-20.994-8.797c-2.537-1.079-5.505-2.105-8.744-2.969c0.108-1.079,0.432-2.159,0.918-3.13
		c1.889-3.4,4.641-8.636,7.718-15.328c7.663-16.839,17.162-42.799,19.267-71.997c0.702-9.715,0.54-19.807-0.702-30.008
		c0,0,15.166,17.757,23.1,45.228C335.854,317.824,338.013,336.39,333.804,356.576z"/>
	<path style="fill:#EBF0F3;" d="M249.285,313.129c0.378,3.184-2.16,6.045-5.397,6.045h-2.214l-1.295-1.997l-1.781,1.997h-5.397
		l-1.673-3.454l-1.619,3.454h-3.023c-3.237,0-5.721-2.86-5.343-6.045l1.727-15.004c3.994,1.025,8.042,1.673,12.143,1.727
		c4.102-0.054,8.096-0.702,12.089-1.673L249.285,313.129z"/>
	<path style="fill:#EBF0F3;" d="M246.533,361.163l-1.188,10.147c-3.616-0.324-6.962-0.594-9.93-0.702
		c-2.969,0.108-6.314,0.378-9.985,0.702l-1.187-10.147c-0.269-2.59,1.727-4.858,4.318-4.858h2.428l1.295,2.753l1.349-2.753h4.318
		l1.457,1.565l1.025-1.565h1.781C244.805,356.305,246.856,358.572,246.533,361.163z"/>
	<path style="fill:#EBF0F3;" d="M216.741,372.281c-6.584,0.863-13.493,1.997-19.862,3.454l-2.86-8.474
		c-0.81-2.429,0.647-5.073,3.183-5.613l2.375-0.54l1.889,2.429l0.702-2.968l4.264-0.918l1.727,1.296l0.702-1.781l1.726-0.378
		c2.537-0.54,5.02,1.241,5.236,3.832L216.741,372.281z"/>
	<path style="fill:#EBF0F3;" d="M276.756,367.262l-2.86,8.474c-6.315-1.457-13.223-2.591-19.808-3.454l0.864-9.661
		c0.269-2.591,2.753-4.372,5.289-3.832l1.727,0.378l0.702,1.781l1.727-1.296l4.209,0.918l0.756,2.968l1.835-2.429l2.375,0.54
		C276.109,362.188,277.62,364.833,276.756,367.262z"/>
	<path style="fill:#EBF0F3;" d="M286.795,308.703l-2.105,0.702l-1.835-1.457l-1.026,2.429l-5.181,1.781l-2.645-2.753l-0.431,3.832
		l-2.861,0.971c-3.023,1.025-6.315-0.809-7.017-3.994l-3.508-16.083c7.502-2.753,15.004-5.883,22.614-7.718l7.124,14.842
		C291.328,304.17,289.871,307.624,286.795,308.703z"/>
	<path style="fill:#EBF0F3;" d="M210.587,294.077l-3.508,16.137c-0.648,3.184-3.94,5.019-7.017,3.994l-2.807-0.971l-0.432-3.832
		l-2.699,2.753l-5.128-1.781l-1.025-2.429l-1.889,1.457l-2.105-0.702c-3.023-1.079-4.479-4.533-3.13-7.448l7.178-14.842
		C195.638,288.248,203.086,291.378,210.587,294.077z"/>
</g>
<path style="fill:#3A556A;" d="M256.203,129.928c-6.398,0-11.379-4.256-13.003-11.105c-1.987-8.401,1.281-20.105,9.318-24.134
	c3.552-1.779,7.263-2.098,10.536-2.377c2.757-0.235,5.139-0.44,6.82-1.399c1.291-0.741,2.551-2.182,3.884-3.708
	c0.511-0.585,1.022-1.167,1.544-1.734c7.363-7.948,18.352-13.137,30.153-14.233c1.708-0.158,3.421-0.237,5.128-0.237
	c8.776,0,17.82,1.984,26.885,5.9c4.011,1.731,9.861,4.607,14.289,9.537c4.754,5.286,6.926,12.136,5.808,18.315
	c0,0-0.027,2.79-0.622,3.426c-0.595,0.636-3.378,0.849-3.378,0.849c-1.629,0.406-3.326,0.614-5.044,0.614
	c-5.882,0-11.153-2.311-16.249-4.549c-2.356-1.033-4.585-2.008-6.757-2.704c-2.973-0.954-6.193-1.436-9.571-1.436
	c-5.829,0-12.149,1.444-18.278,4.172c-9.376,4.174-17.799,10.871-25.626,17.369c-3.057,2.54-6.499,5.397-11.026,6.709
	C259.355,129.683,257.737,129.928,256.203,129.928z"/>
<path style="fill:#2D93BA;" d="M254.938,99.513c5.417-2.716,12.351-0.909,17.612-3.916c2.709-1.548,4.593-4.17,6.713-6.459
	c6.831-7.374,16.685-11.597,26.694-12.528c10.009-0.931,20.148,1.262,29.376,5.245c4.586,1.98,9.073,4.47,12.412,8.186
	c3.339,3.716,5.4,8.835,4.509,13.751c-8.536,2.138-16.714-3.863-25.095-6.545c-10.331-3.306-21.775-1.464-31.685,2.947
	s-18.537,11.219-26.882,18.148c-2.767,2.297-5.625,4.676-9.079,5.676C244.691,128.307,245.375,104.308,254.938,99.513z"/>
<path style="fill:#3A556A;" d="M214.617,129.928c6.398,0,11.379-4.256,13.003-11.105c1.987-8.401-1.281-20.105-9.318-24.134
	c-3.552-1.779-7.263-2.098-10.536-2.377c-2.757-0.235-5.139-0.44-6.82-1.399c-1.291-0.741-2.551-2.182-3.884-3.708
	c-0.511-0.585-1.022-1.167-1.544-1.734c-7.363-7.948-18.352-13.137-30.153-14.233c-1.708-0.158-3.421-0.237-5.128-0.237
	c-8.776,0-17.82,1.984-26.885,5.9c-4.011,1.731-9.861,4.607-14.289,9.537c-4.754,5.286-6.926,12.136-5.808,18.315
	c0,0,0.027,2.79,0.622,3.426c0.595,0.636,3.378,0.849,3.378,0.849c1.629,0.406,3.326,0.614,5.044,0.614
	c5.882,0,11.153-2.311,16.249-4.549c2.356-1.033,4.585-2.008,6.757-2.704c2.973-0.954,6.193-1.436,9.571-1.436
	c5.829,0,12.149,1.444,18.278,4.172c9.376,4.174,17.799,10.871,25.626,17.369c3.057,2.54,6.499,5.397,11.026,6.709
	C211.465,129.683,213.083,129.928,214.617,129.928z"/>
<path style="fill:#2D93BA;" d="M215.882,99.513c-5.417-2.716-12.351-0.909-17.612-3.916c-2.709-1.548-4.593-4.17-6.713-6.459
	c-6.831-7.374-16.685-11.597-26.694-12.528c-10.009-0.931-20.148,1.262-29.376,5.245c-4.586,1.98-9.073,4.47-12.412,8.186
	c-3.339,3.716-5.4,8.835-4.509,13.751c8.536,2.138,16.714-3.863,25.095-6.545c10.331-3.306,21.775-1.464,31.685,2.947
	c9.909,4.411,18.537,11.219,26.882,18.148c2.767,2.297,5.625,4.676,9.079,5.676C226.13,128.307,225.445,104.308,215.882,99.513z"/>
<g>
	<path style="fill:#64798A;" d="M346.983,171.519c-2.575,2.327-5.598,4.103-8.703,5.654c-2.207,1.102-4.466,2.099-6.767,2.986
		c-2.332,0.899-4.832,1.769-6.414,3.704c3.653,0.706,7.43,0.763,11.102,0.168c2.691-0.436,5.358-1.234,7.671-2.676
		c3.254-2.028,5.621-5.194,7.706-8.412c3.619-5.585,6.635-11.561,8.98-17.789c0.866-2.301,1.651-4.702,1.548-7.159
		c-0.104-2.462-2.263-7.749-3.466-3.101c-0.838,3.238-1.158,6.592-2.082,9.829C354.77,160.989,351.887,167.087,346.983,171.519z"/>
	<path style="fill:#64798A;" d="M314.707,190.295c-6.864,0.917-13.956,1.819-20.623-0.051c-5.198-1.458-9.782-4.508-14.267-7.513
		c-5.668-3.797-12.984-7.282-17.825-12.09c-1.249-1.241-3.52-5.263-1.287-6.648c1.516-0.94,4.186,0.994,5.289,1.861
		c4.533,3.568,8.102,8.145,12.871,11.548c4.871,3.476,10.183,6.334,15.769,8.479C301.054,188.347,307.841,189.87,314.707,190.295z"
		/>
	<path style="fill:#64798A;" d="M123.837,171.519c2.575,2.327,5.598,4.103,8.703,5.654c2.207,1.102,4.466,2.099,6.767,2.986
		c2.332,0.899,4.832,1.769,6.414,3.704c-3.653,0.706-7.43,0.763-11.102,0.168c-2.691-0.436-5.358-1.234-7.671-2.676
		c-3.254-2.028-5.621-5.194-7.706-8.412c-3.619-5.585-6.635-11.561-8.98-17.789c-0.866-2.301-1.651-4.702-1.548-7.159
		c0.104-2.462,2.263-7.749,3.466-3.101c0.838,3.238,1.158,6.592,2.082,9.829C116.05,160.989,118.933,167.087,123.837,171.519z"/>
	<path style="fill:#64798A;" d="M156.113,190.295c6.864,0.917,13.955,1.819,20.623-0.051c5.198-1.458,9.782-4.508,14.267-7.513
		c5.668-3.797,12.984-7.282,17.825-12.09c1.249-1.241,3.52-5.263,1.287-6.648c-1.516-0.94-4.186,0.994-5.289,1.861
		c-4.533,3.568-8.102,8.145-12.871,11.548c-4.871,3.476-10.183,6.334-15.769,8.479C169.767,188.347,162.98,189.87,156.113,190.295z"
		/>
	<path style="fill:#64798A;" d="M325.835,229.926c-9.361-1.012-10.597-6.846-18.547-14.298c-5.15-4.828-13.808-3.937-20.716-2.488
		l4.707,1.9c9.836,1.093,14.431,12.848,22.213,18.964c7.781,6.116,19.38,6.875,28.564,10.565
		C339.08,236.796,332.635,230.661,325.835,229.926z"/>
	<path style="fill:#64798A;" d="M144.985,229.926c9.361-1.012,10.597-6.846,18.547-14.298c5.15-4.828,13.808-3.937,20.716-2.488
		l-4.707,1.9c-9.836,1.093-14.431,12.848-22.213,18.964c-7.781,6.116-19.38,6.875-28.564,10.565
		C131.741,236.796,138.186,230.661,144.985,229.926z"/>
</g>
<path style="fill:#3A556A;" d="M235.408,252.522c-8.37,0-19.053-2.256-27.233-8.212c-3.621,4.348-9.308,7.197-15.348,7.197
	c-1.117,0-2.235-0.097-3.331-0.3c-8.865-1.621-16.207-9.115-18.268-18.647c-1.676-7.793,0.169-16.674,5.065-24.369
	c0.849-1.336,1.866-2.72,3.505-3.792c2.298-1.497,4.749-1.671,6.393-1.671c5.091,0.061,9.814,1.391,13.872,3.824
	c0.527-0.727,1.091-1.447,1.713-2.14c1.94-2.166,4.195-3.837,6.156-5.234c3.705-2.643,7.558-5.157,11.453-7.471
	c5.202-3.086,10.589-4.651,16.023-4.651c5.434,0,10.826,1.565,16.028,4.651c3.921,2.332,7.774,4.846,11.458,7.474
	c2.061,1.47,4.227,3.086,6.151,5.231c0.622,0.693,1.186,1.41,1.708,2.137c4.037-2.432,8.702-3.758,13.609-3.819
	c0.005,0,0.016,0,0.026,0c1.913,0,4.354,0.179,6.636,1.673c1.65,1.075,2.699,2.517,3.505,3.784
	c4.896,7.708,6.741,16.587,5.065,24.366c-2.061,9.537-9.403,17.032-18.268,18.653c-1.096,0.203-2.214,0.3-3.331,0.3l0,0
	c-6.04,0-11.727-2.849-15.348-7.197C254.466,250.266,243.778,252.522,235.408,252.522z"/>
<path style="fill:#2D93BA;" d="M289.974,211.086c-0.52-0.819-1.094-1.637-1.906-2.168c-1.057-0.69-2.384-0.805-3.645-0.79
	c-5.7,0.069-11.151,2.322-15.119,6.414c-1.263-2.283-2.541-4.587-4.282-6.53c-1.534-1.713-3.391-3.102-5.263-4.437
	c-3.591-2.562-7.289-4.974-11.081-7.227c-4.051-2.407-8.556-3.896-13.269-3.896c-4.713,0-9.217,1.488-13.269,3.896
	c-3.792,2.253-7.49,4.665-11.08,7.227c-1.872,1.335-3.728,2.725-5.263,4.437c-1.741,1.943-3.019,4.247-4.282,6.53
	c-3.969-4.092-9.419-6.345-15.119-6.414c-1.262-0.015-2.589,0.1-3.645,0.79c-0.812,0.53-1.385,1.349-1.906,2.168
	c-3.813,6-5.84,13.383-4.341,20.332c1.5,6.949,6.968,13.2,13.961,14.481c6.993,1.281,14.885-3.386,16.133-10.385
	c6.587,7.979,18.465,11.611,28.812,11.611s22.225-3.632,28.812-11.611c1.248,6.999,9.141,11.666,16.133,10.385
	c6.993-1.281,12.461-7.532,13.961-14.481C295.815,224.469,293.787,217.086,289.974,211.086z"/>
<g>
	<path style="fill:#3A556A;" d="M268.331,232.883c2.659-1.508,5.527-2.862,8.582-2.957c-3.836,2.514-7.483,5.447-11.397,7.821
		c-1.212,0.735-2.421,0.264-1.737-1.431C264.369,234.852,267.026,233.617,268.331,232.883z"/>
	<path style="fill:#3A556A;" d="M202.58,232.883c-2.659-1.508-5.527-2.862-8.582-2.957c3.836,2.514,7.483,5.447,11.397,7.821
		c1.212,0.735,2.421,0.264,1.737-1.431C206.542,234.852,203.886,233.617,202.58,232.883z"/>
	<path style="fill:#3A556A;" d="M204.005,268.367c2.701-4.4,6.573-7.914,10.774-10.851c2.121-1.483,4.335-2.827,6.581-4.11
		c1.853-1.059,4.654-3.295,6.779-3.422c0.322,1.542-3.429,3.888-4.495,4.819c-2.04,1.782-4.112,3.529-6.25,5.192
		c-2.084,1.621-4.228,3.166-6.458,4.58c-1.112,0.705-2.244,1.379-3.398,2.013C206.81,266.987,204.412,267.704,204.005,268.367z"/>
	<path style="fill:#3A556A;" d="M266.815,268.367c-2.701-4.4-6.572-7.914-10.774-10.851c-2.121-1.483-4.335-2.827-6.581-4.11
		c-1.853-1.059-4.654-3.295-6.779-3.422c-0.322,1.542,3.429,3.888,4.495,4.819c2.04,1.782,4.112,3.529,6.25,5.192
		c2.084,1.621,4.228,3.166,6.458,4.58c1.112,0.705,2.244,1.379,3.398,2.013C264.01,266.987,266.408,267.704,266.815,268.367z"/>
</g>
<g>
	<path style="fill:#D5D6DB;" d="M189.755,377.57c-3.239,0.864-6.207,1.889-8.744,2.969c-6.962,2.968-13.708,6.584-20.994,8.797
		c-3.131,0.972-6.423,1.619-9.715,1.835c-3.994-7.016-7.125-13.925-9.445-20.671c3.94-0.162,7.88,0.216,11.765-0.108
		c1.835-0.162,3.778-0.54,5.29-1.619c2.375-1.727,3.184-4.857,5.127-7.07c3.562-3.994,10.093-4.048,13.87-7.826
		c0.432-0.432,0.864-0.918,1.242-1.457c4.155,9.877,8.149,17.541,10.632,22.02C189.323,375.411,189.647,376.491,189.755,377.57z"/>
	<path style="fill:#D5D6DB;" d="M333.804,356.576c-2.266,11.118-6.476,22.722-13.277,34.595c-3.293-0.216-6.584-0.863-9.715-1.835
		c-7.286-2.213-14.032-5.829-20.994-8.797c-2.537-1.079-5.505-2.105-8.744-2.969c0.108-1.079,0.432-2.159,0.918-3.13
		c1.889-3.4,4.641-8.636,7.718-15.328c3.994-0.378,8.257,0.054,11.387,0.702c3.832,0.756,7.826,1.997,11.659,1.025
		c1.565-0.432,3.075-1.188,4.587-1.835C322.524,356.845,328.136,356.468,333.804,356.576z"/>
</g>
<g>
	<path style="fill:#E1E6E9;" d="M143.403,326.382c-0.003,0.971,0.261,2.231,1.225,2.349c0.493,0.061,0.958-0.241,1.316-0.586
		c1.703-1.646,1.896-4.264,1.982-6.631c0.114-3.138,2.167-13.298-0.602-15.182C143.855,311.312,143.403,320.434,143.403,326.382z"/>
	<path style="fill:#E1E6E9;" d="M149.247,356.214c0.766,1.219,1.829,2.597,3.264,2.469c1.058-0.992,1.585-2.52,1.363-3.953
		c-0.169-1.093-0.733-2.08-1.305-3.027c-1.089-1.802-6.466-11.965-8.62-8.408C142.174,346.226,147.76,353.847,149.247,356.214z"/>
	<path style="fill:#E1E6E9;" d="M324.835,315.588c0.003,0.971-0.261,2.231-1.225,2.349c-0.493,0.061-0.958-0.241-1.316-0.586
		c-1.703-1.646-1.896-4.264-1.982-6.631c-0.114-3.138-2.167-13.298,0.602-15.182C324.383,300.517,324.835,309.64,324.835,315.588z"
		/>
	<path style="fill:#E1E6E9;" d="M324.209,345.384c-0.47,1.361-1.195,2.943-2.621,3.144c-1.255-0.727-2.114-2.096-2.222-3.542
		c-0.082-1.103,0.244-2.192,0.587-3.243c0.653-2.001,3.593-13.117,6.496-10.14C328.84,334.055,325.122,342.742,324.209,345.384z"/>
</g>
<g>
</g>
<g>
</g>
<g>
</g>
<g>
</g>
<g>
</g>
<g>
</g>
<g>
</g>
<g>
</g>
<g>
</g>
<g>
</g>
<g>
</g>
<g>
</g>
<g>
</g>
<g>
</g>
<g>
</g>
</svg>
